<?xml version="1.0" encoding="UTF-8" standalone="no"?>
<!-- Created with Inkscape (http://www.inkscape.org/) -->

<svg
   width="237.03839mm"
   height="132.66452mm"
   viewBox="0 0 237.03839 132.66452"
   version="1.1"
   id="svg1"
   inkscape:version="1.4.2 (f4327f4, 2025-05-13)"
   sodipodi:docname="workflow.svg"
   xmlns:inkscape="http://www.inkscape.org/namespaces/inkscape"
   xmlns:sodipodi="http://sodipodi.sourceforge.net/DTD/sodipodi-0.dtd"
   xmlns="http://www.w3.org/2000/svg"
   xmlns:svg="http://www.w3.org/2000/svg">
  <sodipodi:namedview
     id="namedview1"
     pagecolor="#505050"
     bordercolor="#eeeeee"
     borderopacity="1"
     inkscape:showpageshadow="0"
     inkscape:pageopacity="0"
     inkscape:pagecheckerboard="0"
     inkscape:deskcolor="#505050"
     inkscape:document-units="mm"
     inkscape:zoom="1.0721378"
     inkscape:cx="415.0586"
     inkscape:cy="1121.5909"
     inkscape:window-width="1920"
     inkscape:window-height="1111"
     inkscape:window-x="-9"
     inkscape:window-y="-9"
     inkscape:window-maximized="1"
     inkscape:current-layer="layer1">
    <inkscape:page
       x="0"
       y="0"
       width="237.03839"
       height="132.66452"
       id="page2"
       margin="0"
       bleed="0" />
  </sodipodi:namedview>
  <defs
     id="defs1" />
  <g
     inkscape:label="Layer 1"
     inkscape:groupmode="layer"
     id="layer1"
     transform="translate(-93.565787,-521.31298)">
    <path
       d="m 106.29442,528.92001 c 5.26045,0 9.52474,4.26429 9.52474,9.52474 0,5.26044 -4.26429,9.52473 -9.52474,9.52473 -5.26044,0 -9.52473,-4.26429 -9.52473,-9.52473 0.0061,-5.2578 4.26694,-9.51865 9.52473,-9.52474 m 0,-0.52943 c -5.5528,0 -10.054161,4.50136 -10.054161,10.05417 0,5.55281 4.501361,10.05416 10.054161,10.05416 5.55281,0 10.05417,-4.50135 10.05417,-10.05416 0.002,-5.55017 -4.49501,-10.05153 -10.04517,-10.05417 -0.003,0 -0.006,0 -0.009,0 z"
       fill="#213c5d"
       fill-rule="evenodd"
       id="path229"
       style="fill:#808080;stroke-width:0.264583"
       inkscape:export-filename="wf_7steps.svg"
       inkscape:export-xdpi="96"
       inkscape:export-ydpi="96" />
    <path
       d="m 106.44074,542.67808 v -8.12879 c 0,-0.003 -0.002,-0.004 -0.005,-0.002 l -0.15796,0.12964 c -0.16033,0.12885 -0.32993,0.24739 -0.5072,0.35454 -0.18944,0.11563 -0.38471,0.2249 -0.58076,0.32518 -0.19712,0.10054 -0.39661,0.19182 -0.59241,0.27172 -0.14737,0.0595 -0.28813,0.11272 -0.42015,0.15769 v -0.508 c 0.50482,-0.1606 0.98848,-0.37623 1.44118,-0.6424 0.48101,-0.28417 0.93848,-0.60272 1.36816,-0.9533 l 0.10107,0.005 v 8.99081 z"
       fill="#213c5d"
       fill-rule="evenodd"
       id="path230"
       style="fill:#808080;stroke-width:0.264583" />
    <path
       d="m 157.09442,528.92001 c 5.26045,0 9.52474,4.26429 9.52474,9.52474 0,5.26044 -4.26429,9.52473 -9.52474,9.52473 -5.26044,0 -9.52473,-4.26429 -9.52473,-9.52473 0.006,-5.2578 4.26693,-9.51865 9.52473,-9.52474 m 0,-0.52943 c -5.55281,0 -10.05416,4.50136 -10.05416,10.05417 0,5.55281 4.50135,10.05416 10.05416,10.05416 5.55281,0 10.05417,-4.50135 10.05417,-10.05416 0.003,-5.55017 -4.49448,-10.05153 -10.04464,-10.05417 -0.003,0 -0.006,0 -0.01,0 z"
       fill="#213c5d"
       fill-rule="evenodd"
       id="path231"
       style="fill:#808080;stroke-width:0.264583" />
    <path
       d="m 154.44912,542.67623 v -0.34052 c -0.006,-0.34528 0.0386,-0.68977 0.13388,-1.02103 0.0915,-0.29051 0.2331,-0.56197 0.41751,-0.80169 0.21855,-0.27966 0.46699,-0.5334 0.7403,-0.7567 0.30269,-0.25242 0.6731,-0.54161 1.10094,-0.8599 0.29051,-0.21855 0.55297,-0.43339 0.77972,-0.63844 0.21564,-0.19209 0.40958,-0.40852 0.57838,-0.64479 0.15372,-0.21828 0.27385,-0.45958 0.3564,-0.71543 0.0833,-0.27226 0.12435,-0.55616 0.12117,-0.84164 0.004,-0.27041 -0.0405,-0.53949 -0.13229,-0.79322 -0.16086,-0.44821 -0.51223,-0.7964 -0.95435,-0.94589 -0.23707,-0.081 -0.48577,-0.12091 -0.73581,-0.11827 -0.40878,5.3e-4 -0.81121,0.10187 -1.17395,0.29581 -0.32094,0.17118 -0.61939,0.38391 -0.88794,0.63235 v -0.64505 c 0.29104,-0.23998 0.61462,-0.43498 0.9607,-0.57918 0.38682,-0.1516 0.79798,-0.22622 1.21179,-0.22013 0.0672,0 0.13414,0.004 0.20082,0.0122 0.0664,0.008 0.13229,0.0209 0.19711,0.037 0.27702,0.0283 0.54716,0.1053 0.79825,0.22781 0.22913,0.11297 0.43524,0.26934 0.60775,0.4609 0.17171,0.19553 0.30427,0.42386 0.38973,0.67178 0.0952,0.27993 0.14235,0.57494 0.13864,0.87154 0.005,0.3421 -0.0434,0.68315 -0.14261,1.00991 -0.0937,0.29369 -0.23124,0.57071 -0.40772,0.82127 -0.18706,0.26246 -0.4027,0.50218 -0.64241,0.7149 -0.25215,0.22569 -0.5379,0.45667 -0.84958,0.68421 -0.35083,0.2593 -0.6559,0.49213 -0.90725,0.69136 -0.22649,0.17595 -0.43948,0.36989 -0.63685,0.5797 -0.1577,0.16695 -0.28999,0.35719 -0.39265,0.56436 -0.0929,0.19605 -0.15742,0.40481 -0.19208,0.61965 -0.01,0.0672 -0.0153,0.12674 -0.0225,0.19235 -0.007,0.0683 -0.01,0.13679 -0.01,0.20532 v 0.0939 h 4.38097 v 0.53737 z"
       fill="#213c5d"
       fill-rule="evenodd"
       id="path232"
       style="fill:#808080;stroke-width:0.264583" />
    <text
       fill="#213c5d"
       font-family="'Roboto Light', 'Roboto Light_MSFontService', sans-serif"
       font-weight="300"
       font-size="7.14375px"
       id="text232"
       x="95.922493"
       y="556.17181"
       style="fill:#808080;stroke-width:0.264583">Import</text>
    <text
       fill="#213c5d"
       font-family="'Roboto Light', 'Roboto Light_MSFontService', sans-serif"
       font-weight="300"
       font-size="7.14375px"
       id="text233"
       x="92.923965"
       y="564.63849"
       style="fill:#808080;stroke-width:0.264583">Modules</text>
    <text
       fill="#213c5d"
       font-family="'Roboto Light', 'Roboto Light_MSFontService', sans-serif"
       font-weight="300"
       font-size="7.14375px"
       id="text234"
       x="149.31831"
       y="556.70099"
       style="fill:#808080;stroke-width:0.264583">Build</text>
    <text
       fill="#213c5d"
       font-family="'Roboto Light', 'Roboto Light_MSFontService', sans-serif"
       font-weight="300"
       font-size="7.14375px"
       id="text235"
       x="147.3551"
       y="565.16766"
       style="fill:#808080;stroke-width:0.264583">Model</text>
    <path
       d="m 262.16974,573.47483 c 5.26044,0 9.52473,4.26429 9.52473,9.52473 0,5.26045 -4.26429,9.52474 -9.52473,9.52474 -5.26045,0 -9.52474,-4.26429 -9.52474,-9.52474 0.006,-5.2578 4.26694,-9.51865 9.52474,-9.52473 m 0,-0.52943 c -5.55282,0 -10.05417,4.50135 -10.05417,10.05416 0,5.55281 4.50135,10.05417 10.05417,10.05417 5.55281,0 10.05416,-4.50136 10.05416,-10.05417 0.003,-5.55016 -4.49448,-10.05152 -10.04464,-10.05416 -0.003,0 -0.006,0 -0.01,0 z"
       fill="#213c5d"
       fill-rule="evenodd"
       id="path235"
       style="fill:#808080;stroke-width:0.264583" />
    <path
       d="m 261.38313,587.49642 c -0.64664,0.0148 -1.28667,-0.13599 -1.85923,-0.43815 v -0.64638 c 0.5588,0.37174 1.21312,0.57415 1.88384,0.58235 0.28125,8e-4 0.56118,-0.0357 0.8329,-0.10821 0.25982,-0.0685 0.5043,-0.186 0.71993,-0.34661 0.21247,-0.16139 0.38524,-0.36909 0.50509,-0.60748 0.1323,-0.27437 0.19712,-0.57653 0.18945,-0.88106 0.0336,-0.57627 -0.22596,-1.1303 -0.68977,-1.47267 -0.44794,-0.32385 -1.11152,-0.48763 -1.97115,-0.48763 h -0.61198 v -0.50192 h 0.55668 c 0.78291,0 1.38377,-0.15848 1.78568,-0.47545 0.41777,-0.34026 0.6469,-0.86096 0.61595,-1.39965 0.0304,-0.46699 -0.13547,-0.92551 -0.45747,-1.26444 -0.3765,-0.31724 -0.86122,-0.47493 -1.35175,-0.43974 -0.5932,0.0108 -1.17026,0.19447 -1.66159,0.52811 v -0.57124 c 0.56251,-0.30241 1.19036,-0.46169 1.82827,-0.4646 0.29634,-8e-4 0.59108,0.0415 0.87524,0.12594 0.26379,0.077 0.51012,0.20505 0.72496,0.37676 0.20797,0.17013 0.37651,0.38339 0.49398,0.62521 0.12832,0.27464 0.19129,0.57494 0.18441,0.87789 0,1.14829 -0.55165,1.8624 -1.68618,2.18281 l -0.0672,0.0188 v 0.17727 l 0.082,0.01 c 0.26961,0.0299 0.53314,0.0995 0.78237,0.20664 0.2331,0.10001 0.44583,0.24235 0.6268,0.42042 0.17913,0.17912 0.32121,0.39211 0.41831,0.62653 0.10504,0.2585 0.15716,0.53578 0.15319,0.81492 0.007,0.37253 -0.0701,0.74189 -0.22542,1.08029 -0.14499,0.30665 -0.35587,0.57706 -0.61754,0.79243 -0.27384,0.22119 -0.58711,0.38788 -0.9234,0.49133 -0.36777,0.11404 -0.75115,0.17092 -1.13638,0.16801 z"
       fill="#213c5d"
       fill-rule="evenodd"
       id="path236"
       style="fill:#808080;stroke-width:0.264583" />
    <path
       d="m 206.75442,573.47483 c 5.26045,0 9.52473,4.26429 9.52473,9.52473 0,5.26045 -4.26428,9.52474 -9.52473,9.52474 -5.26045,0 -9.52474,-4.26429 -9.52474,-9.52474 0.006,-5.2578 4.26694,-9.51865 9.52474,-9.52473 m 0,-0.52943 c -5.55281,0 -10.05417,4.50135 -10.05417,10.05416 0,5.55281 4.50136,10.05417 10.05417,10.05417 5.55281,0 10.05417,-4.50136 10.05417,-10.05417 0.003,-5.55016 -4.49448,-10.05152 -10.04465,-10.05416 -0.003,0 -0.006,0 -0.01,0 z"
       fill="#213c5d"
       fill-rule="evenodd"
       id="path237"
       style="fill:#808080;stroke-width:0.264583" />
    <path
       d="m 207.4463,587.2329 v -2.21351 h -4.13146 v -0.60351 c 0.37332,-0.42439 0.76279,-0.90197 1.15173,-1.40044 0.39396,-0.50615 0.77681,-1.0287 1.13771,-1.55284 0.36089,-0.52441 0.69797,-1.04907 1.00144,-1.55972 0.272,-0.45376 0.52123,-0.92154 0.74639,-1.40123 h 0.68527 v 5.98196 h 1.36287 v 0.53578 h -1.36287 v 2.21351 z m -0.16959,-7.5954 c -0.29713,0.52467 -0.59717,1.02209 -0.89165,1.47823 -0.29422,0.45614 -0.58235,0.88186 -0.85857,1.27132 -0.27623,0.38947 -0.54346,0.74877 -0.79455,1.06892 -0.25109,0.32014 -0.48524,0.61463 -0.69585,0.87551 l -0.12197,0.15134 v 0 h 3.53218 v -5.1443 0 z"
       fill="#213c5d"
       fill-rule="evenodd"
       id="path238"
       style="fill:#808080;stroke-width:0.264583" />
    <path
       d="m 179.04436,618.08459 c 5.26045,0 9.52474,4.26429 9.52474,9.52474 0,5.26044 -4.26429,9.52473 -9.52474,9.52473 -5.26044,0 -9.52473,-4.26429 -9.52473,-9.52473 0.006,-5.2578 4.26693,-9.51865 9.52473,-9.52474 m 0,-0.52943 c -5.55281,0 -10.05416,4.50136 -10.05416,10.05417 0,5.55281 4.50135,10.05416 10.05416,10.05416 5.55281,0 10.05417,-4.50135 10.05417,-10.05416 0.003,-5.55017 -4.49448,-10.05153 -10.04464,-10.05417 h -0.01 z"
       fill="#213c5d"
       fill-rule="evenodd"
       id="path239"
       style="fill:#808080;stroke-width:0.264583"
       sodipodi:nodetypes="csscccsscscc" />
    <path
       d="m 178.53557,631.83948 c -0.55219,0.0233 -1.10226,-0.0815 -1.60787,-0.30665 v -0.64188 c 0.49847,0.2921 1.06283,0.44979 1.63882,0.45853 0.31486,0.004 0.62813,-0.0474 0.92552,-0.15188 0.26432,-0.0942 0.50667,-0.24235 0.71173,-0.43524 0.19817,-0.19076 0.35295,-0.42253 0.45402,-0.67971 0.10742,-0.27755 0.16087,-0.57335 0.15769,-0.87127 0.0352,-0.58235 -0.19235,-1.14962 -0.61912,-1.54226 -0.40614,-0.3511 -1.00754,-0.52917 -1.78806,-0.52917 -0.2876,0 -0.6985,0.0217 -1.22131,0.0651 l 0.25426,-4.09363 h 3.60389 v 0.52678 h -3.11388 l -0.19394,3.03107 0.10319,-0.008 c 0.3466,-0.0241 0.62521,-0.0362 0.82814,-0.0362 0.40323,-0.007 0.80513,0.0526 1.18957,0.17568 0.31777,0.10346 0.61066,0.27332 0.85937,0.49821 0.2331,0.21723 0.41354,0.48604 0.52705,0.78529 0.12515,0.33893 0.18653,0.6985 0.18071,1.06018 0.004,0.37677 -0.0611,0.75115 -0.19368,1.10331 -0.12223,0.32042 -0.31273,0.60987 -0.55827,0.84747 -0.26061,0.24421 -0.56912,0.43074 -0.9054,0.54742 -0.39661,0.13626 -0.8136,0.20293 -1.23243,0.19658 z"
       fill="#213c5d"
       fill-rule="evenodd"
       id="path240"
       style="fill:#808080;stroke-width:0.264583" />
    <path
       d="m 233.55144,618.08406 c 5.26071,-0.002 9.52659,4.26164 9.52817,9.52235 0.002,5.26072 -4.26164,9.52659 -9.52235,9.52818 -5.26071,0.002 -9.52632,-4.26164 -9.52818,-9.52235 0,-0.001 0,-0.002 0,-0.003 0.005,-5.25727 4.26509,-9.51812 9.52236,-9.525 m 0,-0.5289 c -5.55281,-0.002 -10.05549,4.49844 -10.05708,10.05125 -0.002,5.55282 4.49845,10.05549 10.05126,10.05708 5.55281,0.002 10.05549,-4.49844 10.05707,-10.05125 0,-0.001 0,-0.002 0,-0.003 0.003,-5.54963 -4.49368,-10.05099 -10.04331,-10.0539 -0.003,0 -0.005,0 -0.008,0 z"
       fill="#213c5d"
       fill-rule="evenodd"
       id="path241"
       style="fill:#808080;stroke-width:0.264583" />
    <path
       d="m 233.28712,631.8416 c -0.78158,0.0236 -1.51765,-0.36274 -1.9386,-1.01732 -0.24659,-0.3818 -0.42439,-0.80328 -0.52546,-1.2454 -0.12939,-0.55694 -0.1913,-1.12712 -0.18442,-1.69889 -0.007,-0.70088 0.0746,-1.39991 0.24315,-2.08068 0.13759,-0.56568 0.37227,-1.10358 0.69401,-1.58988 0.27834,-0.41566 0.65061,-0.76094 1.08717,-1.00806 0.44132,-0.23945 0.93768,-0.36116 1.44039,-0.35322 0.44106,-0.0114 0.88053,0.0579 1.29619,0.20505 v 0.57759 c -0.4056,-0.18204 -0.84561,-0.27596 -1.29063,-0.27517 -0.41514,-0.005 -0.82418,0.10081 -1.18401,0.30665 -0.36143,0.21352 -0.66755,0.50879 -0.8935,0.86122 -0.25876,0.40587 -0.44821,0.85143 -0.56065,1.31842 -0.13547,0.55192 -0.20109,1.11813 -0.19553,1.68592 v 0.0923 h 0.17542 l 0.0267,-0.0526 c 0.35322,-0.80274 1.1729,-1.30122 2.05317,-1.2483 0.33919,-0.005 0.67548,0.0619 0.98663,0.19605 0.2876,0.127 0.54451,0.31353 0.75406,0.54663 0.21511,0.24448 0.38021,0.52838 0.48578,0.83556 0.11773,0.34263 0.17621,0.70273 0.1725,1.06468 0.004,0.39582 -0.0624,0.78925 -0.19685,1.16205 -0.12118,0.33496 -0.30744,0.64347 -0.54795,0.90726 -0.23495,0.2532 -0.51964,0.45587 -0.83661,0.59557 -0.33443,0.14526 -0.69612,0.21828 -1.06098,0.21458 z m 0.0624,-5.01306 c -0.27675,-0.002 -0.55033,0.0556 -0.80221,0.16933 -0.24078,0.10822 -0.45747,0.26247 -0.63818,0.45403 -0.17833,0.1905 -0.31962,0.41222 -0.41672,0.65378 -0.0995,0.24501 -0.15055,0.50668 -0.15002,0.771 -0.002,0.31882 0.046,0.63606 0.14129,0.94059 0.0865,0.28152 0.22251,0.54557 0.40137,0.78026 0.16881,0.2204 0.38259,0.40296 0.62733,0.53578 0.25109,0.13414 0.53208,0.20294 0.81677,0.20003 0.54451,0.007 1.06336,-0.2286 1.41367,-0.64215 0.17674,-0.21034 0.31326,-0.45111 0.40296,-0.71014 0.0995,-0.2876 0.14869,-0.59002 0.14552,-0.89403 0.003,-0.31115 -0.0418,-0.62124 -0.13282,-0.91916 -0.0791,-0.26088 -0.20876,-0.50403 -0.3818,-0.71517 -0.16615,-0.19791 -0.37518,-0.35533 -0.61145,-0.46117 -0.25691,-0.11165 -0.53525,-0.16721 -0.81571,-0.16298 z"
       fill="#213c5d"
       fill-rule="evenodd"
       id="path242"
       style="fill:#808080;stroke-width:0.264583" />
    <text
       fill="#213c5d"
       font-family="'Roboto Light', 'Roboto Light_MSFontService', sans-serif"
       font-weight="300"
       font-size="7.14375px"
       id="text242"
       x="251.02469"
       y="600.99121"
       style="fill:#808080;stroke-width:0.264583">Specify</text>
    <text
       fill="#213c5d"
       font-family="'Roboto Light', 'Roboto Light_MSFontService', sans-serif"
       font-weight="300"
       font-size="7.14375px"
       id="text243"
       x="252.74448"
       y="609.45789"
       style="fill:#808080;stroke-width:0.264583">Model</text>
    <text
       fill="#213c5d"
       font-family="'Roboto Light', 'Roboto Light_MSFontService', sans-serif"
       font-weight="300"
       font-size="7.14375px"
       id="text244"
       x="198.42162"
       y="600.99121"
       style="fill:#808080;stroke-width:0.264583">Scale</text>
    <text
       fill="#213c5d"
       font-family="'Roboto Light', 'Roboto Light_MSFontService', sans-serif"
       font-weight="300"
       font-size="7.14375px"
       id="text245"
       x="197.231"
       y="609.45789"
       style="fill:#808080;stroke-width:0.264583">Model</text>
    <text
       fill="#213c5d"
       font-family="'Roboto Light', 'Roboto Light_MSFontService', sans-serif"
       font-weight="300"
       font-size="7.14375px"
       id="text246"
       x="166.50496"
       y="645.33643"
       style="fill:#808080;stroke-width:0.264583">Initialize</text>
    <text
       fill="#213c5d"
       font-family="'Roboto Light', 'Roboto Light_MSFontService', sans-serif"
       font-weight="300"
       font-size="7.14375px"
       id="text247"
       x="169.52464"
       y="653.8031"
       style="fill:#808080;stroke-width:0.264583">Model</text>
    <text
       fill="#213c5d"
       font-family="'Roboto Light', 'Roboto Light_MSFontService', sans-serif"
       font-weight="300"
       font-size="7.14375px"
       id="text248"
       x="224.93077"
       y="645.33643"
       style="fill:#808080;stroke-width:0.264583">Solve</text>
    <text
       fill="#213c5d"
       font-family="'Roboto Light', 'Roboto Light_MSFontService', sans-serif"
       font-weight="300"
       font-size="7.14375px"
       id="text249"
       x="223.71713"
       y="653.8031"
       style="fill:#808080;stroke-width:0.264583">Model</text>
    <text
       fill="#213c5d"
       font-family="'Roboto Light', 'Roboto Light_MSFontService', sans-serif"
       font-weight="300"
       font-size="5.55625px"
       id="text250"
       x="193.40028"
       y="547.96973"
       style="fill:#808080;stroke-width:0.264583">Create</text>
    <text
       fill="#213c5d"
       font-family="'Roboto Light', 'Roboto Light_MSFontService', sans-serif"
       font-weight="300"
       font-size="5.55625px"
       id="text251"
       x="185.1982"
       y="554.84888"
       style="fill:#808080;stroke-width:0.264583">Model Object</text>
    <text
       fill="#213c5d"
       font-family="'Roboto Light', 'Roboto Light_MSFontService', sans-serif"
       font-weight="300"
       font-size="5.55625px"
       id="text252"
       x="218.05389"
       y="525.48016"
       style="fill:#808080;stroke-width:0.264583">Add Flowsheet</text>
    <text
       fill="#213c5d"
       font-family="'Roboto Light', 'Roboto Light_MSFontService', sans-serif"
       font-weight="300"
       font-size="5.55625px"
       id="text253"
       x="225.50641"
       y="532.35931"
       style="fill:#808080;stroke-width:0.264583">to Model</text>
    <text
       fill="#213c5d"
       font-family="'Roboto Light', 'Roboto Light_MSFontService', sans-serif"
       font-weight="300"
       font-size="5.55625px"
       id="text254"
       x="243.23932"
       y="547.96973"
       style="fill:#808080;stroke-width:0.264583">Add Property Packages</text>
    <text
       fill="#213c5d"
       font-family="'Roboto Light', 'Roboto Light_MSFontService', sans-serif"
       font-weight="300"
       font-size="5.55625px"
       id="text255"
       x="256.1597"
       y="554.84888"
       style="fill:#808080;stroke-width:0.264583">to Flowsheet</text>
    <path
       d="m 116.34859,538.48337 30.6832,-0.0385"
       stroke="#213c5d"
       stroke-width="0.529167"
       stroke-miterlimit="8"
       fill="none"
       fill-rule="evenodd"
       id="path261"
       style="stroke:#808080" />
    <path
       d="m 198.89859,538.31245 c 0,-1.38826 1.12527,-2.51354 2.51354,-2.51354 1.38827,0 2.51354,1.12528 2.51354,2.51354 0,1.38827 -1.12527,2.51355 -2.51354,2.51355 -1.38827,0 -2.51354,-1.12528 -2.51354,-2.51355 z"
       stroke="#213c5d"
       stroke-width="0.529167"
       stroke-miterlimit="8"
       fill="#ffffff"
       fill-rule="evenodd"
       id="path262"
       style="fill:none;stroke:#808080" />
    <path
       d="m 233.82359,538.31245 c 0,-1.38826 1.12527,-2.51354 2.51354,-2.51354 1.38827,0 2.51354,1.12528 2.51354,2.51354 0,1.38827 -1.12527,2.51355 -2.51354,2.51355 -1.38827,0 -2.51354,-1.12528 -2.51354,-2.51355 z"
       stroke="#213c5d"
       stroke-width="0.529167"
       stroke-miterlimit="8"
       fill="#ffffff"
       fill-rule="evenodd"
       id="path263"
       style="fill:none;stroke:#808080" />
    <path
       d="m 268.74859,538.31245 c 0,-1.38826 1.12527,-2.51354 2.51354,-2.51354 1.38827,0 2.51354,1.12528 2.51354,2.51354 0,1.38827 -1.12527,2.51355 -2.51354,2.51355 -1.38827,0 -2.51354,-1.12528 -2.51354,-2.51355 z"
       stroke="#213c5d"
       stroke-width="0.529167"
       stroke-miterlimit="8"
       fill="#ffffff"
       fill-rule="evenodd"
       id="path264"
       style="fill:none;stroke:#808080" />
    <path
       d="m 303.67359,538.31245 c 0,-1.38826 1.18454,-2.51354 2.64583,-2.51354 1.46129,0 2.64583,1.12528 2.64583,2.51354 0,1.38827 -1.18454,2.51355 -2.64583,2.51355 -1.46129,0 -2.64583,-1.12528 -2.64583,-2.51355 z"
       stroke="#213c5d"
       stroke-width="0.529167"
       stroke-miterlimit="8"
       fill="#ffffff"
       fill-rule="evenodd"
       id="path265"
       style="fill:none;stroke:#808080" />
    <text
       fill="#213c5d"
       font-family="'Roboto Light', 'Roboto Light_MSFontService', sans-serif"
       font-weight="300"
       font-size="5.55625px"
       id="text265"
       x="285.98145"
       y="526.00934"
       style="fill:#808080;stroke-width:0.264583">Add Unit Models</text>
    <text
       fill="#213c5d"
       font-family="'Roboto Light', 'Roboto Light_MSFontService', sans-serif"
       font-weight="300"
       font-size="5.55625px"
       id="text266"
       x="290.39124"
       y="532.88849"
       style="fill:#808080;stroke-width:0.264583">to Flowsheet</text>
    <path
       d="m 196.70016,582.99726 -35.3068,-0.0114 c -12.41949,-0.17476 -22.63028,9.66886 -22.8065,21.98637 -0.17171,12.01002 9.27629,21.99818 21.37215,22.59395 l 9.03063,0.0114"
       stroke="#213c5d"
       stroke-width="0.529167"
       stroke-miterlimit="8"
       fill="none"
       fill-rule="evenodd"
       id="path269"
       style="stroke:#808080"
       sodipodi:nodetypes="ccccc" />
    <path
       d="m 188.56936,627.60933 35.3068,0.0114"
       stroke="#213c5d"
       stroke-width="0.529167"
       stroke-miterlimit="8"
       fill="none"
       fill-rule="evenodd"
       id="path272"
       style="stroke:#808080" />
    <path
       d="m 167.14859,538.50057 31.83308,-0.0558"
       stroke="#213c5d"
       stroke-width="0.529167"
       stroke-miterlimit="8"
       fill="none"
       fill-rule="evenodd"
       id="path273"
       style="stroke:#808080" />
    <path
       d="m 203.92567,538.51645 29.81801,-0.0717"
       stroke="#213c5d"
       stroke-width="0.529167"
       stroke-miterlimit="8"
       fill="none"
       fill-rule="evenodd"
       id="path274"
       style="stroke:#808080" />
    <path
       d="m 238.85067,538.44475 h 29.85849"
       stroke="#213c5d"
       stroke-width="0.529167"
       stroke-miterlimit="8"
       fill="none"
       fill-rule="evenodd"
       id="path275"
       style="fill:#808080;stroke:#808080" />
    <path
       d="m 273.77567,538.44475 h 29.92834"
       stroke="#213c5d"
       stroke-width="0.529167"
       stroke-miterlimit="8"
       fill="none"
       fill-rule="evenodd"
       id="path276"
       style="fill:#808080;stroke:#808080" />
    <path
       d="m 288.96666,618.08406 c 5.26071,-0.002 9.52659,4.26165 9.52817,9.52236 0.002,5.26071 -4.26164,9.52658 -9.52235,9.52817 -5.26071,0.002 -9.52632,-4.26164 -9.52818,-9.52235 0,-0.001 0,-0.002 0,-0.003 0.005,-5.25727 4.26509,-9.51812 9.52236,-9.525 m 0,-0.5289 c -5.55281,-0.002 -10.05549,4.49845 -10.05708,10.05126 -0.002,5.55281 4.49845,10.05549 10.05126,10.05707 5.55281,0.002 10.05549,-4.49844 10.05707,-10.05125 0,-0.001 0,-0.002 0,-0.003 0.003,-5.54963 -4.49368,-10.05099 -10.04331,-10.0539 -0.003,0 -0.005,0 -0.008,0 z"
       fill="#213c5d"
       fill-rule="evenodd"
       id="path281"
       style="fill:#808080;stroke-width:0.264583" />
    <path
       d="m 287.98664,632.10724 c 0.10822,-0.63209 0.25823,-1.25677 0.44926,-1.87034 0.2085,-0.67415 0.46064,-1.36392 0.7493,-2.04946 0.28866,-0.68553 0.61754,-1.38509 0.97764,-2.07671 0.3601,-0.69162 0.74083,-1.38166 1.1393,-2.06031 l 0.0823,-0.13865 h -4.80192 v -0.53578 h 5.55625 v 0.22596 c -0.32623,0.56277 -0.63103,1.1086 -0.90541,1.60893 -0.27993,0.51276 -0.54028,1.01415 -0.77364,1.4896 -0.2331,0.47546 -0.44847,0.94695 -0.63579,1.39171 -0.18733,0.4445 -0.35878,0.89906 -0.50694,1.34356 -0.14817,0.44423 -0.2794,0.90196 -0.38815,1.35043 -0.10345,0.42704 -0.19367,0.87127 -0.26828,1.32106 z"
       fill="#213c5d"
       fill-rule="evenodd"
       id="path282"
       style="fill:#808080;stroke-width:0.264583" />
    <g
       id="g283"
       transform="translate(-48.911374,156.41747)">
      <text
         fill="#213c5d"
         font-family="'Roboto Light', 'Roboto Light_MSFontService', sans-serif"
         font-weight="300"
         font-size="7.14375px"
         id="text282"
         x="310.8573"
         y="489.02359"
         style="fill:#808080;stroke-width:0.264583">Analyze/Visualize</text>
      <text
         fill="#213c5d"
         font-family="'Roboto Light', 'Roboto Light_MSFontService', sans-serif"
         font-weight="300"
         font-size="7.14375px"
         id="text283"
         x="326.5553"
         y="497.49026"
         style="fill:#808080;stroke-width:0.264583">Results</text>
    </g>
    <path
       d="m 243.60269,627.60915 35.3068,0.0114"
       stroke="#213c5d"
       stroke-width="0.529167"
       stroke-miterlimit="8"
       fill="none"
       fill-rule="evenodd"
       id="path283"
       style="fill:#808080;stroke:#808080" />
    <path
       d="m 272.22399,582.98586 35.3068,0.0114 c 12.41949,0.17517 22.63028,-9.69152 22.8065,-22.0379 0.17171,-12.03817 -9.27629,-22.04974 -21.37204,-22.64691"
       stroke="#213c5d"
       stroke-width="0.529167"
       stroke-miterlimit="8"
       fill="none"
       fill-rule="evenodd"
       id="path286"
       style="stroke:#808080"
       sodipodi:nodetypes="cccc" />
    <path
       d="m 216.80868,582.98586 35.3068,0.0114"
       stroke="#213c5d"
       stroke-width="0.529167"
       stroke-miterlimit="8"
       fill="none"
       fill-rule="evenodd"
       id="path287"
       style="stroke:#808080" />
  </g>
</svg>
