<?xml version="1.0" encoding="UTF-8" standalone="no"?>
<!-- Created with Inkscape (http://www.inkscape.org/) -->

<svg
   width="237.03839mm"
   height="132.66452mm"
   viewBox="0 0 237.03839 132.66452"
   version="1.1"
   id="svg1"
   inkscape:version="1.4.2 (f4327f4, 2025-05-13)"
   sodipodi:docname="wf_7steps_2.svg"
   xmlns:inkscape="http://www.inkscape.org/namespaces/inkscape"
   xmlns:sodipodi="http://sodipodi.sourceforge.net/DTD/sodipodi-0.dtd"
   xmlns="http://www.w3.org/2000/svg"
   xmlns:svg="http://www.w3.org/2000/svg">
  <sodipodi:namedview
     id="namedview1"
     pagecolor="#505050"
     bordercolor="#eeeeee"
     borderopacity="1"
     inkscape:showpageshadow="0"
     inkscape:pageopacity="0"
     inkscape:pagecheckerboard="0"
     inkscape:deskcolor="#505050"
     inkscape:document-units="mm"
     inkscape:zoom="1.5162318"
     inkscape:cx="105.52476"
     inkscape:cy="103.21641"
     inkscape:window-width="1920"
     inkscape:window-height="1111"
     inkscape:window-x="-9"
     inkscape:window-y="-9"
     inkscape:window-maximized="1"
     inkscape:current-layer="layer1">
    <inkscape:page
       x="0"
       y="0"
       width="237.03839"
       height="132.66452"
       id="page2"
       margin="0"
       bleed="0" />
  </sodipodi:namedview>
  <defs
     id="defs1" />
  <g
     inkscape:label="Layer 1"
     inkscape:groupmode="layer"
     id="layer1"
     transform="translate(-366.27479,-521.31298)">
    <path
       d="m 379.00342,528.92001 c 5.26045,0 9.52474,4.26429 9.52474,9.52474 0,5.26044 -4.26429,9.52473 -9.52474,9.52473 -5.26044,0 -9.52473,-4.26429 -9.52473,-9.52473 0.006,-5.2578 4.26694,-9.51865 9.52473,-9.52474 m 0,-0.52943 c -5.5528,0 -10.05416,4.50136 -10.05416,10.05417 0,5.55281 4.50136,10.05416 10.05416,10.05416 5.55281,0 10.05417,-4.50135 10.05417,-10.05416 0.002,-5.55017 -4.49501,-10.05153 -10.04517,-10.05417 -0.003,0 -0.006,0 -0.009,0 z"
       fill="#213c5d"
       fill-rule="evenodd"
       id="path291"
       style="fill:#213c5d;fill-opacity:1;stroke-width:0.264583"
       inkscape:export-filename="wf_7steps_1.svg"
       inkscape:export-xdpi="96"
       inkscape:export-ydpi="96" />
    <path
       d="m 429.80342,528.92001 c 5.26045,0 9.52474,4.26429 9.52474,9.52474 0,5.26044 -4.26429,9.52473 -9.52474,9.52473 -5.26044,0 -9.52473,-4.26429 -9.52473,-9.52473 0.006,-5.2578 4.26693,-9.51865 9.52473,-9.52474 m 0,-0.52943 c -5.55281,0 -10.05416,4.50136 -10.05416,10.05417 0,5.55281 4.50135,10.05416 10.05416,10.05416 5.55281,0 10.05417,-4.50135 10.05417,-10.05416 0.003,-5.55017 -4.49448,-10.05153 -10.04464,-10.05417 -0.003,0 -0.006,0 -0.01,0 z"
       fill="#213c5d"
       fill-rule="evenodd"
       id="path293"
       style="fill:#213c5d;fill-opacity:1;stroke-width:0.264583" />
    <text
       fill="#213c5d"
       font-family="'Roboto Light', 'Roboto Light_MSFontService', sans-serif"
       font-weight="300"
       font-size="7.14375px"
       id="text294"
       x="368.6315"
       y="556.17181"
       style="fill:#213c5d;fill-opacity:1;stroke-width:0.264583">Import</text>
    <text
       fill="#213c5d"
       font-family="'Roboto Light', 'Roboto Light_MSFontService', sans-serif"
       font-weight="300"
       font-size="7.14375px"
       id="text295"
       x="365.63297"
       y="564.63849"
       style="fill:#213c5d;fill-opacity:1;stroke-width:0.264583">Modules</text>
    <text
       fill="#213c5d"
       font-family="'Roboto Light', 'Roboto Light_MSFontService', sans-serif"
       font-weight="300"
       font-size="7.14375px"
       id="text296"
       x="422.02731"
       y="556.70099"
       style="fill:#213c5d;fill-opacity:1;stroke-width:0.264583">Build</text>
    <text
       fill="#213c5d"
       font-family="'Roboto Light', 'Roboto Light_MSFontService', sans-serif"
       font-weight="300"
       font-size="7.14375px"
       id="text297"
       x="420.06412"
       y="565.16766"
       style="fill:#213c5d;fill-opacity:1;stroke-width:0.264583">Model</text>
    <path
       d="m 534.87874,573.47483 c 5.26044,0 9.52473,4.26429 9.52473,9.52473 0,5.26045 -4.26429,9.52474 -9.52473,9.52474 -5.26045,0 -9.52474,-4.26429 -9.52474,-9.52474 0.006,-5.2578 4.26694,-9.51865 9.52474,-9.52473 m 0,-0.52943 c -5.55282,0 -10.05417,4.50135 -10.05417,10.05416 0,5.55281 4.50135,10.05417 10.05417,10.05417 5.55281,0 10.05416,-4.50136 10.05416,-10.05417 0.003,-5.55016 -4.49448,-10.05152 -10.04464,-10.05416 -0.003,0 -0.006,0 -0.01,0 z"
       fill="#213c5d"
       fill-rule="evenodd"
       id="path297"
       style="fill:#808080;stroke-width:0.264583" />
    <path
       d="m 534.09213,587.49642 c -0.64664,0.0148 -1.28667,-0.13599 -1.85923,-0.43815 v -0.64638 c 0.5588,0.37174 1.21312,0.57415 1.88384,0.58235 0.28125,8e-4 0.56118,-0.0357 0.8329,-0.10821 0.25982,-0.0685 0.5043,-0.186 0.71993,-0.34661 0.21247,-0.16139 0.38524,-0.36909 0.50509,-0.60748 0.1323,-0.27437 0.19712,-0.57653 0.18945,-0.88106 0.0336,-0.57627 -0.22596,-1.1303 -0.68977,-1.47267 -0.44794,-0.32385 -1.11152,-0.48763 -1.97115,-0.48763 h -0.61198 v -0.50192 h 0.55668 c 0.78291,0 1.38377,-0.15848 1.78568,-0.47545 0.41777,-0.34026 0.6469,-0.86096 0.61595,-1.39965 0.0304,-0.46699 -0.13547,-0.92551 -0.45747,-1.26444 -0.3765,-0.31724 -0.86122,-0.47493 -1.35175,-0.43974 -0.5932,0.0108 -1.17026,0.19447 -1.66159,0.52811 v -0.57124 c 0.56251,-0.30241 1.19036,-0.46169 1.82827,-0.4646 0.29634,-8e-4 0.59108,0.0415 0.87524,0.12594 0.26379,0.077 0.51012,0.20505 0.72496,0.37676 0.20797,0.17013 0.37651,0.38339 0.49398,0.62521 0.12832,0.27464 0.19129,0.57494 0.18441,0.87789 0,1.14829 -0.55165,1.8624 -1.68618,2.18281 l -0.0672,0.0188 v 0.17727 l 0.082,0.01 c 0.26961,0.0299 0.53314,0.0995 0.78237,0.20664 0.2331,0.10001 0.44583,0.24235 0.6268,0.42042 0.17913,0.17912 0.32121,0.39211 0.41831,0.62653 0.10504,0.2585 0.15716,0.53578 0.15319,0.81492 0.007,0.37253 -0.0701,0.74189 -0.22542,1.08029 -0.14499,0.30665 -0.35587,0.57706 -0.61754,0.79243 -0.27384,0.22119 -0.58711,0.38788 -0.9234,0.49133 -0.36777,0.11404 -0.75115,0.17092 -1.13638,0.16801 z"
       fill="#213c5d"
       fill-rule="evenodd"
       id="path298"
       style="fill:#808080;stroke-width:0.264583" />
    <path
       d="m 479.46342,573.47483 c 5.26045,0 9.52473,4.26429 9.52473,9.52473 0,5.26045 -4.26428,9.52474 -9.52473,9.52474 -5.26045,0 -9.52474,-4.26429 -9.52474,-9.52474 0.006,-5.2578 4.26694,-9.51865 9.52474,-9.52473 m 0,-0.52943 c -5.55281,0 -10.05417,4.50135 -10.05417,10.05416 0,5.55281 4.50136,10.05417 10.05417,10.05417 5.55281,0 10.05417,-4.50136 10.05417,-10.05417 0.003,-5.55016 -4.49448,-10.05152 -10.04465,-10.05416 -0.003,0 -0.006,0 -0.01,0 z"
       fill="#213c5d"
       fill-rule="evenodd"
       id="path299"
       style="fill:#808080;stroke-width:0.264583" />
    <path
       d="m 480.1553,587.2329 v -2.21351 h -4.13146 v -0.60351 c 0.37332,-0.42439 0.76279,-0.90197 1.15173,-1.40044 0.39396,-0.50615 0.77681,-1.0287 1.13771,-1.55284 0.36089,-0.52441 0.69797,-1.04907 1.00144,-1.55972 0.272,-0.45376 0.52123,-0.92154 0.74639,-1.40123 h 0.68527 v 5.98196 h 1.36287 v 0.53578 h -1.36287 v 2.21351 z m -0.16959,-7.5954 c -0.29713,0.52467 -0.59717,1.02209 -0.89165,1.47823 -0.29422,0.45614 -0.58235,0.88186 -0.85857,1.27132 -0.27623,0.38947 -0.54346,0.74877 -0.79455,1.06892 -0.25109,0.32014 -0.48524,0.61463 -0.69585,0.87551 l -0.12197,0.15134 v 0 h 3.53218 v -5.1443 0 z"
       fill="#213c5d"
       fill-rule="evenodd"
       id="path300"
       style="fill:#808080;stroke-width:0.264583" />
    <path
       d="m 451.75336,618.08459 c 5.26045,0 9.52474,4.26429 9.52474,9.52474 0,5.26044 -4.26429,9.52473 -9.52474,9.52473 -5.26044,0 -9.52473,-4.26429 -9.52473,-9.52473 0.006,-5.2578 4.26693,-9.51865 9.52473,-9.52474 m 0,-0.52943 c -5.55281,0 -10.05416,4.50136 -10.05416,10.05417 0,5.55281 4.50135,10.05416 10.05416,10.05416 5.55281,0 10.05417,-4.50135 10.05417,-10.05416 0.003,-5.55017 -4.49448,-10.05153 -10.04464,-10.05417 h -0.01 z"
       fill="#213c5d"
       fill-rule="evenodd"
       id="path301"
       style="fill:#808080;stroke-width:0.264583"
       sodipodi:nodetypes="csscccsscscc" />
    <path
       d="m 451.24457,631.83948 c -0.55219,0.0233 -1.10226,-0.0815 -1.60787,-0.30665 v -0.64188 c 0.49847,0.2921 1.06283,0.44979 1.63882,0.45853 0.31486,0.004 0.62813,-0.0474 0.92552,-0.15188 0.26432,-0.0942 0.50667,-0.24235 0.71173,-0.43524 0.19817,-0.19076 0.35295,-0.42253 0.45402,-0.67971 0.10742,-0.27755 0.16087,-0.57335 0.15769,-0.87127 0.0352,-0.58235 -0.19235,-1.14962 -0.61912,-1.54226 -0.40614,-0.3511 -1.00754,-0.52917 -1.78806,-0.52917 -0.2876,0 -0.6985,0.0217 -1.22131,0.0651 l 0.25426,-4.09363 h 3.60389 v 0.52678 h -3.11388 l -0.19394,3.03107 0.10319,-0.008 c 0.3466,-0.0241 0.62521,-0.0362 0.82814,-0.0362 0.40323,-0.007 0.80513,0.0526 1.18957,0.17568 0.31777,0.10346 0.61066,0.27332 0.85937,0.49821 0.2331,0.21723 0.41354,0.48604 0.52705,0.78529 0.12515,0.33893 0.18653,0.6985 0.18071,1.06018 0.004,0.37677 -0.0611,0.75115 -0.19368,1.10331 -0.12223,0.32042 -0.31273,0.60987 -0.55827,0.84747 -0.26061,0.24421 -0.56912,0.43074 -0.9054,0.54742 -0.39661,0.13626 -0.8136,0.20293 -1.23243,0.19658 z"
       fill="#213c5d"
       fill-rule="evenodd"
       id="path302"
       style="fill:#808080;stroke-width:0.264583" />
    <path
       d="m 506.26044,618.08406 c 5.26071,-0.002 9.52659,4.26164 9.52817,9.52235 0.002,5.26072 -4.26164,9.52659 -9.52235,9.52818 -5.26071,0.002 -9.52632,-4.26164 -9.52818,-9.52235 0,-0.001 0,-0.002 0,-0.003 0.005,-5.25727 4.26509,-9.51812 9.52236,-9.525 m 0,-0.5289 c -5.55281,-0.002 -10.05549,4.49844 -10.05708,10.05125 -0.002,5.55282 4.49845,10.05549 10.05126,10.05708 5.55281,0.002 10.05549,-4.49844 10.05707,-10.05125 0,-0.001 0,-0.002 0,-0.003 0.003,-5.54963 -4.49368,-10.05099 -10.04331,-10.0539 -0.003,0 -0.005,0 -0.008,0 z"
       fill="#213c5d"
       fill-rule="evenodd"
       id="path303"
       style="fill:#808080;stroke-width:0.264583" />
    <path
       d="m 505.99612,631.8416 c -0.78158,0.0236 -1.51765,-0.36274 -1.9386,-1.01732 -0.24659,-0.3818 -0.42439,-0.80328 -0.52546,-1.2454 -0.12939,-0.55694 -0.1913,-1.12712 -0.18442,-1.69889 -0.007,-0.70088 0.0746,-1.39991 0.24315,-2.08068 0.13759,-0.56568 0.37227,-1.10358 0.69401,-1.58988 0.27834,-0.41566 0.65061,-0.76094 1.08717,-1.00806 0.44132,-0.23945 0.93768,-0.36116 1.44039,-0.35322 0.44106,-0.0114 0.88053,0.0579 1.29619,0.20505 v 0.57759 c -0.4056,-0.18204 -0.84561,-0.27596 -1.29063,-0.27517 -0.41514,-0.005 -0.82418,0.10081 -1.18401,0.30665 -0.36143,0.21352 -0.66755,0.50879 -0.8935,0.86122 -0.25876,0.40587 -0.44821,0.85143 -0.56065,1.31842 -0.13547,0.55192 -0.20109,1.11813 -0.19553,1.68592 v 0.0923 h 0.17542 l 0.0267,-0.0526 c 0.35322,-0.80274 1.1729,-1.30122 2.05317,-1.2483 0.33919,-0.005 0.67548,0.0619 0.98663,0.19605 0.2876,0.127 0.54451,0.31353 0.75406,0.54663 0.21511,0.24448 0.38021,0.52838 0.48578,0.83556 0.11773,0.34263 0.17621,0.70273 0.1725,1.06468 0.004,0.39582 -0.0624,0.78925 -0.19685,1.16205 -0.12118,0.33496 -0.30744,0.64347 -0.54795,0.90726 -0.23495,0.2532 -0.51964,0.45587 -0.83661,0.59557 -0.33443,0.14526 -0.69612,0.21828 -1.06098,0.21458 z m 0.0624,-5.01306 c -0.27675,-0.002 -0.55033,0.0556 -0.80221,0.16933 -0.24078,0.10822 -0.45747,0.26247 -0.63818,0.45403 -0.17833,0.1905 -0.31962,0.41222 -0.41672,0.65378 -0.0995,0.24501 -0.15055,0.50668 -0.15002,0.771 -0.002,0.31882 0.046,0.63606 0.14129,0.94059 0.0865,0.28152 0.22251,0.54557 0.40137,0.78026 0.16881,0.2204 0.38259,0.40296 0.62733,0.53578 0.25109,0.13414 0.53208,0.20294 0.81677,0.20003 0.54451,0.007 1.06336,-0.2286 1.41367,-0.64215 0.17674,-0.21034 0.31326,-0.45111 0.40296,-0.71014 0.0995,-0.2876 0.14869,-0.59002 0.14552,-0.89403 0.003,-0.31115 -0.0418,-0.62124 -0.13282,-0.91916 -0.0791,-0.26088 -0.20876,-0.50403 -0.3818,-0.71517 -0.16615,-0.19791 -0.37518,-0.35533 -0.61145,-0.46117 -0.25691,-0.11165 -0.53525,-0.16721 -0.81571,-0.16298 z"
       fill="#213c5d"
       fill-rule="evenodd"
       id="path304"
       style="fill:#808080;stroke-width:0.264583" />
    <text
       fill="#213c5d"
       font-family="'Roboto Light', 'Roboto Light_MSFontService', sans-serif"
       font-weight="300"
       font-size="7.14375px"
       id="text304"
       x="523.7337"
       y="600.99121"
       style="fill:#808080;stroke-width:0.264583">Specify</text>
    <text
       fill="#213c5d"
       font-family="'Roboto Light', 'Roboto Light_MSFontService', sans-serif"
       font-weight="300"
       font-size="7.14375px"
       id="text305"
       x="525.45349"
       y="609.45789"
       style="fill:#808080;stroke-width:0.264583">Model</text>
    <text
       fill="#213c5d"
       font-family="'Roboto Light', 'Roboto Light_MSFontService', sans-serif"
       font-weight="300"
       font-size="7.14375px"
       id="text306"
       x="471.13062"
       y="600.99121"
       style="fill:#808080;stroke-width:0.264583">Scale</text>
    <text
       fill="#213c5d"
       font-family="'Roboto Light', 'Roboto Light_MSFontService', sans-serif"
       font-weight="300"
       font-size="7.14375px"
       id="text307"
       x="469.94"
       y="609.45789"
       style="fill:#808080;stroke-width:0.264583">Model</text>
    <text
       fill="#213c5d"
       font-family="'Roboto Light', 'Roboto Light_MSFontService', sans-serif"
       font-weight="300"
       font-size="7.14375px"
       id="text308"
       x="439.21396"
       y="645.33643"
       style="fill:#808080;stroke-width:0.264583">Initialize</text>
    <text
       fill="#213c5d"
       font-family="'Roboto Light', 'Roboto Light_MSFontService', sans-serif"
       font-weight="300"
       font-size="7.14375px"
       id="text309"
       x="442.23364"
       y="653.8031"
       style="fill:#808080;stroke-width:0.264583">Model</text>
    <text
       fill="#213c5d"
       font-family="'Roboto Light', 'Roboto Light_MSFontService', sans-serif"
       font-weight="300"
       font-size="7.14375px"
       id="text310"
       x="497.63977"
       y="645.33643"
       style="fill:#808080;stroke-width:0.264583">Solve</text>
    <text
       fill="#213c5d"
       font-family="'Roboto Light', 'Roboto Light_MSFontService', sans-serif"
       font-weight="300"
       font-size="7.14375px"
       id="text311"
       x="496.42615"
       y="653.8031"
       style="fill:#808080;stroke-width:0.264583">Model</text>
    <text
       fill="#213c5d"
       font-family="'Roboto Light', 'Roboto Light_MSFontService', sans-serif"
       font-weight="300"
       font-size="5.55625px"
       id="text312"
       x="466.10928"
       y="547.96973"
       style="fill:#808080;stroke-width:0.264583">Create</text>
    <text
       fill="#213c5d"
       font-family="'Roboto Light', 'Roboto Light_MSFontService', sans-serif"
       font-weight="300"
       font-size="5.55625px"
       id="text313"
       x="457.9072"
       y="554.84888"
       style="fill:#808080;stroke-width:0.264583">Model Object</text>
    <text
       fill="#213c5d"
       font-family="'Roboto Light', 'Roboto Light_MSFontService', sans-serif"
       font-weight="300"
       font-size="5.55625px"
       id="text314"
       x="490.76291"
       y="525.48016"
       style="fill:#808080;stroke-width:0.264583">Add Flowsheet</text>
    <text
       fill="#213c5d"
       font-family="'Roboto Light', 'Roboto Light_MSFontService', sans-serif"
       font-weight="300"
       font-size="5.55625px"
       id="text315"
       x="498.21542"
       y="532.35931"
       style="fill:#808080;stroke-width:0.264583">to Model</text>
    <text
       fill="#213c5d"
       font-family="'Roboto Light', 'Roboto Light_MSFontService', sans-serif"
       font-weight="300"
       font-size="5.55625px"
       id="text316"
       x="515.9483"
       y="547.96973"
       style="fill:#808080;stroke-width:0.264583">Add Property Packages</text>
    <text
       fill="#213c5d"
       font-family="'Roboto Light', 'Roboto Light_MSFontService', sans-serif"
       font-weight="300"
       font-size="5.55625px"
       id="text317"
       x="528.86871"
       y="554.84888"
       style="fill:#808080;stroke-width:0.264583">to Flowsheet</text>
    <path
       d="m 389.05759,538.48337 30.6832,-0.0385"
       stroke="#213c5d"
       stroke-width="0.529167"
       stroke-miterlimit="8"
       fill="none"
       fill-rule="evenodd"
       id="path317"
       style="fill:#213c5d;fill-opacity:1;stroke:#213c5d;stroke-opacity:1" />
    <path
       d="m 471.60759,538.31245 c 0,-1.38826 1.12527,-2.51354 2.51354,-2.51354 1.38827,0 2.51354,1.12528 2.51354,2.51354 0,1.38827 -1.12527,2.51355 -2.51354,2.51355 -1.38827,0 -2.51354,-1.12528 -2.51354,-2.51355 z"
       stroke="#213c5d"
       stroke-width="0.529167"
       stroke-miterlimit="8"
       fill="#ffffff"
       fill-rule="evenodd"
       id="path318"
       style="fill:none;stroke:#808080" />
    <path
       d="m 506.53259,538.31245 c 0,-1.38826 1.12527,-2.51354 2.51354,-2.51354 1.38827,0 2.51354,1.12528 2.51354,2.51354 0,1.38827 -1.12527,2.51355 -2.51354,2.51355 -1.38827,0 -2.51354,-1.12528 -2.51354,-2.51355 z"
       stroke="#213c5d"
       stroke-width="0.529167"
       stroke-miterlimit="8"
       fill="#ffffff"
       fill-rule="evenodd"
       id="path319"
       style="fill:none;stroke:#808080" />
    <path
       d="m 541.45759,538.31245 c 0,-1.38826 1.12527,-2.51354 2.51354,-2.51354 1.38827,0 2.51354,1.12528 2.51354,2.51354 0,1.38827 -1.12527,2.51355 -2.51354,2.51355 -1.38827,0 -2.51354,-1.12528 -2.51354,-2.51355 z"
       stroke="#213c5d"
       stroke-width="0.529167"
       stroke-miterlimit="8"
       fill="#ffffff"
       fill-rule="evenodd"
       id="path320"
       style="fill:none;stroke:#808080" />
    <path
       d="m 576.38259,538.31245 c 0,-1.38826 1.18454,-2.51354 2.64583,-2.51354 1.46129,0 2.64583,1.12528 2.64583,2.51354 0,1.38827 -1.18454,2.51355 -2.64583,2.51355 -1.46129,0 -2.64583,-1.12528 -2.64583,-2.51355 z"
       stroke="#213c5d"
       stroke-width="0.529167"
       stroke-miterlimit="8"
       fill="#ffffff"
       fill-rule="evenodd"
       id="path321"
       style="fill:none;stroke:#808080" />
    <text
       fill="#213c5d"
       font-family="'Roboto Light', 'Roboto Light_MSFontService', sans-serif"
       font-weight="300"
       font-size="5.55625px"
       id="text321"
       x="558.69043"
       y="526.00934"
       style="fill:#808080;stroke-width:0.264583">Add Unit Models</text>
    <text
       fill="#213c5d"
       font-family="'Roboto Light', 'Roboto Light_MSFontService', sans-serif"
       font-weight="300"
       font-size="5.55625px"
       id="text322"
       x="563.10022"
       y="532.88849"
       style="fill:#808080;stroke-width:0.264583">to Flowsheet</text>
    <path
       d="m 469.40916,582.99726 -35.3068,-0.0114 c -12.41949,-0.17476 -22.63028,9.66886 -22.8065,21.98637 -0.17171,12.01002 9.27629,21.99818 21.37215,22.59395 l 9.03063,0.0114"
       stroke="#213c5d"
       stroke-width="0.529167"
       stroke-miterlimit="8"
       fill="none"
       fill-rule="evenodd"
       id="path322"
       style="stroke:#808080"
       sodipodi:nodetypes="ccccc" />
    <path
       d="m 461.27836,627.60933 35.3068,0.0114"
       stroke="#213c5d"
       stroke-width="0.529167"
       stroke-miterlimit="8"
       fill="none"
       fill-rule="evenodd"
       id="path323"
       style="stroke:#808080" />
    <path
       d="m 439.85759,538.50057 31.83308,-0.0558"
       stroke="#213c5d"
       stroke-width="0.529167"
       stroke-miterlimit="8"
       fill="none"
       fill-rule="evenodd"
       id="path324"
       style="stroke:#808080" />
    <path
       d="m 476.63467,538.51645 29.81801,-0.0717"
       stroke="#213c5d"
       stroke-width="0.529167"
       stroke-miterlimit="8"
       fill="none"
       fill-rule="evenodd"
       id="path325"
       style="stroke:#808080" />
    <path
       d="m 511.55967,538.44475 h 29.85849"
       stroke="#213c5d"
       stroke-width="0.529167"
       stroke-miterlimit="8"
       fill="none"
       fill-rule="evenodd"
       id="path326"
       style="fill:#808080;stroke:#808080" />
    <path
       d="m 546.48467,538.44475 h 29.92834"
       stroke="#213c5d"
       stroke-width="0.529167"
       stroke-miterlimit="8"
       fill="none"
       fill-rule="evenodd"
       id="path327"
       style="fill:#808080;stroke:#808080" />
    <path
       d="m 561.67566,618.08406 c 5.26071,-0.002 9.52659,4.26165 9.52817,9.52236 0.002,5.26071 -4.26164,9.52658 -9.52235,9.52817 -5.26071,0.002 -9.52632,-4.26164 -9.52818,-9.52235 0,-0.001 0,-0.002 0,-0.003 0.005,-5.25727 4.26509,-9.51812 9.52236,-9.525 m 0,-0.5289 c -5.55281,-0.002 -10.05549,4.49845 -10.05708,10.05126 -0.002,5.55281 4.49845,10.05549 10.05126,10.05707 5.55281,0.002 10.05549,-4.49844 10.05707,-10.05125 0,-0.001 0,-0.002 0,-0.003 0.003,-5.54963 -4.49368,-10.05099 -10.04331,-10.0539 -0.003,0 -0.005,0 -0.008,0 z"
       fill="#213c5d"
       fill-rule="evenodd"
       id="path328"
       style="fill:#808080;stroke-width:0.264583" />
    <path
       d="m 560.69564,632.10724 c 0.10822,-0.63209 0.25823,-1.25677 0.44926,-1.87034 0.2085,-0.67415 0.46064,-1.36392 0.7493,-2.04946 0.28866,-0.68553 0.61754,-1.38509 0.97764,-2.07671 0.3601,-0.69162 0.74083,-1.38166 1.1393,-2.06031 l 0.0823,-0.13865 h -4.80192 v -0.53578 h 5.55625 v 0.22596 c -0.32623,0.56277 -0.63103,1.1086 -0.90541,1.60893 -0.27993,0.51276 -0.54028,1.01415 -0.77364,1.4896 -0.2331,0.47546 -0.44847,0.94695 -0.63579,1.39171 -0.18733,0.4445 -0.35878,0.89906 -0.50694,1.34356 -0.14817,0.44423 -0.2794,0.90196 -0.38815,1.35043 -0.10345,0.42704 -0.19367,0.87127 -0.26828,1.32106 z"
       fill="#213c5d"
       fill-rule="evenodd"
       id="path329"
       style="fill:#808080;stroke-width:0.264583" />
    <g
       id="g330"
       transform="translate(223.79763,156.41747)">
      <text
         fill="#213c5d"
         font-family="'Roboto Light', 'Roboto Light_MSFontService', sans-serif"
         font-weight="300"
         font-size="7.14375px"
         id="text329"
         x="310.8573"
         y="489.02359"
         style="fill:#808080;stroke-width:0.264583">Analyze/Visualize</text>
      <text
         fill="#213c5d"
         font-family="'Roboto Light', 'Roboto Light_MSFontService', sans-serif"
         font-weight="300"
         font-size="7.14375px"
         id="text330"
         x="326.5553"
         y="497.49026"
         style="fill:#808080;stroke-width:0.264583">Results</text>
    </g>
    <path
       d="m 516.31169,627.60915 35.3068,0.0114"
       stroke="#213c5d"
       stroke-width="0.529167"
       stroke-miterlimit="8"
       fill="none"
       fill-rule="evenodd"
       id="path330"
       style="fill:#808080;stroke:#808080" />
    <path
       d="m 544.93299,582.98586 35.3068,0.0114 c 12.41949,0.17517 22.63028,-9.69152 22.8065,-22.0379 0.17171,-12.03817 -9.27629,-22.04974 -21.37204,-22.64691"
       stroke="#213c5d"
       stroke-width="0.529167"
       stroke-miterlimit="8"
       fill="none"
       fill-rule="evenodd"
       id="path331"
       style="stroke:#808080"
       sodipodi:nodetypes="cccc" />
    <path
       d="m 489.51768,582.98586 35.3068,0.0114"
       stroke="#213c5d"
       stroke-width="0.529167"
       stroke-miterlimit="8"
       fill="none"
       fill-rule="evenodd"
       id="path332"
       style="stroke:#808080" />
    <path
       id="ellipse375"
       style="fill:#213c5d;fill-opacity:1;stroke:none;stroke-width:0.529166;stroke-linecap:round;stroke-linejoin:round;stroke-dasharray:none;stroke-opacity:1"
       d="m 429.80317,528.45363 a 9.7894163,9.9912748 0 0 0 -9.78907,9.99111 9.7894163,9.9912748 0 0 0 9.78907,9.99113 9.7894163,9.9912748 0 0 0 9.78958,-9.99113 9.7894163,9.9912748 0 0 0 -9.78958,-9.99111 z m -0.12868,5.22913 c 0.0672,0 0.13435,0.004 0.20103,0.0119 0.0664,0.008 0.13206,0.0211 0.19688,0.0372 0.27702,0.0283 0.54731,0.10539 0.7984,0.2279 0.22913,0.11297 0.43521,0.26939 0.60772,0.46095 0.17171,0.19553 0.30418,0.42388 0.38964,0.6718 0.0952,0.27993 0.1422,0.57466 0.13849,0.87126 0.005,0.3421 -0.0434,0.683 -0.14263,1.00976 -0.0937,0.29369 -0.23124,0.5711 -0.40772,0.82166 -0.18706,0.26246 -0.40263,0.50196 -0.64234,0.71468 -0.25215,0.22569 -0.53788,0.45666 -0.84956,0.6842 -0.35083,0.2593 -0.65557,0.4922 -0.90692,0.69143 -0.22649,0.17595 -0.4398,0.37 -0.63717,0.57981 -0.1577,0.16695 -0.29008,0.35713 -0.39274,0.5643 -0.0929,0.19605 -0.15706,0.40476 -0.19172,0.6196 -0.01,0.0672 -0.0155,0.12663 -0.0227,0.19224 -0.007,0.0683 -0.01,0.13714 -0.01,0.20567 v 0.0935 h 4.38061 v 0.53743 l -5.02605,-0.002 v -0.34055 c -0.006,-0.34528 0.0391,-0.68986 0.13436,-1.02112 0.0915,-0.29051 0.23262,-0.56178 0.41703,-0.8015 0.21855,-0.27966 0.46721,-0.53376 0.74052,-0.75706 0.30269,-0.25242 0.67287,-0.54161 1.10071,-0.8599 0.29051,-0.21855 0.55305,-0.43315 0.7798,-0.6382 0.21564,-0.19209 0.40997,-0.40866 0.57877,-0.64493 0.15372,-0.21828 0.2735,-0.45935 0.35605,-0.7152 0.0833,-0.27226 0.12462,-0.55633 0.12144,-0.84181 0.004,-0.27041 -0.0405,-0.5395 -0.13229,-0.79323 -0.16086,-0.44821 -0.51234,-0.79671 -0.95446,-0.9462 -0.23707,-0.081 -0.48583,-0.12046 -0.73587,-0.11782 -0.40878,5.3e-4 -0.81135,0.10165 -1.17409,0.29559 -0.32094,0.17118 -0.61925,0.38408 -0.8878,0.63252 v -0.64544 c 0.29104,-0.23998 0.61458,-0.43457 0.96066,-0.57877 0.38682,-0.1516 0.798,-0.22624 1.21181,-0.22015 z" />
    <path
       d="m 379.14974,542.67808 v -8.12879 c 0,-0.003 -0.002,-0.004 -0.005,-0.002 l -0.15796,0.12964 c -0.16033,0.12885 -0.32993,0.24739 -0.5072,0.35454 -0.18944,0.11563 -0.38471,0.2249 -0.58076,0.32518 -0.19712,0.10054 -0.39661,0.19182 -0.59241,0.27172 -0.14737,0.0595 -0.28813,0.11272 -0.42015,0.15769 v -0.508 c 0.50482,-0.1606 0.98848,-0.37623 1.44118,-0.6424 0.48101,-0.28417 0.93848,-0.60272 1.36816,-0.9533 l 0.10107,0.005 v 8.99081 z"
       fill="#213c5d"
       fill-rule="evenodd"
       id="path292"
       style="fill:#213c5d;fill-opacity:1;stroke-width:0.264583" />
  </g>
</svg>
