<?xml version="1.0" encoding="UTF-8" standalone="no"?>
<!-- Created with Inkscape (http://www.inkscape.org/) -->

<svg
   width="277.62949mm"
   height="132.55988mm"
   viewBox="0 0 277.62949 132.55988"
   version="1.1"
   id="svg1"
   inkscape:version="1.4.2 (f4327f4, 2025-05-13)"
   sodipodi:docname="wf_8steps_7.svg"
   xmlns:inkscape="http://www.inkscape.org/namespaces/inkscape"
   xmlns:sodipodi="http://sodipodi.sourceforge.net/DTD/sodipodi-0.dtd"
   xmlns="http://www.w3.org/2000/svg"
   xmlns:svg="http://www.w3.org/2000/svg">
  <sodipodi:namedview
     id="namedview1"
     pagecolor="#505050"
     bordercolor="#eeeeee"
     borderopacity="1"
     inkscape:showpageshadow="0"
     inkscape:pageopacity="0"
     inkscape:pagecheckerboard="0"
     inkscape:deskcolor="#505050"
     inkscape:document-units="mm"
     inkscape:zoom="1.0721378"
     inkscape:cx="513.92647"
     inkscape:cy="489.2095"
     inkscape:window-width="1920"
     inkscape:window-height="1111"
     inkscape:window-x="-9"
     inkscape:window-y="-9"
     inkscape:window-maximized="1"
     inkscape:current-layer="layer1">
    <inkscape:page
       x="0"
       y="4.4080188e-29"
       width="277.62949"
       height="132.55988"
       id="page2"
       margin="0"
       bleed="0" />
  </sodipodi:namedview>
  <defs
     id="defs1" />
  <g
     inkscape:label="Layer 1"
     inkscape:groupmode="layer"
     id="layer1"
     transform="translate(-382.91376,-856.22024)">
    <path
       id="path634"
       style="fill:#213c5d;fill-opacity:1;stroke:none;stroke-width:0.529167;stroke-linecap:round;stroke-linejoin:round;stroke-dasharray:none;stroke-opacity:1"
       d="m 477.4266,952.4737 a 10.054,10.043186 0 0 0 -10.05417,10.04332 10.054,10.043186 0 0 0 10.05417,10.0428 10.054,10.043186 0 0 0 10.05417,-10.0428 10.054,10.043186 0 0 0 -10.05417,-10.04332 z m -2.38125,5.80947 h 5.55625 v 0.22582 c -0.32623,0.56277 -0.63099,1.10888 -0.90537,1.60921 -0.27993,0.51276 -0.54024,1.01386 -0.7736,1.48931 -0.2331,0.47546 -0.4483,0.94741 -0.63562,1.39217 -0.18733,0.4445 -0.35878,0.89908 -0.50694,1.34358 -0.14817,0.44423 -0.27934,0.90184 -0.38809,1.35031 -0.10345,0.42704 -0.19411,0.87106 -0.26872,1.32085 h -0.67386 c 0.10822,-0.63209 0.25855,-1.2566 0.44958,-1.87017 0.2085,-0.67415 0.46065,-1.36395 0.74931,-2.04949 0.28866,-0.68553 0.61762,-1.38525 0.97772,-2.07687 0.3601,-0.69162 0.74048,-1.38169 1.13895,-2.06034 l 0.0822,-0.1385 h -4.80177 z" />
    <path
       d="m 405.69657,873.39062 30.6832,-0.0385"
       stroke="#213c5d"
       stroke-width="0.529167"
       stroke-miterlimit="8"
       fill="none"
       fill-rule="evenodd"
       id="path455"
       style="fill:#213c5d;fill-opacity:1;stroke:#213c5d;stroke-opacity:1"
       inkscape:export-filename="wf_8steps_6.svg"
       inkscape:export-xdpi="96"
       inkscape:export-ydpi="96" />
    <path
       d="m 413.42394,917.6722 c -12.41949,-0.17569 -22.63029,9.72011 -22.8065,22.10292 -0.17172,12.07368 9.27629,22.11479 21.37204,22.71372"
       stroke="#213c5d"
       stroke-width="0.529167"
       stroke-miterlimit="8"
       fill="none"
       fill-rule="evenodd"
       id="path462"
       style="stroke:#213c5d;stroke-opacity:1" />
    <path
       d="m 633.07598,952.99131 c 5.25992,-0.002 9.52765,4.26165 9.52765,9.52236 0.003,5.26071 -4.2598,9.52658 -9.52236,9.52817 -5.25992,0.002 -9.525,-4.26164 -9.52764,-9.52235 0,-10e-4 0,-0.002 0,-0.003 0.005,-5.25727 4.26508,-9.51812 9.52235,-9.525 m 0,-0.5289 c -5.5536,-0.002 -10.05417,4.49845 -10.05681,10.05126 -0.003,5.55281 4.49791,10.05549 10.05152,10.05707 5.5536,0.002 10.05416,-4.49844 10.05681,-10.05125 0,-10e-4 0,-0.002 0,-0.003 0.003,-5.54963 -4.49262,-10.05099 -10.04358,-10.0539 -0.003,0 -0.005,0 -0.008,0 z"
       fill="#213c5d"
       fill-rule="evenodd"
       id="path469"
       style="fill:#808080;stroke-width:0.264583" />
    <path
       d="m 633.20298,966.74965 c -0.381,0.004 -0.762,-0.0558 -1.12183,-0.17728 -0.3228,-0.11006 -0.62177,-0.28151 -0.87313,-0.50456 -0.24871,-0.22251 -0.4445,-0.49291 -0.57414,-0.79348 -0.14288,-0.3347 -0.21167,-0.69321 -0.20638,-1.0541 0,-0.22966 0.037,-0.45773 0.10583,-0.67733 0.0714,-0.22464 0.17992,-0.43763 0.3175,-0.63104 0.14817,-0.20187 0.32544,-0.38232 0.52652,-0.53498 0.21696,-0.16352 0.45773,-0.29263 0.71967,-0.38233 l 0.20373,-0.0722 -0.19315,-0.0968 c -0.38629,-0.18494 -0.71966,-0.45905 -0.96572,-0.79745 -0.23548,-0.322 -0.35984,-0.70538 -0.35719,-1.09776 -0.003,-0.29818 0.0609,-0.59399 0.18256,-0.86783 0.11906,-0.25929 0.29104,-0.49318 0.508,-0.68765 0.22225,-0.1987 0.48154,-0.35348 0.76729,-0.45614 0.62706,-0.2204 1.31498,-0.21934 1.9394,0.003 0.2831,0.10425 0.54504,0.26009 0.76994,0.45853 0.21431,0.19394 0.38364,0.42809 0.5027,0.68765 0.11907,0.27252 0.17992,0.56594 0.17992,0.86201 0,0.19659 -0.0317,0.39211 -0.0952,0.57944 -0.0609,0.18521 -0.14817,0.36089 -0.26194,0.52202 -0.11641,0.16457 -0.254,0.3138 -0.4101,0.44371 -0.16404,0.13573 -0.34396,0.25347 -0.53711,0.35083 l -0.18785,0.0963 0.19844,0.072 c 0.25664,0.0897 0.49477,0.21855 0.70644,0.38153 0.19843,0.15346 0.37041,0.33364 0.51593,0.53499 0.13759,0.1942 0.24342,0.40719 0.31486,0.63182 0.0688,0.21961 0.10583,0.44768 0.10583,0.67733 0.005,0.3601 -0.0635,0.71782 -0.20373,1.05225 -0.127,0.30083 -0.32014,0.57203 -0.56621,0.79534 -0.25135,0.22357 -0.55033,0.39529 -0.87312,0.50483 -0.36777,0.1217 -0.75142,0.18203 -1.13771,0.1778 z m 0,-4.55613 c -0.2831,-0.002 -0.56621,0.0481 -0.82815,0.14923 -0.24606,0.0953 -0.47095,0.2368 -0.66145,0.41592 -0.18786,0.18256 -0.33603,0.39979 -0.43392,0.6387 -0.10583,0.25771 -0.15875,0.53235 -0.15611,0.80936 -0.005,0.28284 0.045,0.5641 0.14817,0.82947 0.0926,0.24051 0.23813,0.45932 0.42598,0.64294 0.18785,0.18018 0.41275,0.32068 0.65881,0.41222 0.26988,0.0979 0.55827,0.14632 0.84667,0.14288 0.28575,0.003 0.56885,-0.0468 0.83608,-0.14605 0.24607,-0.0923 0.47096,-0.23231 0.66146,-0.4109 0.18786,-0.18256 0.33602,-0.39979 0.43392,-0.63844 0.10583,-0.26511 0.15875,-0.54716 0.15346,-0.83106 0.003,-0.26484 -0.0476,-0.52758 -0.14817,-0.77443 -0.0952,-0.23839 -0.23813,-0.45694 -0.42069,-0.64347 -0.18521,-0.18706 -0.4101,-0.33576 -0.65881,-0.43709 -0.26988,-0.10874 -0.56356,-0.16298 -0.85725,-0.15928 z m 0,-3.93594 c -0.24342,-10e-4 -0.48683,0.0442 -0.70908,0.13414 -0.21167,0.0857 -0.40217,0.21246 -0.56092,0.37174 -0.1561,0.15928 -0.28046,0.34634 -0.35983,0.55086 -0.0847,0.21246 -0.127,0.43815 -0.127,0.6657 0,0.23124 0.045,0.46037 0.13758,0.67389 0.0873,0.20346 0.21431,0.38841 0.37835,0.54451 0.1614,0.15373 0.3519,0.27702 0.56092,0.36354 0.43656,0.17939 0.93398,0.17939 1.37319,0 0.20902,-0.0868 0.39952,-0.2114 0.56091,-0.36698 0.1614,-0.15742 0.29105,-0.3429 0.381,-0.54636 0.0926,-0.2114 0.14023,-0.43895 0.14023,-0.6686 0,-0.23337 -0.045,-0.46461 -0.13758,-0.68025 -0.0873,-0.2032 -0.21431,-0.38867 -0.37306,-0.54636 -0.1614,-0.15716 -0.3519,-0.28125 -0.56356,-0.36513 -0.22225,-0.0873 -0.46038,-0.13176 -0.70115,-0.1307 z"
       fill="#213c5d"
       fill-rule="evenodd"
       id="path470"
       style="fill:#808080;stroke-width:0.264583" />
    <text
       fill="#213c5d"
       font-family="'Roboto Light', 'Roboto Light_MSFontService', sans-serif"
       font-weight="300"
       font-size="7.14375px"
       id="text472"
       x="463.79633"
       y="980.24365"
       style="fill:#213c5d;fill-opacity:1;stroke-width:0.264583">Optimize</text>
    <text
       fill="#213c5d"
       font-family="'Roboto Light', 'Roboto Light_MSFontService', sans-serif"
       font-weight="300"
       font-size="7.14375px"
       id="text473"
       x="467.92038"
       y="988.71033"
       style="fill:#213c5d;fill-opacity:1;stroke-width:0.264583">Model</text>
    <text
       fill="#213c5d"
       font-family="'Roboto Light', 'Roboto Light_MSFontService', sans-serif"
       font-weight="300"
       font-size="7.14375px"
       id="text474"
       x="605.97449"
       y="980.24365"
       style="fill:#808080;stroke-width:0.264583">Analyze/Visualize</text>
    <text
       fill="#213c5d"
       font-family="'Roboto Light', 'Roboto Light_MSFontService', sans-serif"
       font-weight="300"
       font-size="7.14375px"
       id="text475"
       x="621.67249"
       y="988.71033"
       style="fill:#808080;stroke-width:0.264583">Results</text>
    <path
       d="m 432.06554,962.5164 35.3068,0.0114"
       stroke="#213c5d"
       stroke-width="0.529167"
       stroke-miterlimit="8"
       fill="none"
       fill-rule="evenodd"
       id="path475"
       style="fill:#808080;stroke:#213c5d;stroke-opacity:1" />
    <text
       fill="#213c5d"
       font-family="'Roboto Light', 'Roboto Light_MSFontService', sans-serif"
       font-weight="300"
       font-size="5.55625px"
       id="text476"
       x="217.7274"
       y="821.47284"
       style="font-style:normal;font-variant:normal;font-weight:300;font-stretch:normal;font-family:Roboto;-inkscape-font-specification:'Roboto Light';text-align:center;text-anchor:middle;white-space:pre;inline-size:38.5909;display:inline;fill:#808080;stroke-width:0.264583"
       transform="translate(302.42651,135.02432)"
       xml:space="preserve"><tspan
         x="217.7274"
         y="821.47284"
         id="tspan2">Unfix Variables</tspan></text>
    <g
       id="text477"
       style="font-weight:300;font-size:5.55625px;font-family:'Roboto Light', 'Roboto Light_MSFontService', sans-serif;white-space:pre;inline-size:39.2895;fill:#808080;stroke-width:0.264583"
       transform="translate(287.6449,128.07898)"
       aria-label="Add Constraints and Objective">
      <path
         style="text-align:center;text-anchor:middle"
         d="m 250.41407,842.85549 h -1.7933 l -0.40695,1.10691 h -0.34998 l 1.49487,-3.95014 h 0.31742 l 1.49487,3.95014 h -0.34727 z m -1.69021,-0.28486 h 1.5844 l -0.7922,-2.15142 z m 2.82154,-0.1031 q 0,-0.68368 0.30385,-1.08792 0.30657,-0.40695 0.83019,-0.40695 0.59415,0 0.90614,0.46935 v -1.6468 h 0.32285 v 4.16719 h -0.30386 l -0.0136,-0.39067 q -0.312,0.44493 -0.917,0.44493 -0.50733,0 -0.81933,-0.40695 -0.30928,-0.40966 -0.30928,-1.1042 z m 0.32827,0.057 q 0,0.56159 0.22518,0.88715 0.22518,0.32285 0.63485,0.32285 0.59957,0 0.85188,-0.52904 v -1.37821 q -0.25231,-0.57244 -0.84646,-0.57244 -0.40966,0 -0.63756,0.32284 -0.22789,0.32014 -0.22789,0.94685 z m 2.75913,-0.057 q 0,-0.68368 0.30386,-1.08792 0.30657,-0.40695 0.83018,-0.40695 0.59415,0 0.90615,0.46935 v -1.6468 h 0.32285 v 4.16719 h -0.30386 l -0.0136,-0.39067 q -0.312,0.44493 -0.917,0.44493 -0.50734,0 -0.81933,-0.40695 -0.30929,-0.40966 -0.30929,-1.1042 z m 0.32828,0.057 q 0,0.56159 0.22518,0.88715 0.22518,0.32285 0.63484,0.32285 0.59958,0 0.85189,-0.52904 v -1.37821 q -0.25231,-0.57244 -0.84646,-0.57244 -0.40966,0 -0.63756,0.32284 -0.22789,0.32014 -0.22789,0.94685 z m 7.11352,0.20618 q -0.0678,0.624 -0.44765,0.95499 -0.37711,0.33098 -1.00653,0.33098 -0.4395,0 -0.77863,-0.21975 -0.33641,-0.21976 -0.5209,-0.62128 -0.18448,-0.40424 -0.1872,-0.92243 v -0.51276 q 0,-0.52632 0.18449,-0.93327 0.18448,-0.40695 0.52904,-0.62671 0.34726,-0.22246 0.79762,-0.22246 0.63485,0 1.0011,0.34455 0.36897,0.34184 0.42866,0.94684 h -0.33641 q -0.1248,-1.00653 -1.09335,-1.00653 -0.53718,0 -0.85731,0.40153 -0.31742,0.40152 -0.31742,1.10962 v 0.48292 q 0,0.68368 0.30928,1.09063 0.312,0.40695 0.84103,0.40695 0.52362,0 0.78949,-0.2496 0.26588,-0.25231 0.32828,-0.75422 z m 0.55617,-0.27944 q 0,-0.42323 0.16278,-0.76235 0.16549,-0.33913 0.46392,-0.52633 0.30115,-0.18991 0.68097,-0.18991 0.58601,0 0.94955,0.41238 0.36355,0.40967 0.36355,1.08792 v 0.0678 q 0,0.42595 -0.1655,0.76779 -0.16278,0.33912 -0.46121,0.52361 -0.29843,0.18448 -0.68097,0.18448 -0.58329,0 -0.94955,-0.40966 -0.36354,-0.41238 -0.36354,-1.09063 z m 0.32556,0.0895 q 0,0.52633 0.2713,0.86545 0.27401,0.33642 0.71623,0.33642 0.43951,0 0.71081,-0.33642 0.27402,-0.33912 0.27402,-0.89258 v -0.0624 q 0,-0.33641 -0.1248,-0.61585 -0.1248,-0.27944 -0.34998,-0.43137 -0.22518,-0.15464 -0.51547,-0.15464 -0.43408,0 -0.7081,0.34184 -0.27401,0.33913 -0.27401,0.88987 z m 3.2746,-1.51386 0.0109,0.50191 q 0.16549,-0.2713 0.41237,-0.41238 0.24689,-0.14379 0.54532,-0.14379 0.47206,0 0.70267,0.26588 0.23061,0.26587 0.23332,0.79762 v 1.92624 h -0.32285 v -1.92895 q -0.003,-0.39339 -0.16821,-0.58601 -0.16278,-0.19262 -0.52361,-0.19262 -0.30114,0 -0.53446,0.18991 -0.23061,0.18719 -0.34184,0.50733 v 2.01034 h -0.32285 v -2.93548 z m 4.50089,2.1894 q 0,-0.24145 -0.19534,-0.38796 -0.19262,-0.1465 -0.58329,-0.22789 -0.39068,-0.0841 -0.60772,-0.18991 -0.21433,-0.10852 -0.32013,-0.26316 -0.1031,-0.15464 -0.1031,-0.3744 0,-0.34726 0.29029,-0.57244 0.2903,-0.2279 0.74337,-0.2279 0.49106,0 0.78677,0.24417 0.29844,0.24146 0.29844,0.63214 h -0.32557 q 0,-0.25774 -0.21704,-0.42866 -0.21433,-0.17092 -0.5426,-0.17092 -0.32014,0 -0.51547,0.14379 -0.19263,0.14108 -0.19263,0.36897 0,0.21975 0.16007,0.34184 0.16278,0.11937 0.58873,0.21975 0.42865,0.10038 0.64027,0.21433 0.21432,0.11395 0.31742,0.27401 0.10309,0.16007 0.10309,0.38797 0,0.37168 -0.30114,0.59415 -0.29843,0.22246 -0.78135,0.22246 -0.51276,0 -0.83289,-0.24688 -0.31743,-0.2496 -0.31743,-0.62942 h 0.32557 q 0.019,0.28487 0.23874,0.44493 0.22247,0.15736 0.58601,0.15736 0.33913,0 0.54803,-0.14922 0.2089,-0.14921 0.2089,-0.37711 z m 1.55998,-2.9409 v 0.7515 h 0.60772 v 0.26588 h -0.60772 v 1.95608 q 0,0.24417 0.0868,0.36354 0.0895,0.11938 0.29572,0.11938 0.0814,0 0.26316,-0.0271 l 0.0136,0.26587 q -0.12751,0.0461 -0.34727,0.0461 -0.3337,0 -0.48563,-0.19262 -0.15193,-0.19534 -0.15193,-0.57245 v -1.95879 h -0.53989 v -0.26588 h 0.53989 v -0.7515 z m 2.63705,1.02823 q -0.10309,-0.019 -0.21975,-0.019 -0.30386,0 -0.51547,0.17092 -0.20891,0.16821 -0.29844,0.49105 v 2.01577 h -0.32284 v -2.93548 h 0.31742 l 0.005,0.46664 q 0.25774,-0.5209 0.82747,-0.5209 0.13565,0 0.21433,0.0353 z m 2.25723,2.65875 q -0.0488,-0.13836 -0.0624,-0.40966 -0.17092,0.22246 -0.43679,0.34455 -0.26317,0.11937 -0.55889,0.11937 -0.42323,0 -0.68639,-0.23603 -0.26045,-0.23603 -0.26045,-0.59686 0,-0.42866 0.35541,-0.67826 0.35812,-0.24959 0.99567,-0.24959 h 0.58873 v -0.3337 q 0,-0.31471 -0.19534,-0.49377 -0.19262,-0.18177 -0.56431,-0.18177 -0.33912,0 -0.56159,0.17363 -0.22247,0.17363 -0.22247,0.4178 l -0.32556,-0.003 q 0,-0.34998 0.32556,-0.605 0.32556,-0.25774 0.80034,-0.25774 0.49106,0 0.77321,0.24689 0.28487,0.24417 0.29301,0.68368 v 1.38906 q 0,0.42594 0.0895,0.63756 v 0.0326 z m -1.02009,-0.23332 q 0.32556,0 0.58058,-0.15735 0.25774,-0.15736 0.3744,-0.42052 v -0.6457 h -0.58059 q -0.48563,0.005 -0.75964,0.17906 -0.27402,0.17092 -0.27402,0.47207 0,0.24688 0.18178,0.40966 0.18448,0.16278 0.47749,0.16278 z m 2.50682,0.23332 h -0.32556 v -2.93548 h 0.32556 z m -0.38253,-3.78465 q 0,-0.0922 0.0597,-0.15464 0.0597,-0.0651 0.16278,-0.0651 0.1031,0 0.16278,0.0651 0.0624,0.0624 0.0624,0.15464 0,0.0922 -0.0624,0.15464 -0.0597,0.0624 -0.16278,0.0624 -0.10309,0 -0.16278,-0.0624 -0.0597,-0.0624 -0.0597,-0.15464 z m 1.57354,0.84917 0.0109,0.50191 q 0.1655,-0.2713 0.41238,-0.41238 0.24689,-0.14379 0.54532,-0.14379 0.47206,0 0.70267,0.26588 0.2306,0.26587 0.23332,0.79762 v 1.92624 h -0.32285 v -1.92895 q -0.003,-0.39339 -0.16821,-0.58601 -0.16278,-0.19262 -0.52361,-0.19262 -0.30114,0 -0.53446,0.18991 -0.23061,0.18719 -0.34184,0.50733 v 2.01034 h -0.32285 v -2.93548 z m 3.24748,-0.7515 v 0.7515 h 0.60771 v 0.26588 h -0.60771 v 1.95608 q 0,0.24417 0.0868,0.36354 0.0895,0.11938 0.29571,0.11938 0.0814,0 0.26317,-0.0271 l 0.0136,0.26587 q -0.12751,0.0461 -0.34726,0.0461 -0.33371,0 -0.48563,-0.19262 -0.15193,-0.19534 -0.15193,-0.57245 v -1.95879 h -0.53989 v -0.26588 h 0.53989 v -0.7515 z m 3.03857,2.9409 q 0,-0.24145 -0.19533,-0.38796 -0.19263,-0.1465 -0.5833,-0.22789 -0.39067,-0.0841 -0.60771,-0.18991 -0.21433,-0.10852 -0.32014,-0.26316 -0.10309,-0.15464 -0.10309,-0.3744 0,-0.34726 0.29029,-0.57244 0.29029,-0.2279 0.74336,-0.2279 0.49106,0 0.78678,0.24417 0.29843,0.24146 0.29843,0.63214 h -0.32556 q 0,-0.25774 -0.21704,-0.42866 -0.21433,-0.17092 -0.54261,-0.17092 -0.32013,0 -0.51547,0.14379 -0.19262,0.14108 -0.19262,0.36897 0,0.21975 0.16006,0.34184 0.16279,0.11937 0.58873,0.21975 0.42865,0.10038 0.64027,0.21433 0.21433,0.11395 0.31742,0.27401 0.1031,0.16007 0.1031,0.38797 0,0.37168 -0.30115,0.59415 -0.29843,0.22246 -0.78135,0.22246 -0.51276,0 -0.83289,-0.24688 -0.31742,-0.2496 -0.31742,-0.62942 h 0.32556 q 0.019,0.28487 0.23874,0.44493 0.22247,0.15736 0.58601,0.15736 0.33913,0 0.54803,-0.14922 0.2089,-0.14921 0.2089,-0.37711 z"
         id="path1" />
      <path
         style="text-align:center;text-anchor:middle"
         d="m 253.13658,850.90774 q -0.0488,-0.13836 -0.0624,-0.40967 -0.17092,0.22247 -0.4368,0.34456 -0.26316,0.11937 -0.55888,0.11937 -0.42323,0 -0.68639,-0.23603 -0.26045,-0.23603 -0.26045,-0.59687 0,-0.42865 0.35541,-0.67825 0.35811,-0.2496 0.99567,-0.2496 h 0.58873 v -0.3337 q 0,-0.31471 -0.19534,-0.49376 -0.19263,-0.18178 -0.56431,-0.18178 -0.33912,0 -0.56159,0.17364 -0.22247,0.17363 -0.22247,0.4178 l -0.32556,-0.003 q 0,-0.34998 0.32556,-0.605 0.32556,-0.25774 0.80034,-0.25774 0.49106,0 0.77321,0.24688 0.28487,0.24417 0.293,0.68368 v 1.38907 q 0,0.42594 0.0895,0.63755 v 0.0326 z m -1.02009,-0.23332 q 0.32556,0 0.58058,-0.15735 0.25774,-0.15736 0.3744,-0.42052 v -0.6457 h -0.58059 q -0.48563,0.005 -0.75964,0.17906 -0.27402,0.17092 -0.27402,0.47206 0,0.24689 0.18178,0.40967 0.18448,0.16278 0.47749,0.16278 z m 2.45256,-2.70216 0.0109,0.50191 q 0.16549,-0.2713 0.41238,-0.41238 0.24688,-0.14379 0.54531,-0.14379 0.47207,0 0.70267,0.26587 0.23061,0.26588 0.23332,0.79763 v 1.92624 h -0.32284 v -1.92895 q -0.003,-0.39339 -0.16821,-0.58601 -0.16278,-0.19263 -0.52361,-0.19263 -0.30115,0 -0.53447,0.18991 -0.2306,0.1872 -0.34184,0.50734 v 2.01034 h -0.32284 v -2.93548 z m 2.61263,1.44061 q 0,-0.68368 0.30386,-1.08792 0.30657,-0.40695 0.83018,-0.40695 0.59415,0 0.90615,0.46935 v -1.6468 h 0.32284 v 4.16719 h -0.30385 l -0.0136,-0.39067 q -0.31199,0.44493 -0.917,0.44493 -0.50733,0 -0.81933,-0.40695 -0.30928,-0.40967 -0.30928,-1.1042 z m 0.32827,0.057 q 0,0.5616 0.22519,0.88716 0.22518,0.32285 0.63484,0.32285 0.59958,0 0.85189,-0.52904 v -1.37821 q -0.25231,-0.57245 -0.84646,-0.57245 -0.40967,0 -0.63756,0.32285 -0.2279,0.32014 -0.2279,0.94684 z m 7.23561,-0.32285 q 0,0.54532 -0.18991,0.9577 -0.1872,0.41238 -0.53718,0.63484 -0.34998,0.22247 -0.80848,0.22247 -0.69181,0 -1.11776,-0.49377 -0.42594,-0.49648 -0.42594,-1.33751 v -0.40696 q 0,-0.53989 0.18991,-0.95498 0.19263,-0.4178 0.5426,-0.64027 0.34998,-0.22518 0.80577,-0.22518 0.45578,0 0.80305,0.21976 0.34998,0.21975 0.53989,0.62128 0.18991,0.40152 0.19805,0.93056 z m -0.3337,-0.42865 q 0,-0.71352 -0.32285,-1.11776 -0.32285,-0.40424 -0.88444,-0.40424 -0.55074,0 -0.87902,0.40695 -0.32556,0.40424 -0.32556,1.13133 v 0.41237 q 0,0.70267 0.32556,1.11505 0.32556,0.40967 0.88444,0.40967 0.56702,0 0.88445,-0.40424 0.31742,-0.40695 0.31742,-1.13133 z m 3.4618,0.7515 q 0,0.68639 -0.30385,1.09063 -0.30386,0.40153 -0.81662,0.40153 -0.61314,0 -0.92785,-0.45579 l -0.0136,0.40153 h -0.30385 v -4.16719 h 0.32284 v 1.65765 q 0.30929,-0.4802 0.917,-0.4802 0.5209,0 0.82205,0.39881 0.30385,0.3961 0.30385,1.1042 z m -0.32556,-0.057 q 0,-0.58059 -0.22518,-0.89529 -0.22518,-0.31743 -0.63484,-0.31743 -0.312,0 -0.52904,0.15464 -0.21704,0.15193 -0.32828,0.44765 v 1.32395 q 0.24418,0.55346 0.86274,0.55346 0.40153,0 0.62671,-0.31743 0.22789,-0.31742 0.22789,-0.94955 z m 1.39178,-1.44061 v 3.28546 q 0,0.40695 -0.19534,0.62128 -0.19534,0.21433 -0.57516,0.21433 -0.1465,0 -0.28486,-0.0516 l 0.005,-0.26859 q 0.11937,0.0353 0.24417,0.0353 0.48292,0 0.48292,-0.55617 v -3.28003 z m -0.16007,-1.06893 q 0.10581,0 0.16549,0.0651 0.0597,0.0624 0.0597,0.15465 0,0.0922 -0.0597,0.15464 -0.0597,0.0624 -0.16549,0.0624 -0.10309,0 -0.16278,-0.0624 -0.057,-0.0624 -0.057,-0.15464 0,-0.0923 0.057,-0.15465 0.0597,-0.0651 0.16278,-0.0651 z m 2.21382,4.05867 q -0.3744,0 -0.67826,-0.18449 -0.30114,-0.18448 -0.46935,-0.51275 -0.1682,-0.33099 -0.1682,-0.74066 v -0.11666 q 0,-0.42323 0.16278,-0.76235 0.16549,-0.33913 0.4585,-0.53175 0.293,-0.19534 0.63484,-0.19534 0.53446,0 0.84646,0.36626 0.31471,0.36354 0.31471,0.99567 v 0.18177 h -2.09445 v 0.0624 q 0,0.4992 0.28487,0.8329 0.28758,0.33099 0.72166,0.33099 0.26045,0 0.4585,-0.095 0.20076,-0.095 0.36354,-0.30386 l 0.20348,0.15464 q -0.35812,0.51819 -1.03908,0.51819 z m -0.0597,-2.76727 q -0.36626,0 -0.61857,0.26858 -0.24959,0.26859 -0.30385,0.72167 h 1.76074 v -0.0353 q -0.0136,-0.42323 -0.24146,-0.68911 -0.22789,-0.26587 -0.59686,-0.26587 z m 2.87851,2.49326 q 0.33913,0 0.56702,-0.18992 0.2306,-0.19262 0.2496,-0.49648 h 0.31199 q -0.0136,0.26859 -0.1682,0.49106 -0.15465,0.21975 -0.41238,0.34455 -0.25503,0.1248 -0.54803,0.1248 -0.57787,0 -0.917,-0.40153 -0.33641,-0.40152 -0.33641,-1.07978 v -0.0977 q 0,-0.43409 0.15193,-0.76779 0.15192,-0.3337 0.43408,-0.51547 0.28486,-0.18177 0.66469,-0.18177 0.48291,0 0.79491,0.28758 0.31471,0.28758 0.33641,0.75693 h -0.31199 q -0.0217,-0.34455 -0.2496,-0.55617 -0.22518,-0.21161 -0.56973,-0.21161 -0.43951,0 -0.68368,0.31742 -0.24146,0.31742 -0.24146,0.88987 v 0.095 q 0,0.5616 0.24146,0.87631 0.24417,0.31471 0.68639,0.31471 z m 2.28164,-3.46723 v 0.7515 h 0.60772 v 0.26587 h -0.60772 v 1.95609 q 0,0.24417 0.0868,0.36354 0.0895,0.11937 0.29572,0.11937 0.0814,0 0.26316,-0.0271 l 0.0136,0.26588 q -0.12751,0.0461 -0.34726,0.0461 -0.3337,0 -0.48563,-0.19262 -0.15193,-0.19534 -0.15193,-0.57245 v -1.9588 h -0.53989 v -0.26587 h 0.53989 v -0.7515 z m 1.64409,3.68698 h -0.32556 v -2.93548 h 0.32556 z m -0.38254,-3.78465 q 0,-0.0923 0.0597,-0.15465 0.0597,-0.0651 0.16278,-0.0651 0.10309,0 0.16278,0.0651 0.0624,0.0624 0.0624,0.15465 0,0.0922 -0.0624,0.15464 -0.0597,0.0624 -0.16278,0.0624 -0.10309,0 -0.16278,-0.0624 -0.0597,-0.0624 -0.0597,-0.15464 z m 2.17855,3.337 0.89258,-2.48783 h 0.3337 l -1.09605,2.93548 h -0.26316 l -1.10149,-2.93548 h 0.3337 z m 2.85952,0.50191 q -0.3744,0 -0.67826,-0.18449 -0.30114,-0.18448 -0.46935,-0.51275 -0.1682,-0.33099 -0.1682,-0.74066 v -0.11666 q 0,-0.42323 0.16278,-0.76235 0.16549,-0.33913 0.4585,-0.53175 0.293,-0.19534 0.63484,-0.19534 0.53446,0 0.84646,0.36626 0.31471,0.36354 0.31471,0.99567 v 0.18177 h -2.09445 v 0.0624 q 0,0.4992 0.28487,0.8329 0.28758,0.33099 0.72166,0.33099 0.26045,0 0.4585,-0.095 0.20076,-0.095 0.36354,-0.30386 l 0.20348,0.15464 q -0.35812,0.51819 -1.03908,0.51819 z m -0.0597,-2.76727 q -0.36626,0 -0.61857,0.26858 -0.24959,0.26859 -0.30385,0.72167 h 1.76074 v -0.0353 q -0.0136,-0.42323 -0.24146,-0.68911 -0.22789,-0.26587 -0.59686,-0.26587 z"
         id="path2" />
    </g>
    <path
       d="m 517.52929,962.3841 c 0,-1.38826 1.12527,-2.51354 2.51354,-2.51354 1.38827,0 2.51354,1.12528 2.51354,2.51354 0,1.38827 -1.12527,2.51355 -2.51354,2.51355 -1.38827,0 -2.51354,-1.12528 -2.51354,-2.51355 z"
       stroke="#213c5d"
       stroke-width="0.529167"
       stroke-miterlimit="8"
       fill="#ffffff"
       fill-rule="evenodd"
       id="path477"
       style="fill:none;stroke:#808080" />
    <path
       d="m 552.45429,962.3841 c 0,-1.38826 1.12527,-2.51354 2.51354,-2.51354 1.38827,0 2.51354,1.12528 2.51354,2.51354 0,1.38827 -1.12527,2.51355 -2.51354,2.51355 -1.38827,0 -2.51354,-1.12528 -2.51354,-2.51355 z"
       stroke="#213c5d"
       stroke-width="0.529167"
       stroke-miterlimit="8"
       fill="#ffffff"
       fill-rule="evenodd"
       id="path478"
       style="fill:none;stroke:#808080" />
    <path
       d="m 522.55637,962.5164 h 29.85849"
       stroke="#213c5d"
       stroke-width="0.529167"
       stroke-miterlimit="8"
       fill="none"
       fill-rule="evenodd"
       id="path479"
       style="fill:#808080;stroke:#808080" />
    <path
       d="m 557.74595,962.5164 h 29.85849"
       stroke="#213c5d"
       stroke-width="0.529167"
       stroke-miterlimit="8"
       fill="none"
       fill-rule="evenodd"
       id="path480"
       style="fill:#808080;stroke:#808080" />
    <path
       d="m 587.86902,962.3841 c 0,-1.38826 1.12527,-2.51354 2.51354,-2.51354 1.38827,0 2.51354,1.12528 2.51354,2.51354 0,1.38827 -1.12527,2.51355 -2.51354,2.51355 -1.38827,0 -2.51354,-1.12528 -2.51354,-2.51355 z"
       stroke="#213c5d"
       stroke-width="0.529167"
       stroke-miterlimit="8"
       fill="#ffffff"
       fill-rule="evenodd"
       id="path481"
       style="fill:none;stroke:#808080" />
    <text
       fill="#213c5d"
       font-family="'Roboto Light', 'Roboto Light_MSFontService', sans-serif"
       font-weight="300"
       font-size="5.55625px"
       id="text481"
       x="217.7274"
       y="821.47284"
       style="font-style:normal;font-variant:normal;font-weight:300;font-stretch:normal;font-family:Roboto;-inkscape-font-specification:'Roboto Light';text-align:center;text-anchor:middle;white-space:pre;inline-size:38.5909;display:inline;fill:#808080;stroke-width:0.264583"
       transform="translate(372.76489,135.02432)"
       xml:space="preserve"><tspan
         x="217.7274"
         y="821.47284"
         id="tspan3">Solve Model</tspan></text>
    <path
       d="m 487.40622,962.5278 h 29.85849"
       stroke="#213c5d"
       stroke-width="0.529167"
       stroke-miterlimit="8"
       fill="none"
       fill-rule="evenodd"
       id="path482"
       style="fill:#808080;stroke:#808080" />
    <g
       id="g487"
       transform="matrix(0.14894206,0,0,0.14894206,547.80443,891.78972)"
       style="fill:#808080;fill-opacity:1;stroke-width:1.77642">
      <g
         id="g486"
         style="fill:#808080;fill-opacity:1;stroke-width:1.77642">
        <g
           id="g485"
           style="fill:#808080;fill-opacity:1;stroke-width:1.77642">
          <path
             d="m 608.029,327 h -2 v 68 H 674 v -2 h -65.971 z"
             id="path484"
             style="fill:#808080;fill-opacity:1;stroke-width:1.77642" />
          <path
             d="m 621.03,384 c 2.202,0.004 3.992,-1.777 3.996,-3.98 0.003,-1.258 -0.589,-2.444 -1.596,-3.199 l 8.68,-26.829 c 0.576,-0.014 1.143,-0.152 1.66,-0.407 l 15.33,11.681 c -0.411,2.17 1.015,4.264 3.185,4.675 2.171,0.411 4.264,-1.015 4.675,-3.185 0.047,-0.249 0.071,-0.502 0.07,-0.756 -0.003,-1.215 -0.562,-2.362 -1.517,-3.114 l 7.239,-20.914 c 0.094,0.007 0.183,0.028 0.278,0.028 2.217,0.008 4.02,-1.783 4.028,-4 0.008,-2.217 -1.783,-4.02 -4,-4.028 -2.217,-0.008 -4.02,1.783 -4.028,4 -0.005,1.361 0.681,2.632 1.821,3.376 l -7.171,20.717 c -0.215,-0.039 -0.432,-0.061 -0.65,-0.065 -1.174,0.003 -2.287,0.526 -3.039,1.427 l -14.661,-11.17 c 1.26,-1.819 0.808,-4.315 -1.011,-5.576 -1.819,-1.26 -4.316,-0.807 -5.576,1.012 -1.261,1.819 -0.808,4.315 1.011,5.575 0.132,0.092 0.269,0.175 0.411,0.25 l -8.586,26.537 c -2.183,-0.307 -4.202,1.213 -4.51,3.396 -0.307,2.184 1.214,4.203 3.397,4.51 0.187,0.026 0.375,0.039 0.564,0.039 z"
             id="path485"
             style="fill:#808080;fill-opacity:1;stroke-width:1.77642" />
        </g>
      </g>
    </g>
    <path
       d="m 508.36581,917.66967 h 30.96933"
       stroke="#213c5d"
       stroke-width="0.529167"
       stroke-miterlimit="8"
       fill="none"
       fill-rule="evenodd"
       id="path487"
       style="fill:#808080;stroke:#213c5d;stroke-opacity:1" />
    <path
       d="m 457.28815,917.66967 h 30.96933"
       stroke="#213c5d"
       stroke-width="0.529167"
       stroke-miterlimit="8"
       fill="none"
       fill-rule="evenodd"
       id="path488"
       style="fill:#808080;stroke:#213c5d;stroke-opacity:1" />
    <path
       d="m 413.42767,917.66967 h 23.87271"
       stroke="#213c5d"
       stroke-width="0.529167"
       stroke-miterlimit="8"
       fill="none"
       fill-rule="evenodd"
       id="path489"
       style="fill:#808080;stroke:#213c5d;stroke-opacity:1" />
    <path
       d="m 593.16068,962.5164 h 29.85849"
       stroke="#213c5d"
       stroke-width="0.529167"
       stroke-miterlimit="8"
       fill="none"
       fill-rule="evenodd"
       id="path490"
       style="fill:#808080;stroke:#808080" />
    <g
       id="g494"
       transform="matrix(0.1791591,0,0,0.1791591,505.77294,879.31651)"
       style="fill:#808080;fill-opacity:1;stroke-width:1.47681">
      <g
         id="g493"
         style="fill:#808080;fill-opacity:1;stroke-width:1.47681">
        <g
           id="g492"
           style="fill:#808080;fill-opacity:1;stroke-width:1.47681">
          <path
             d="M 694.751,375.34 C 693.985,374.468 675.768,354 656,354 c -19.768,0 -37.985,20.468 -38.751,21.34 -0.332,0.377 -0.332,0.943 0,1.32 0.766,0.872 18.983,21.34 38.751,21.34 19.768,0 37.985,-20.468 38.751,-21.34 0.332,-0.377 0.332,-0.943 0,-1.32 z M 637,376 c 0,-10.493 8.507,-19 19,-19 10.493,0 19,8.507 19,19 0,10.493 -8.507,19 -19,19 -10.489,-0.012 -18.988,-8.511 -19,-19 z m -17.641,0 c 2.6,-2.76 13.177,-13.417 25.753,-17.945 0.049,-0.018 0.053,-0.01 0.008,0.017 -9.901,5.976 -13.084,18.846 -7.108,28.748 1.757,2.911 4.197,5.351 7.108,7.108 0.045,0.027 0.041,0.035 -0.008,0.017 C 632.536,389.417 621.955,378.76 619.359,376 Z m 47.529,17.945 c -0.049,0.018 -0.053,0.01 -0.008,-0.017 9.901,-5.976 13.084,-18.846 7.108,-28.748 -1.757,-2.911 -4.197,-5.351 -7.108,-7.108 -0.045,-0.027 -0.041,-0.035 0.008,-0.017 12.576,4.528 23.157,15.185 25.753,17.945 -2.596,2.76 -13.177,13.417 -25.753,17.945 z"
             id="path491"
             style="fill:#808080;fill-opacity:1;stroke-width:1.47681" />
          <path
             d="m 656,367 c -4.971,0 -9,4.029 -9,9 0,4.971 4.029,9 9,9 4.971,0 9,-4.029 9,-9 -0.006,-4.968 -4.032,-8.994 -9,-9 z m 0,16 c -3.866,0 -7,-3.134 -7,-7 0,-3.866 3.134,-7 7,-7 3.866,0 7,3.134 7,7 -0.004,3.864 -3.136,6.996 -7,7 z"
             id="path492"
             style="fill:#808080;fill-opacity:1;stroke-width:1.47681" />
        </g>
      </g>
    </g>
    <g
       id="g561"
       transform="translate(16.638977,334.90724)">
      <path
         d="m 379.00342,528.92001 c 5.26045,0 9.52474,4.26429 9.52474,9.52474 0,5.26044 -4.26429,9.52473 -9.52474,9.52473 -5.26044,0 -9.52473,-4.26429 -9.52473,-9.52473 0.006,-5.2578 4.26694,-9.51865 9.52473,-9.52474 m 0,-0.52943 c -5.5528,0 -10.05416,4.50136 -10.05416,10.05417 0,5.55281 4.50136,10.05416 10.05416,10.05416 5.55281,0 10.05417,-4.50135 10.05417,-10.05416 0.002,-5.55017 -4.49501,-10.05153 -10.04517,-10.05417 -0.003,0 -0.006,0 -0.009,0 z"
         fill="#213c5d"
         fill-rule="evenodd"
         id="path559"
         style="fill:#213c5d;fill-opacity:1;stroke-width:0.264583"
         inkscape:export-filename="wf_7steps_2.svg"
         inkscape:export-xdpi="96"
         inkscape:export-ydpi="96" />
      <path
         d="m 379.14974,542.67808 v -8.12879 c 0,-0.003 -0.002,-0.004 -0.005,-0.002 l -0.15796,0.12964 c -0.16033,0.12885 -0.32993,0.24739 -0.5072,0.35454 -0.18944,0.11563 -0.38471,0.2249 -0.58076,0.32518 -0.19712,0.10054 -0.39661,0.19182 -0.59241,0.27172 -0.14737,0.0595 -0.28813,0.11272 -0.42015,0.15769 v -0.508 c 0.50482,-0.1606 0.98848,-0.37623 1.44118,-0.6424 0.48101,-0.28417 0.93848,-0.60272 1.36816,-0.9533 l 0.10107,0.005 v 8.99081 z"
         fill="#213c5d"
         fill-rule="evenodd"
         id="path560"
         style="fill:#213c5d;fill-opacity:1;stroke-width:0.264583" />
      <text
         fill="#213c5d"
         font-family="'Roboto Light', 'Roboto Light_MSFontService', sans-serif"
         font-weight="300"
         font-size="7.14375px"
         id="text560"
         x="368.6315"
         y="556.17181"
         style="fill:#213c5d;fill-opacity:1;stroke-width:0.264583">Import</text>
      <text
         fill="#213c5d"
         font-family="'Roboto Light', 'Roboto Light_MSFontService', sans-serif"
         font-weight="300"
         font-size="7.14375px"
         id="text561"
         x="365.63297"
         y="564.63849"
         style="fill:#213c5d;fill-opacity:1;stroke-width:0.264583">Modules</text>
    </g>
    <path
       d="m 559.44344,917.82778 38.44175,0.0113 c 12.41949,0.17373 22.63028,-9.61166 22.8065,-21.85629 0.17171,-11.93896 -9.27629,-21.86803 -21.37204,-22.46029 l -1.00726,-0.0384"
       stroke="#213c5d"
       stroke-width="0.529167"
       stroke-miterlimit="8"
       fill="none"
       fill-rule="evenodd"
       id="path582"
       style="stroke:#213c5d;stroke-opacity:1"
       sodipodi:nodetypes="ccccc" />
    <g
       id="g585"
       transform="translate(16.63898,334.90724)">
      <path
         d="m 429.80342,528.92001 c 5.26045,0 9.52474,4.26429 9.52474,9.52474 0,5.26044 -4.26429,9.52473 -9.52474,9.52473 -5.26044,0 -9.52473,-4.26429 -9.52473,-9.52473 0.006,-5.2578 4.26693,-9.51865 9.52473,-9.52474 m 0,-0.52943 c -5.55281,0 -10.05416,4.50136 -10.05416,10.05417 0,5.55281 4.50135,10.05416 10.05416,10.05416 5.55281,0 10.05417,-4.50135 10.05417,-10.05416 0.003,-5.55017 -4.49448,-10.05153 -10.04464,-10.05417 -0.003,0 -0.006,0 -0.01,0 z"
         fill="#213c5d"
         fill-rule="evenodd"
         id="path583"
         style="fill:#213c5d;fill-opacity:1;stroke-width:0.264583" />
      <path
         d="m 427.15812,542.67623 v -0.34052 c -0.006,-0.34528 0.0386,-0.68977 0.13388,-1.02103 0.0915,-0.29051 0.2331,-0.56197 0.41751,-0.80169 0.21855,-0.27966 0.46699,-0.5334 0.7403,-0.7567 0.30269,-0.25242 0.6731,-0.54161 1.10094,-0.8599 0.29051,-0.21855 0.55297,-0.43339 0.77972,-0.63844 0.21564,-0.19209 0.40958,-0.40852 0.57838,-0.64479 0.15372,-0.21828 0.27385,-0.45958 0.3564,-0.71543 0.0833,-0.27226 0.12435,-0.55616 0.12117,-0.84164 0.004,-0.27041 -0.0405,-0.53949 -0.13229,-0.79322 -0.16086,-0.44821 -0.51223,-0.7964 -0.95435,-0.94589 -0.23707,-0.081 -0.48577,-0.12091 -0.73581,-0.11827 -0.40878,5.3e-4 -0.81121,0.10187 -1.17395,0.29581 -0.32094,0.17118 -0.61939,0.38391 -0.88794,0.63235 v -0.64505 c 0.29104,-0.23998 0.61462,-0.43498 0.9607,-0.57918 0.38682,-0.1516 0.79798,-0.22622 1.21179,-0.22013 0.0672,0 0.13414,0.004 0.20082,0.0122 0.0664,0.008 0.13229,0.0209 0.19711,0.037 0.27702,0.0283 0.54716,0.1053 0.79825,0.22781 0.22913,0.11297 0.43524,0.26934 0.60775,0.4609 0.17171,0.19553 0.30427,0.42386 0.38973,0.67178 0.0952,0.27993 0.14235,0.57494 0.13864,0.87154 0.005,0.3421 -0.0434,0.68315 -0.14261,1.00991 -0.0937,0.29369 -0.23124,0.57071 -0.40772,0.82127 -0.18706,0.26246 -0.4027,0.50218 -0.64241,0.7149 -0.25215,0.22569 -0.5379,0.45667 -0.84958,0.68421 -0.35083,0.2593 -0.6559,0.49213 -0.90725,0.69136 -0.22649,0.17595 -0.43948,0.36989 -0.63685,0.5797 -0.1577,0.16695 -0.28999,0.35719 -0.39265,0.56436 -0.0929,0.19605 -0.15742,0.40481 -0.19208,0.61965 -0.01,0.0672 -0.0153,0.12674 -0.0225,0.19235 -0.007,0.0683 -0.01,0.13679 -0.01,0.20532 v 0.0939 h 4.38097 v 0.53737 z"
         fill="#213c5d"
         fill-rule="evenodd"
         id="path584"
         style="fill:#213c5d;fill-opacity:1;stroke-width:0.264583" />
      <text
         fill="#213c5d"
         font-family="'Roboto Light', 'Roboto Light_MSFontService', sans-serif"
         font-weight="300"
         font-size="7.14375px"
         id="text584"
         x="422.02731"
         y="556.70099"
         style="fill:#213c5d;fill-opacity:1;stroke-width:0.264583">Build</text>
      <text
         fill="#213c5d"
         font-family="'Roboto Light', 'Roboto Light_MSFontService', sans-serif"
         font-weight="300"
         font-size="7.14375px"
         id="text585"
         x="420.06412"
         y="565.16766"
         style="fill:#213c5d;fill-opacity:1;stroke-width:0.264583">Model</text>
    </g>
    <g
       id="g608"
       transform="translate(16.638979,334.90726)">
      <path
         d="m 546.48467,538.44475 h 29.92834"
         stroke="#213c5d"
         stroke-width="0.529167"
         stroke-miterlimit="8"
         fill="none"
         fill-rule="evenodd"
         id="path597"
         style="fill:#808080;stroke:#213c5d;stroke-opacity:1"
         inkscape:export-filename="wf_7steps_2-3.svg"
         inkscape:export-xdpi="96"
         inkscape:export-ydpi="96" />
      <path
         d="m 511.55967,538.44475 h 29.85849"
         stroke="#213c5d"
         stroke-width="0.529167"
         stroke-miterlimit="8"
         fill="none"
         fill-rule="evenodd"
         id="path598"
         style="fill:#808080;stroke:#213c5d;stroke-opacity:1"
         inkscape:export-filename="wf_7steps_2-2.svg"
         inkscape:export-xdpi="96"
         inkscape:export-ydpi="96" />
      <path
         d="m 476.63467,538.51645 29.81801,-0.0717"
         stroke="#213c5d"
         stroke-width="0.529167"
         stroke-miterlimit="8"
         fill="none"
         fill-rule="evenodd"
         id="path599"
         style="stroke:#213c5d;stroke-opacity:1"
         inkscape:export-filename="wf_7steps_2-1.svg"
         inkscape:export-xdpi="96"
         inkscape:export-ydpi="96" />
      <text
         fill="#213c5d"
         font-family="'Roboto Light', 'Roboto Light_MSFontService', sans-serif"
         font-weight="300"
         font-size="5.55625px"
         id="text599"
         x="466.10928"
         y="547.96973"
         style="font-style:normal;font-variant:normal;font-weight:300;font-stretch:normal;font-family:Roboto;-inkscape-font-specification:'Roboto Light';fill:#213c5d;fill-opacity:1;stroke-width:0.264583">Create</text>
      <text
         fill="#213c5d"
         font-family="'Roboto Light', 'Roboto Light_MSFontService', sans-serif"
         font-weight="300"
         font-size="5.55625px"
         id="text600"
         x="457.9072"
         y="554.84888"
         style="font-style:normal;font-variant:normal;font-weight:300;font-stretch:normal;font-family:Roboto;-inkscape-font-specification:'Roboto Light';fill:#213c5d;fill-opacity:1;stroke-width:0.264583">Model Object</text>
      <text
         fill="#213c5d"
         font-family="'Roboto Light', 'Roboto Light_MSFontService', sans-serif"
         font-weight="300"
         font-size="5.55625px"
         id="text601"
         x="490.76291"
         y="525.48016"
         style="fill:#213c5d;fill-opacity:1;stroke-width:0.264583">Add Flowsheet</text>
      <text
         fill="#213c5d"
         font-family="'Roboto Light', 'Roboto Light_MSFontService', sans-serif"
         font-weight="300"
         font-size="5.55625px"
         id="text602"
         x="498.21542"
         y="532.35931"
         style="fill:#213c5d;fill-opacity:1;stroke-width:0.264583">to Model</text>
      <text
         fill="#213c5d"
         font-family="'Roboto Light', 'Roboto Light_MSFontService', sans-serif"
         font-weight="300"
         font-size="5.55625px"
         id="text603"
         x="515.9483"
         y="547.96973"
         style="fill:#213c5d;fill-opacity:1;stroke-width:0.264583">Add Property Packages</text>
      <text
         fill="#213c5d"
         font-family="'Roboto Light', 'Roboto Light_MSFontService', sans-serif"
         font-weight="300"
         font-size="5.55625px"
         id="text604"
         x="528.86871"
         y="554.84888"
         style="fill:#213c5d;fill-opacity:1;stroke-width:0.264583">to Flowsheet</text>
      <path
         d="m 471.60759,538.31245 c 0,-1.38826 1.12527,-2.51354 2.51354,-2.51354 1.38827,0 2.51354,1.12528 2.51354,2.51354 0,1.38827 -1.12527,2.51355 -2.51354,2.51355 -1.38827,0 -2.51354,-1.12528 -2.51354,-2.51355 z"
         stroke="#213c5d"
         stroke-width="0.529167"
         stroke-miterlimit="8"
         fill="#ffffff"
         fill-rule="evenodd"
         id="path604"
         style="fill:#000000;fill-opacity:0;stroke:#213c5d;stroke-opacity:1" />
      <path
         d="m 506.53259,538.31245 c 0,-1.38826 1.12527,-2.51354 2.51354,-2.51354 1.38827,0 2.51354,1.12528 2.51354,2.51354 0,1.38827 -1.12527,2.51355 -2.51354,2.51355 -1.38827,0 -2.51354,-1.12528 -2.51354,-2.51355 z"
         stroke="#213c5d"
         stroke-width="0.529167"
         stroke-miterlimit="8"
         fill="#ffffff"
         fill-rule="evenodd"
         id="path605"
         style="fill:none;stroke:#213c5d;stroke-opacity:1" />
      <path
         d="m 541.45759,538.31245 c 0,-1.38826 1.12527,-2.51354 2.51354,-2.51354 1.38827,0 2.51354,1.12528 2.51354,2.51354 0,1.38827 -1.12527,2.51355 -2.51354,2.51355 -1.38827,0 -2.51354,-1.12528 -2.51354,-2.51355 z"
         stroke="#213c5d"
         stroke-width="0.529167"
         stroke-miterlimit="8"
         fill="#ffffff"
         fill-rule="evenodd"
         id="path606"
         style="fill:none;stroke:#213c5d;stroke-opacity:1" />
      <path
         d="m 576.38259,538.31245 c 0,-1.38826 1.18454,-2.51354 2.64583,-2.51354 1.46129,0 2.64583,1.12528 2.64583,2.51354 0,1.38827 -1.18454,2.51355 -2.64583,2.51355 -1.46129,0 -2.64583,-1.12528 -2.64583,-2.51355 z"
         stroke="#213c5d"
         stroke-width="0.529167"
         stroke-miterlimit="8"
         fill="#ffffff"
         fill-rule="evenodd"
         id="path607"
         style="fill:none;stroke:#213c5d;stroke-opacity:1" />
      <text
         fill="#213c5d"
         font-family="'Roboto Light', 'Roboto Light_MSFontService', sans-serif"
         font-weight="300"
         font-size="5.55625px"
         id="text607"
         x="558.69043"
         y="526.00934"
         style="fill:#213c5d;fill-opacity:1;stroke-width:0.264583">Add Unit Models</text>
      <text
         fill="#213c5d"
         font-family="'Roboto Light', 'Roboto Light_MSFontService', sans-serif"
         font-weight="300"
         font-size="5.55625px"
         id="text608"
         x="563.10022"
         y="532.88849"
         style="fill:#213c5d;fill-opacity:1;stroke-width:0.264583">to Flowsheet</text>
      <path
         d="m 439.85759,538.50057 31.83308,-0.0558"
         stroke="#213c5d"
         stroke-width="0.529167"
         stroke-miterlimit="8"
         fill="none"
         fill-rule="evenodd"
         id="path608"
         style="fill:#000000;fill-opacity:0;stroke:#213c5d;stroke-opacity:1" />
    </g>
    <g
       id="g614"
       transform="translate(14.510552,334.80244)">
      <path
         d="m 534.87874,573.47483 c 5.26044,0 9.52473,4.26429 9.52473,9.52473 0,5.26045 -4.26429,9.52474 -9.52473,9.52474 -5.26045,0 -9.52474,-4.26429 -9.52474,-9.52474 0.006,-5.2578 4.26694,-9.51865 9.52474,-9.52473 m 0,-0.52943 c -5.55282,0 -10.05417,4.50135 -10.05417,10.05416 0,5.55281 4.50135,10.05417 10.05417,10.05417 5.55281,0 10.05416,-4.50136 10.05416,-10.05417 0.003,-5.55016 -4.49448,-10.05152 -10.04464,-10.05416 -0.003,0 -0.006,0 -0.01,0 z"
         fill="#213c5d"
         fill-rule="evenodd"
         id="path612"
         style="fill:#213c5d;fill-opacity:1;stroke-width:0.264583" />
      <path
         d="m 534.09213,587.49642 c -0.64664,0.0148 -1.28667,-0.13599 -1.85923,-0.43815 v -0.64638 c 0.5588,0.37174 1.21312,0.57415 1.88384,0.58235 0.28125,8e-4 0.56118,-0.0357 0.8329,-0.10821 0.25982,-0.0685 0.5043,-0.186 0.71993,-0.34661 0.21247,-0.16139 0.38524,-0.36909 0.50509,-0.60748 0.1323,-0.27437 0.19712,-0.57653 0.18945,-0.88106 0.0336,-0.57627 -0.22596,-1.1303 -0.68977,-1.47267 -0.44794,-0.32385 -1.11152,-0.48763 -1.97115,-0.48763 h -0.61198 v -0.50192 h 0.55668 c 0.78291,0 1.38377,-0.15848 1.78568,-0.47545 0.41777,-0.34026 0.6469,-0.86096 0.61595,-1.39965 0.0304,-0.46699 -0.13547,-0.92551 -0.45747,-1.26444 -0.3765,-0.31724 -0.86122,-0.47493 -1.35175,-0.43974 -0.5932,0.0108 -1.17026,0.19447 -1.66159,0.52811 v -0.57124 c 0.56251,-0.30241 1.19036,-0.46169 1.82827,-0.4646 0.29634,-8e-4 0.59108,0.0415 0.87524,0.12594 0.26379,0.077 0.51012,0.20505 0.72496,0.37676 0.20797,0.17013 0.37651,0.38339 0.49398,0.62521 0.12832,0.27464 0.19129,0.57494 0.18441,0.87789 0,1.14829 -0.55165,1.8624 -1.68618,2.18281 l -0.0672,0.0188 v 0.17727 l 0.082,0.01 c 0.26961,0.0299 0.53314,0.0995 0.78237,0.20664 0.2331,0.10001 0.44583,0.24235 0.6268,0.42042 0.17913,0.17912 0.32121,0.39211 0.41831,0.62653 0.10504,0.2585 0.15716,0.53578 0.15319,0.81492 0.007,0.37253 -0.0701,0.74189 -0.22542,1.08029 -0.14499,0.30665 -0.35587,0.57706 -0.61754,0.79243 -0.27384,0.22119 -0.58711,0.38788 -0.9234,0.49133 -0.36777,0.11404 -0.75115,0.17092 -1.13638,0.16801 z"
         fill="#213c5d"
         fill-rule="evenodd"
         id="path613"
         style="fill:#213c5d;fill-opacity:1;stroke-width:0.264583" />
      <text
         fill="#213c5d"
         font-family="'Roboto Light', 'Roboto Light_MSFontService', sans-serif"
         font-weight="300"
         font-size="7.14375px"
         id="text613"
         x="523.7337"
         y="600.99121"
         style="fill:#213c5d;fill-opacity:1;stroke-width:0.264583">Specify</text>
      <text
         fill="#213c5d"
         font-family="'Roboto Light', 'Roboto Light_MSFontService', sans-serif"
         font-weight="300"
         font-size="7.14375px"
         id="text614"
         x="525.45349"
         y="609.45789"
         style="fill:#213c5d;fill-opacity:1;stroke-width:0.264583">Model</text>
    </g>
    <g
       id="g621"
       transform="translate(18.848225,334.80244)">
      <path
         d="m 479.46342,573.47483 c 5.26045,0 9.52473,4.26429 9.52473,9.52473 0,5.26045 -4.26428,9.52474 -9.52473,9.52474 -5.26045,0 -9.52474,-4.26429 -9.52474,-9.52474 0.006,-5.2578 4.26694,-9.51865 9.52474,-9.52473 m 0,-0.52943 c -5.55281,0 -10.05417,4.50135 -10.05417,10.05416 0,5.55281 4.50136,10.05417 10.05417,10.05417 5.55281,0 10.05417,-4.50136 10.05417,-10.05417 0.003,-5.55016 -4.49448,-10.05152 -10.04465,-10.05416 -0.003,0 -0.006,0 -0.01,0 z"
         fill="#213c5d"
         fill-rule="evenodd"
         id="path619"
         style="fill:#213c5d;fill-opacity:1;stroke-width:0.264583" />
      <path
         d="m 480.1553,587.2329 v -2.21351 h -4.13146 v -0.60351 c 0.37332,-0.42439 0.76279,-0.90197 1.15173,-1.40044 0.39396,-0.50615 0.77681,-1.0287 1.13771,-1.55284 0.36089,-0.52441 0.69797,-1.04907 1.00144,-1.55972 0.272,-0.45376 0.52123,-0.92154 0.74639,-1.40123 h 0.68527 v 5.98196 h 1.36287 v 0.53578 h -1.36287 v 2.21351 z m -0.16959,-7.5954 c -0.29713,0.52467 -0.59717,1.02209 -0.89165,1.47823 -0.29422,0.45614 -0.58235,0.88186 -0.85857,1.27132 -0.27623,0.38947 -0.54346,0.74877 -0.79455,1.06892 -0.25109,0.32014 -0.48524,0.61463 -0.69585,0.87551 l -0.12197,0.15134 v 0 h 3.53218 v -5.1443 0 z"
         fill="#213c5d"
         fill-rule="evenodd"
         id="path620"
         style="fill:#213c5d;fill-opacity:1;stroke-width:0.264583" />
      <text
         fill="#213c5d"
         font-family="'Roboto Light', 'Roboto Light_MSFontService', sans-serif"
         font-weight="300"
         font-size="7.14375px"
         id="text620"
         x="471.13062"
         y="600.99121"
         style="fill:#213c5d;fill-opacity:1;stroke-width:0.264583">Scale</text>
      <text
         fill="#213c5d"
         font-family="'Roboto Light', 'Roboto Light_MSFontService', sans-serif"
         font-weight="300"
         font-size="7.14375px"
         id="text621"
         x="469.94"
         y="609.45789"
         style="fill:#213c5d;fill-opacity:1;stroke-width:0.264583">Model</text>
    </g>
    <g
       id="g630"
       transform="translate(-4.3988178,290.19267)">
      <path
         d="m 451.75336,618.08459 c 5.26045,0 9.52474,4.26429 9.52474,9.52474 0,5.26044 -4.26429,9.52473 -9.52474,9.52473 -5.26044,0 -9.52473,-4.26429 -9.52473,-9.52473 0.006,-5.2578 4.26693,-9.51865 9.52473,-9.52474 m 0,-0.52943 c -5.55281,0 -10.05416,4.50136 -10.05416,10.05417 0,5.55281 4.50135,10.05416 10.05416,10.05416 5.55281,0 10.05417,-4.50135 10.05417,-10.05416 0.003,-5.55017 -4.49448,-10.05153 -10.04464,-10.05417 h -0.01 z"
         fill="#213c5d"
         fill-rule="evenodd"
         id="path628"
         style="fill:#213c5d;fill-opacity:1;stroke-width:0.264583"
         sodipodi:nodetypes="csscccsscscc" />
      <path
         d="m 451.24457,631.83948 c -0.55219,0.0233 -1.10226,-0.0815 -1.60787,-0.30665 v -0.64188 c 0.49847,0.2921 1.06283,0.44979 1.63882,0.45853 0.31486,0.004 0.62813,-0.0474 0.92552,-0.15188 0.26432,-0.0942 0.50667,-0.24235 0.71173,-0.43524 0.19817,-0.19076 0.35295,-0.42253 0.45402,-0.67971 0.10742,-0.27755 0.16087,-0.57335 0.15769,-0.87127 0.0352,-0.58235 -0.19235,-1.14962 -0.61912,-1.54226 -0.40614,-0.3511 -1.00754,-0.52917 -1.78806,-0.52917 -0.2876,0 -0.6985,0.0217 -1.22131,0.0651 l 0.25426,-4.09363 h 3.60389 v 0.52678 h -3.11388 l -0.19394,3.03107 0.10319,-0.008 c 0.3466,-0.0241 0.62521,-0.0362 0.82814,-0.0362 0.40323,-0.007 0.80513,0.0526 1.18957,0.17568 0.31777,0.10346 0.61066,0.27332 0.85937,0.49821 0.2331,0.21723 0.41354,0.48604 0.52705,0.78529 0.12515,0.33893 0.18653,0.6985 0.18071,1.06018 0.004,0.37677 -0.0611,0.75115 -0.19368,1.10331 -0.12223,0.32042 -0.31273,0.60987 -0.55827,0.84747 -0.26061,0.24421 -0.56912,0.43074 -0.9054,0.54742 -0.39661,0.13626 -0.8136,0.20293 -1.23243,0.19658 z"
         fill="#213c5d"
         fill-rule="evenodd"
         id="path629"
         style="fill:#213c5d;fill-opacity:1;stroke-width:0.264583" />
      <text
         fill="#213c5d"
         font-family="'Roboto Light', 'Roboto Light_MSFontService', sans-serif"
         font-weight="300"
         font-size="7.14375px"
         id="text629"
         x="439.21396"
         y="645.33643"
         style="fill:#213c5d;fill-opacity:1;stroke-width:0.264583">Initialize</text>
      <text
         fill="#213c5d"
         font-family="'Roboto Light', 'Roboto Light_MSFontService', sans-serif"
         font-weight="300"
         font-size="7.14375px"
         id="text630"
         x="442.23364"
         y="653.8031"
         style="fill:#213c5d;fill-opacity:1;stroke-width:0.264583">Model</text>
    </g>
    <g
       id="g633"
       transform="translate(-84.246155,334.90724)">
      <path
         d="m 506.26044,618.08406 c 5.26071,-0.002 9.52659,4.26164 9.52817,9.52235 0.002,5.26072 -4.26164,9.52659 -9.52235,9.52818 -5.26071,0.002 -9.52632,-4.26164 -9.52818,-9.52235 0,-0.001 0,-0.002 0,-0.003 0.005,-5.25727 4.26509,-9.51812 9.52236,-9.525 m 0,-0.5289 c -5.55281,-0.002 -10.05549,4.49844 -10.05708,10.05125 -0.002,5.55282 4.49845,10.05549 10.05126,10.05708 5.55281,0.002 10.05549,-4.49844 10.05707,-10.05125 0,-0.001 0,-0.002 0,-0.003 0.003,-5.54963 -4.49368,-10.05099 -10.04331,-10.0539 -0.003,0 -0.005,0 -0.008,0 z"
         fill="#213c5d"
         fill-rule="evenodd"
         id="path631"
         style="fill:#213c5d;fill-opacity:1;stroke-width:0.264583" />
      <path
         d="m 505.99612,631.8416 c -0.78158,0.0236 -1.51765,-0.36274 -1.9386,-1.01732 -0.24659,-0.3818 -0.42439,-0.80328 -0.52546,-1.2454 -0.12939,-0.55694 -0.1913,-1.12712 -0.18442,-1.69889 -0.007,-0.70088 0.0746,-1.39991 0.24315,-2.08068 0.13759,-0.56568 0.37227,-1.10358 0.69401,-1.58988 0.27834,-0.41566 0.65061,-0.76094 1.08717,-1.00806 0.44132,-0.23945 0.93768,-0.36116 1.44039,-0.35322 0.44106,-0.0114 0.88053,0.0579 1.29619,0.20505 v 0.57759 c -0.4056,-0.18204 -0.84561,-0.27596 -1.29063,-0.27517 -0.41514,-0.005 -0.82418,0.10081 -1.18401,0.30665 -0.36143,0.21352 -0.66755,0.50879 -0.8935,0.86122 -0.25876,0.40587 -0.44821,0.85143 -0.56065,1.31842 -0.13547,0.55192 -0.20109,1.11813 -0.19553,1.68592 v 0.0923 h 0.17542 l 0.0267,-0.0526 c 0.35322,-0.80274 1.1729,-1.30122 2.05317,-1.2483 0.33919,-0.005 0.67548,0.0619 0.98663,0.19605 0.2876,0.127 0.54451,0.31353 0.75406,0.54663 0.21511,0.24448 0.38021,0.52838 0.48578,0.83556 0.11773,0.34263 0.17621,0.70273 0.1725,1.06468 0.004,0.39582 -0.0624,0.78925 -0.19685,1.16205 -0.12118,0.33496 -0.30744,0.64347 -0.54795,0.90726 -0.23495,0.2532 -0.51964,0.45587 -0.83661,0.59557 -0.33443,0.14526 -0.69612,0.21828 -1.06098,0.21458 z m 0.0624,-5.01306 c -0.27675,-0.002 -0.55033,0.0556 -0.80221,0.16933 -0.24078,0.10822 -0.45747,0.26247 -0.63818,0.45403 -0.17833,0.1905 -0.31962,0.41222 -0.41672,0.65378 -0.0995,0.24501 -0.15055,0.50668 -0.15002,0.771 -0.002,0.31882 0.046,0.63606 0.14129,0.94059 0.0865,0.28152 0.22251,0.54557 0.40137,0.78026 0.16881,0.2204 0.38259,0.40296 0.62733,0.53578 0.25109,0.13414 0.53208,0.20294 0.81677,0.20003 0.54451,0.007 1.06336,-0.2286 1.41367,-0.64215 0.17674,-0.21034 0.31326,-0.45111 0.40296,-0.71014 0.0995,-0.2876 0.14869,-0.59002 0.14552,-0.89403 0.003,-0.31115 -0.0418,-0.62124 -0.13282,-0.91916 -0.0791,-0.26088 -0.20876,-0.50403 -0.3818,-0.71517 -0.16615,-0.19791 -0.37518,-0.35533 -0.61145,-0.46117 -0.25691,-0.11165 -0.53525,-0.16721 -0.81571,-0.16298 z"
         fill="#213c5d"
         fill-rule="evenodd"
         id="path632"
         style="fill:#213c5d;fill-opacity:1;stroke-width:0.264583" />
      <text
         fill="#213c5d"
         font-family="'Roboto Light', 'Roboto Light_MSFontService', sans-serif"
         font-weight="300"
         font-size="7.14375px"
         id="text632"
         x="497.63977"
         y="645.33643"
         style="fill:#213c5d;fill-opacity:1;stroke-width:0.264583">Solve</text>
      <text
         fill="#213c5d"
         font-family="'Roboto Light', 'Roboto Light_MSFontService', sans-serif"
         font-weight="300"
         font-size="7.14375px"
         id="text633"
         x="496.42615"
         y="653.8031"
         style="fill:#213c5d;fill-opacity:1;stroke-width:0.264583">Model</text>
    </g>
  </g>
</svg>
