<?xml version="1.0" encoding="UTF-8" standalone="no"?>
<!-- Created with Inkscape (http://www.inkscape.org/) -->

<svg
   width="277.62946mm"
   height="132.55983mm"
   viewBox="0 0 277.62946 132.55983"
   version="1.1"
   id="svg1"
   inkscape:version="1.4.2 (f4327f4, 2025-05-13)"
   sodipodi:docname="wf_8steps_1.svg"
   xmlns:inkscape="http://www.inkscape.org/namespaces/inkscape"
   xmlns:sodipodi="http://sodipodi.sourceforge.net/DTD/sodipodi-0.dtd"
   xmlns="http://www.w3.org/2000/svg"
   xmlns:svg="http://www.w3.org/2000/svg">
  <sodipodi:namedview
     id="namedview1"
     pagecolor="#505050"
     bordercolor="#eeeeee"
     borderopacity="1"
     inkscape:showpageshadow="0"
     inkscape:pageopacity="0"
     inkscape:pagecheckerboard="0"
     inkscape:deskcolor="#505050"
     inkscape:document-units="mm"
     inkscape:zoom="1.0721378"
     inkscape:cx="382.41354"
     inkscape:cy="357.69657"
     inkscape:window-width="1920"
     inkscape:window-height="1111"
     inkscape:window-x="-9"
     inkscape:window-y="-9"
     inkscape:window-maximized="1"
     inkscape:current-layer="layer1">
    <inkscape:page
       x="0"
       y="0"
       width="277.62946"
       height="132.55983"
       id="page2"
       margin="0"
       bleed="0" />
  </sodipodi:namedview>
  <defs
     id="defs1" />
  <g
     inkscape:label="Layer 1"
     inkscape:groupmode="layer"
     id="layer1"
     transform="translate(-52.385646,-1015.5812)">
    <path
       d="m 115.91428,1023.1882 c 5.26045,0 9.52474,4.2643 9.52474,9.5248 0,5.2604 -4.26429,9.5247 -9.52474,9.5247 -5.26044,0 -9.52473,-4.2643 -9.52473,-9.5247 0.006,-5.2578 4.26693,-9.5187 9.52473,-9.5248 m 0,-0.5294 c -5.55281,0 -10.05416,4.5014 -10.05416,10.0542 0,5.5528 4.50135,10.0541 10.05416,10.0541 5.55281,0 10.05417,-4.5013 10.05417,-10.0541 0.003,-5.5502 -4.49448,-10.0515 -10.04464,-10.0542 -0.003,0 -0.006,0 -0.01,0 z"
       fill="#213c5d"
       fill-rule="evenodd"
       id="path760"
       style="fill:#808080;stroke-width:0.264583" />
    <path
       d="m 113.26898,1036.9445 v -0.3406 c -0.006,-0.3452 0.0386,-0.6897 0.13388,-1.021 0.0915,-0.2905 0.2331,-0.562 0.41751,-0.8017 0.21855,-0.2796 0.46699,-0.5334 0.7403,-0.7567 0.30269,-0.2524 0.6731,-0.5416 1.10094,-0.8599 0.29051,-0.2185 0.55297,-0.4334 0.77972,-0.6384 0.21564,-0.1921 0.40958,-0.4085 0.57838,-0.6448 0.15372,-0.2183 0.27385,-0.4596 0.3564,-0.7154 0.0833,-0.2723 0.12435,-0.5562 0.12117,-0.8417 0.004,-0.2704 -0.0405,-0.5395 -0.13229,-0.7932 -0.16086,-0.4482 -0.51223,-0.7964 -0.95435,-0.9459 -0.23707,-0.081 -0.48577,-0.1209 -0.73581,-0.1183 -0.40878,6e-4 -0.81121,0.1019 -1.17395,0.2959 -0.32094,0.1711 -0.61939,0.3839 -0.88794,0.6323 v -0.645 c 0.29104,-0.24 0.61462,-0.435 0.9607,-0.5792 0.38682,-0.1516 0.79798,-0.2262 1.21179,-0.2202 0.0672,0 0.13414,0 0.20082,0.012 0.0664,0.01 0.13229,0.021 0.19711,0.037 0.27702,0.028 0.54716,0.1053 0.79825,0.2279 0.22913,0.1129 0.43524,0.2693 0.60775,0.4609 0.17171,0.1955 0.30427,0.4238 0.38973,0.6717 0.0952,0.28 0.14235,0.575 0.13864,0.8716 0.005,0.3421 -0.0434,0.6831 -0.14261,1.0099 -0.0937,0.2937 -0.23124,0.5707 -0.40772,0.8213 -0.18706,0.2624 -0.4027,0.5021 -0.64241,0.7149 -0.25215,0.2256 -0.5379,0.4566 -0.84958,0.6842 -0.35083,0.2593 -0.6559,0.4921 -0.90725,0.6913 -0.22649,0.176 -0.43948,0.3699 -0.63685,0.5797 -0.1577,0.167 -0.28999,0.3572 -0.39265,0.5644 -0.0929,0.196 -0.15742,0.4048 -0.19208,0.6196 -0.01,0.067 -0.0153,0.1268 -0.0225,0.1924 -0.007,0.068 -0.01,0.1368 -0.01,0.2053 v 0.094 h 4.38097 v 0.5374 z"
       fill="#213c5d"
       fill-rule="evenodd"
       id="path761"
       style="fill:#808080;stroke-width:0.264583" />
    <text
       fill="#213c5d"
       font-family="'Roboto Light', 'Roboto Light_MSFontService', sans-serif"
       font-weight="300"
       font-size="7.14375px"
       id="text763"
       x="108.13817"
       y="1050.9692"
       style="fill:#808080;stroke-width:0.264583">Build</text>
    <text
       fill="#213c5d"
       font-family="'Roboto Light', 'Roboto Light_MSFontService', sans-serif"
       font-weight="300"
       font-size="7.14375px"
       id="text764"
       x="106.17496"
       y="1059.4359"
       style="fill:#808080;stroke-width:0.264583">Model</text>
    <path
       d="m 91.486165,1112.3523 c 5.26071,0 9.526595,4.2616 9.528175,9.5223 0.002,5.2608 -4.261645,9.5266 -9.522355,9.5282 -5.26071,0 -9.52632,-4.2616 -9.52818,-9.5223 0,-10e-4 0,0 0,0 0.005,-5.2573 4.26509,-9.5181 9.52236,-9.525 m 0,-0.5289 c -5.55281,0 -10.05549,4.4984 -10.05708,10.0512 -0.002,5.5528 4.49845,10.0555 10.05126,10.0571 5.55281,0 10.055495,-4.4984 10.057075,-10.0512 0,-10e-4 0,0 0,0 0.003,-5.5497 -4.493685,-10.051 -10.043315,-10.0539 -0.003,0 -0.005,0 -0.008,0 z"
       fill="#213c5d"
       fill-rule="evenodd"
       id="path764"
       style="fill:#808080;stroke-width:0.264583" />
    <path
       d="m 91.221845,1126.1098 c -0.78158,0.024 -1.51765,-0.3627 -1.9386,-1.0173 -0.24659,-0.3818 -0.42439,-0.8033 -0.52546,-1.2454 -0.12939,-0.5569 -0.1913,-1.1271 -0.18442,-1.6989 -0.007,-0.7009 0.0746,-1.3999 0.24315,-2.0807 0.13759,-0.5656 0.37227,-1.1035 0.69401,-1.5898 0.27834,-0.4157 0.65061,-0.761 1.08717,-1.0081 0.44132,-0.2394 0.93768,-0.3612 1.44039,-0.3532 0.44106,-0.011 0.88053,0.058 1.29619,0.205 v 0.5776 c -0.4056,-0.182 -0.84561,-0.2759 -1.29063,-0.2751 -0.41514,-0.01 -0.82418,0.1008 -1.18401,0.3066 -0.36143,0.2135 -0.66755,0.5088 -0.8935,0.8612 -0.25876,0.4059 -0.44821,0.8515 -0.56065,1.3184 -0.13547,0.552 -0.20109,1.1182 -0.19553,1.686 v 0.092 h 0.17542 l 0.0267,-0.053 c 0.35322,-0.8028 1.1729,-1.3013 2.05317,-1.2483 0.33919,-0.01 0.67548,0.062 0.98663,0.196 0.2876,0.127 0.54451,0.3135 0.75406,0.5466 0.21511,0.2445 0.38021,0.5284 0.48578,0.8356 0.11773,0.3426 0.17621,0.7027 0.1725,1.0647 0.004,0.3958 -0.0624,0.7892 -0.19685,1.162 -0.12118,0.335 -0.30744,0.6435 -0.54795,0.9073 -0.23495,0.2532 -0.51964,0.4559 -0.83661,0.5956 -0.33443,0.1452 -0.69612,0.2182 -1.06098,0.2145 z m 0.0624,-5.013 c -0.27675,0 -0.55033,0.056 -0.80221,0.1693 -0.24078,0.1082 -0.45747,0.2625 -0.63818,0.454 -0.17833,0.1905 -0.31962,0.4123 -0.41672,0.6538 -0.0995,0.245 -0.15055,0.5067 -0.15002,0.771 -0.002,0.3188 0.046,0.6361 0.14129,0.9406 0.0865,0.2815 0.22251,0.5456 0.40137,0.7803 0.16881,0.2204 0.38259,0.4029 0.62733,0.5357 0.25109,0.1342 0.53208,0.203 0.81677,0.2001 0.54451,0.01 1.06336,-0.2286 1.41367,-0.6422 0.17674,-0.2103 0.31326,-0.4511 0.40296,-0.7101 0.0995,-0.2876 0.14869,-0.59 0.14552,-0.894 0.003,-0.3112 -0.0418,-0.6213 -0.13282,-0.9192 -0.0791,-0.2609 -0.20876,-0.504 -0.3818,-0.7152 -0.16615,-0.1979 -0.37518,-0.3553 -0.61145,-0.4611 -0.25691,-0.1117 -0.53525,-0.1673 -0.81571,-0.163 z"
       fill="#213c5d"
       fill-rule="evenodd"
       id="path765"
       style="fill:#808080;stroke-width:0.264583" />
    <g
       id="g768"
       transform="translate(3.6155798,335.92203)">
      <path
         d="m 215.24561,731.71621 c 5.26044,0 9.52473,4.26429 9.52473,9.52473 0,5.26045 -4.26429,9.52474 -9.52473,9.52474 -5.26045,0 -9.52474,-4.26429 -9.52474,-9.52474 0.006,-5.2578 4.26694,-9.51865 9.52474,-9.52473 m 0,-0.52943 c -5.55282,0 -10.05417,4.50135 -10.05417,10.05416 0,5.55281 4.50135,10.05417 10.05417,10.05417 5.55281,0 10.05416,-4.50136 10.05416,-10.05417 0.003,-5.55016 -4.49448,-10.05152 -10.04464,-10.05416 -0.003,0 -0.006,0 -0.01,0 z"
         fill="#213c5d"
         fill-rule="evenodd"
         id="path766"
         style="fill:#808080;stroke-width:0.264583" />
      <path
         d="m 214.459,745.7378 c -0.64664,0.0148 -1.28667,-0.13599 -1.85923,-0.43815 v -0.64638 c 0.5588,0.37174 1.21312,0.57415 1.88384,0.58235 0.28125,8e-4 0.56118,-0.0357 0.8329,-0.10821 0.25982,-0.0685 0.5043,-0.186 0.71993,-0.34661 0.21247,-0.16139 0.38524,-0.36909 0.50509,-0.60748 0.1323,-0.27437 0.19712,-0.57653 0.18945,-0.88106 0.0336,-0.57627 -0.22596,-1.1303 -0.68977,-1.47267 -0.44794,-0.32385 -1.11152,-0.48763 -1.97115,-0.48763 h -0.61198 v -0.50192 h 0.55668 c 0.78291,0 1.38377,-0.15848 1.78568,-0.47545 0.41777,-0.34026 0.6469,-0.86096 0.61595,-1.39965 0.0304,-0.46699 -0.13547,-0.92551 -0.45747,-1.26444 -0.3765,-0.31724 -0.86122,-0.47493 -1.35175,-0.43974 -0.5932,0.0108 -1.17026,0.19447 -1.66159,0.52811 v -0.57124 c 0.56251,-0.30241 1.19036,-0.46169 1.82827,-0.4646 0.29634,-8e-4 0.59108,0.0415 0.87524,0.12594 0.26379,0.077 0.51012,0.20505 0.72496,0.37676 0.20797,0.17013 0.37651,0.38339 0.49398,0.62521 0.12832,0.27464 0.19129,0.57494 0.18441,0.87789 0,1.14829 -0.55165,1.8624 -1.68618,2.18281 l -0.0672,0.0188 v 0.17727 l 0.082,0.01 c 0.26961,0.0299 0.53314,0.0995 0.78237,0.20664 0.2331,0.10001 0.44583,0.24235 0.6268,0.42042 0.17913,0.17912 0.32121,0.39211 0.41831,0.62653 0.10504,0.2585 0.15716,0.53578 0.15319,0.81492 0.007,0.37253 -0.0701,0.74189 -0.22542,1.08029 -0.14499,0.30665 -0.35587,0.57706 -0.61754,0.79243 -0.27384,0.22119 -0.58711,0.38788 -0.9234,0.49133 -0.36777,0.11404 -0.75115,0.17092 -1.13638,0.16801 z"
         fill="#213c5d"
         fill-rule="evenodd"
         id="path767"
         style="fill:#808080;stroke-width:0.264583" />
      <text
         fill="#213c5d"
         font-family="'Roboto Light', 'Roboto Light_MSFontService', sans-serif"
         font-weight="300"
         font-size="7.14375px"
         id="text767"
         x="204.10056"
         y="759.2326"
         style="fill:#808080;stroke-width:0.264583">Specify</text>
      <text
         fill="#213c5d"
         font-family="'Roboto Light', 'Roboto Light_MSFontService', sans-serif"
         font-weight="300"
         font-size="7.14375px"
         id="text768"
         x="205.82034"
         y="767.69928"
         style="fill:#808080;stroke-width:0.264583">Model</text>
    </g>
    <g
       id="g770"
       transform="translate(18.948332,335.92203)">
      <path
         d="m 148.8352,731.71621 c 5.26045,0 9.52472,4.26429 9.52472,9.52473 0,5.26045 -4.26427,9.52474 -9.52472,9.52474 -5.26045,0 -9.52474,-4.26429 -9.52474,-9.52474 0.006,-5.2578 4.26694,-9.51865 9.52474,-9.52473 m 0,-0.52943 c -5.55281,0 -10.05417,4.50135 -10.05417,10.05416 0,5.55281 4.50136,10.05417 10.05417,10.05417 5.55281,0 10.05416,-4.50136 10.05416,-10.05417 0.003,-5.55016 -4.49447,-10.05152 -10.04464,-10.05416 -0.003,0 -0.006,0 -0.01,0 z"
         fill="#213c5d"
         fill-rule="evenodd"
         id="path768"
         style="fill:#808080;stroke-width:0.264583" />
      <path
         d="m 149.52708,745.47428 v -2.21351 h -4.13146 v -0.60351 c 0.37332,-0.42439 0.76279,-0.90197 1.15173,-1.40044 0.39396,-0.50615 0.77681,-1.0287 1.13771,-1.55284 0.36089,-0.52441 0.69797,-1.04907 1.00144,-1.55972 0.272,-0.45376 0.52123,-0.92154 0.74639,-1.40123 h 0.68527 v 5.98196 h 1.36287 v 0.53578 h -1.36287 v 2.21351 z m -0.16959,-7.5954 c -0.29713,0.52467 -0.59717,1.02209 -0.89165,1.47823 -0.29422,0.45614 -0.58235,0.88186 -0.85857,1.27132 -0.27623,0.38947 -0.54346,0.74877 -0.79455,1.06892 -0.25109,0.32014 -0.48524,0.61463 -0.69585,0.87551 l -0.12197,0.15134 v 0 h 3.53218 v -5.1443 0 z"
         fill="#213c5d"
         fill-rule="evenodd"
         id="path769"
         style="fill:#808080;stroke-width:0.264583" />
      <text
         fill="#213c5d"
         font-family="'Roboto Light', 'Roboto Light_MSFontService', sans-serif"
         font-weight="300"
         font-size="7.14375px"
         id="text769"
         x="140.5024"
         y="759.2326"
         style="fill:#808080;stroke-width:0.264583">Scale</text>
      <text
         fill="#213c5d"
         font-family="'Roboto Light', 'Roboto Light_MSFontService', sans-serif"
         font-weight="300"
         font-size="7.14375px"
         id="text770"
         x="139.31178"
         y="767.69928"
         style="fill:#808080;stroke-width:0.264583">Model</text>
    </g>
    <g
       id="g772"
       transform="translate(-10.200356,291.20745)">
      <path
         d="m 127.02678,776.43079 c 5.26045,0 9.52474,4.26429 9.52474,9.52474 0,5.26044 -4.26429,9.52473 -9.52474,9.52473 -5.26044,0 -9.52473,-4.26429 -9.52473,-9.52473 0.006,-5.2578 4.26693,-9.51865 9.52473,-9.52474 m 0,-0.52943 c -5.55281,0 -10.05416,4.50136 -10.05416,10.05417 0,5.55281 4.50135,10.05416 10.05416,10.05416 5.55281,0 10.05417,-4.50135 10.05417,-10.05416 0.003,-5.55017 -4.49448,-10.05153 -10.04464,-10.05417 -0.003,0 -0.006,0 -0.01,0 z"
         fill="#213c5d"
         fill-rule="evenodd"
         id="path770"
         style="fill:#808080;stroke-width:0.264583" />
      <path
         d="m 126.51799,790.18568 c -0.55219,0.0233 -1.10226,-0.0815 -1.60787,-0.30665 v -0.64188 c 0.49847,0.2921 1.06283,0.44979 1.63882,0.45853 0.31486,0.004 0.62813,-0.0474 0.92552,-0.15188 0.26432,-0.0942 0.50667,-0.24235 0.71173,-0.43524 0.19817,-0.19076 0.35295,-0.42253 0.45402,-0.67971 0.10742,-0.27755 0.16087,-0.57335 0.15769,-0.87127 0.0352,-0.58235 -0.19235,-1.14962 -0.61912,-1.54226 -0.40614,-0.3511 -1.00754,-0.52917 -1.78806,-0.52917 -0.2876,0 -0.6985,0.0217 -1.22131,0.0651 l 0.25426,-4.09363 h 3.60389 v 0.52678 h -3.11388 l -0.19394,3.03107 0.10319,-0.008 c 0.3466,-0.0241 0.62521,-0.0362 0.82814,-0.0362 0.40323,-0.007 0.80513,0.0526 1.18957,0.17568 0.31777,0.10346 0.61066,0.27332 0.85937,0.49821 0.2331,0.21723 0.41354,0.48604 0.52705,0.78529 0.12515,0.33893 0.18653,0.6985 0.18071,1.06018 0.004,0.37677 -0.0611,0.75115 -0.19368,1.10331 -0.12223,0.32042 -0.31273,0.60987 -0.55827,0.84747 -0.26061,0.24421 -0.56912,0.43074 -0.9054,0.54742 -0.39661,0.13626 -0.8136,0.20293 -1.23243,0.19658 z"
         fill="#213c5d"
         fill-rule="evenodd"
         id="path771"
         style="fill:#808080;stroke-width:0.264583" />
      <text
         fill="#213c5d"
         font-family="'Roboto Light', 'Roboto Light_MSFontService', sans-serif"
         font-weight="300"
         font-size="7.14375px"
         id="text771"
         x="114.48738"
         y="803.68262"
         style="fill:#808080;stroke-width:0.264583">Initialize</text>
      <text
         fill="#213c5d"
         font-family="'Roboto Light', 'Roboto Light_MSFontService', sans-serif"
         font-weight="300"
         font-size="7.14375px"
         id="text772"
         x="117.50706"
         y="812.14929"
         style="fill:#808080;stroke-width:0.264583">Model</text>
    </g>
    <text
       fill="#213c5d"
       font-family="'Roboto Light', 'Roboto Light_MSFontService', sans-serif"
       font-weight="300"
       font-size="7.14375px"
       id="text773"
       x="82.865494"
       y="1139.6046"
       style="fill:#808080;stroke-width:0.264583">Solve</text>
    <text
       fill="#213c5d"
       font-family="'Roboto Light', 'Roboto Light_MSFontService', sans-serif"
       font-weight="300"
       font-size="7.14375px"
       id="text774"
       x="81.651855"
       y="1148.0713"
       style="fill:#808080;stroke-width:0.264583">Model</text>
    <text
       fill="#213c5d"
       font-family="'Roboto Light', 'Roboto Light_MSFontService', sans-serif"
       font-weight="300"
       font-size="5.55625px"
       id="text775"
       x="152.22014"
       y="1042.2379"
       style="fill:#808080;stroke-width:0.264583">Create</text>
    <text
       fill="#213c5d"
       font-family="'Roboto Light', 'Roboto Light_MSFontService', sans-serif"
       font-weight="300"
       font-size="5.55625px"
       id="text776"
       x="144.01805"
       y="1049.1172"
       style="fill:#808080;stroke-width:0.264583">Model Object</text>
    <text
       fill="#213c5d"
       font-family="'Roboto Light', 'Roboto Light_MSFontService', sans-serif"
       font-weight="300"
       font-size="5.55625px"
       id="text777"
       x="176.87375"
       y="1019.7484"
       style="fill:#808080;stroke-width:0.264583">Add Flowsheet</text>
    <text
       fill="#213c5d"
       font-family="'Roboto Light', 'Roboto Light_MSFontService', sans-serif"
       font-weight="300"
       font-size="5.55625px"
       id="text778"
       x="184.32626"
       y="1026.6276"
       style="fill:#808080;stroke-width:0.264583">to Model</text>
    <text
       fill="#213c5d"
       font-family="'Roboto Light', 'Roboto Light_MSFontService', sans-serif"
       font-weight="300"
       font-size="5.55625px"
       id="text779"
       x="202.05917"
       y="1042.2379"
       style="fill:#808080;stroke-width:0.264583">Add Property Packages</text>
    <text
       fill="#213c5d"
       font-family="'Roboto Light', 'Roboto Light_MSFontService', sans-serif"
       font-weight="300"
       font-size="5.55625px"
       id="text780"
       x="214.97957"
       y="1049.1172"
       style="fill:#808080;stroke-width:0.264583">to Flowsheet</text>
    <path
       d="m 75.168451,1032.7516 30.683199,-0.039"
       stroke="#213c5d"
       stroke-width="0.529167"
       stroke-miterlimit="8"
       fill="none"
       fill-rule="evenodd"
       id="path780"
       style="stroke:#808080" />
    <path
       d="m 157.71845,1032.5807 c 0,-1.3883 1.12527,-2.5136 2.51354,-2.5136 1.38827,0 2.51354,1.1253 2.51354,2.5136 0,1.3883 -1.12527,2.5135 -2.51354,2.5135 -1.38827,0 -2.51354,-1.1252 -2.51354,-2.5135 z"
       stroke="#213c5d"
       stroke-width="0.529167"
       stroke-miterlimit="8"
       fill="#ffffff"
       fill-rule="evenodd"
       id="path781"
       style="fill:none;stroke:#808080" />
    <path
       d="m 192.64345,1032.5807 c 0,-1.3883 1.12527,-2.5136 2.51354,-2.5136 1.38827,0 2.51354,1.1253 2.51354,2.5136 0,1.3883 -1.12527,2.5135 -2.51354,2.5135 -1.38827,0 -2.51354,-1.1252 -2.51354,-2.5135 z"
       stroke="#213c5d"
       stroke-width="0.529167"
       stroke-miterlimit="8"
       fill="#ffffff"
       fill-rule="evenodd"
       id="path782"
       style="fill:none;stroke:#808080" />
    <path
       d="m 227.56845,1032.5807 c 0,-1.3883 1.12527,-2.5136 2.51354,-2.5136 1.38827,0 2.51354,1.1253 2.51354,2.5136 0,1.3883 -1.12527,2.5135 -2.51354,2.5135 -1.38827,0 -2.51354,-1.1252 -2.51354,-2.5135 z"
       stroke="#213c5d"
       stroke-width="0.529167"
       stroke-miterlimit="8"
       fill="#ffffff"
       fill-rule="evenodd"
       id="path783"
       style="fill:none;stroke:#808080" />
    <path
       d="m 262.49345,1032.5807 c 0,-1.3883 1.18454,-2.5136 2.64583,-2.5136 1.46129,0 2.64583,1.1253 2.64583,2.5136 0,1.3883 -1.18454,2.5135 -2.64583,2.5135 -1.46129,0 -2.64583,-1.1252 -2.64583,-2.5135 z"
       stroke="#213c5d"
       stroke-width="0.529167"
       stroke-miterlimit="8"
       fill="#ffffff"
       fill-rule="evenodd"
       id="path784"
       style="fill:none;stroke:#808080" />
    <text
       fill="#213c5d"
       font-family="'Roboto Light', 'Roboto Light_MSFontService', sans-serif"
       font-weight="300"
       font-size="5.55625px"
       id="text784"
       x="244.80132"
       y="1020.2775"
       style="fill:#808080;stroke-width:0.264583">Add Unit Models</text>
    <text
       fill="#213c5d"
       font-family="'Roboto Light', 'Roboto Light_MSFontService', sans-serif"
       font-weight="300"
       font-size="5.55625px"
       id="text785"
       x="249.21111"
       y="1027.1567"
       style="fill:#808080;stroke-width:0.264583">to Flowsheet</text>
    <path
       d="m 82.895821,1077.0332 c -12.41949,-0.1757 -22.630285,9.7201 -22.806497,22.1029 -0.171715,12.0737 9.276287,22.1148 21.372037,22.7137"
       stroke="#213c5d"
       stroke-width="0.529167"
       stroke-miterlimit="8"
       fill="none"
       fill-rule="evenodd"
       id="path785"
       style="stroke:#808080" />
    <path
       d="m 125.96845,1032.7688 31.83308,-0.056"
       stroke="#213c5d"
       stroke-width="0.529167"
       stroke-miterlimit="8"
       fill="none"
       fill-rule="evenodd"
       id="path786"
       style="stroke:#808080" />
    <path
       d="m 162.74553,1032.7847 29.81801,-0.072"
       stroke="#213c5d"
       stroke-width="0.529167"
       stroke-miterlimit="8"
       fill="none"
       fill-rule="evenodd"
       id="path787"
       style="stroke:#808080" />
    <path
       d="m 197.67053,1032.713 h 29.85849"
       stroke="#213c5d"
       stroke-width="0.529167"
       stroke-miterlimit="8"
       fill="none"
       fill-rule="evenodd"
       id="path788"
       style="fill:#808080;stroke:#808080" />
    <path
       d="m 232.59553,1032.713 h 29.92834"
       stroke="#213c5d"
       stroke-width="0.529167"
       stroke-miterlimit="8"
       fill="none"
       fill-rule="evenodd"
       id="path789"
       style="fill:#808080;stroke:#808080" />
    <path
       d="m 302.54786,1112.3523 c 5.25992,0 9.52765,4.2616 9.52765,9.5224 0.003,5.2607 -4.2598,9.5265 -9.52236,9.5281 -5.25992,0 -9.525,-4.2616 -9.52764,-9.5223 0,-10e-4 0,0 0,0 0.005,-5.2573 4.26508,-9.5181 9.52235,-9.525 m 0,-0.5289 c -5.5536,0 -10.05417,4.4984 -10.05681,10.0512 -0.003,5.5528 4.49791,10.0555 10.05152,10.0571 5.5536,0 10.05416,-4.4984 10.05681,-10.0512 0,-10e-4 0,0 0,0 0.003,-5.5497 -4.49262,-10.051 -10.04358,-10.0539 -0.003,0 -0.005,0 -0.008,0 z"
       fill="#213c5d"
       fill-rule="evenodd"
       id="path790"
       style="fill:#808080;stroke-width:0.264583" />
    <path
       d="m 302.67486,1126.1106 c -0.381,0 -0.762,-0.056 -1.12183,-0.1772 -0.3228,-0.1101 -0.62177,-0.2816 -0.87313,-0.5046 -0.24871,-0.2225 -0.4445,-0.4929 -0.57414,-0.7935 -0.14288,-0.3347 -0.21167,-0.6932 -0.20638,-1.0541 0,-0.2296 0.037,-0.4577 0.10583,-0.6773 0.0714,-0.2247 0.17992,-0.4376 0.3175,-0.6311 0.14817,-0.2018 0.32544,-0.3823 0.52652,-0.5349 0.21696,-0.1636 0.45773,-0.2927 0.71967,-0.3824 l 0.20373,-0.072 -0.19315,-0.097 c -0.38629,-0.1849 -0.71966,-0.459 -0.96572,-0.7974 -0.23548,-0.322 -0.35984,-0.7054 -0.35719,-1.0978 -0.003,-0.2982 0.0609,-0.594 0.18256,-0.8678 0.11906,-0.2593 0.29104,-0.4932 0.508,-0.6877 0.22225,-0.1987 0.48154,-0.3534 0.76729,-0.4561 0.62706,-0.2204 1.31498,-0.2193 1.9394,0 0.2831,0.1043 0.54504,0.2601 0.76994,0.4585 0.21431,0.194 0.38364,0.4281 0.5027,0.6877 0.11907,0.2725 0.17992,0.5659 0.17992,0.862 0,0.1966 -0.0317,0.3921 -0.0952,0.5794 -0.0609,0.1852 -0.14817,0.3609 -0.26194,0.5221 -0.11641,0.1645 -0.254,0.3138 -0.4101,0.4437 -0.16404,0.1357 -0.34396,0.2534 -0.53711,0.3508 l -0.18785,0.096 0.19844,0.072 c 0.25664,0.09 0.49477,0.2185 0.70644,0.3815 0.19843,0.1535 0.37041,0.3337 0.51593,0.535 0.13759,0.1942 0.24342,0.4072 0.31486,0.6318 0.0688,0.2196 0.10583,0.4477 0.10583,0.6774 0.005,0.3601 -0.0635,0.7178 -0.20373,1.0522 -0.127,0.3008 -0.32014,0.572 -0.56621,0.7954 -0.25135,0.2235 -0.55033,0.3952 -0.87312,0.5048 -0.36777,0.1217 -0.75142,0.182 -1.13771,0.1778 z m 0,-4.5561 c -0.2831,0 -0.56621,0.048 -0.82815,0.1492 -0.24606,0.095 -0.47095,0.2368 -0.66145,0.416 -0.18786,0.1825 -0.33603,0.3997 -0.43392,0.6387 -0.10583,0.2577 -0.15875,0.5323 -0.15611,0.8093 -0.005,0.2829 0.045,0.5641 0.14817,0.8295 0.0926,0.2405 0.23813,0.4593 0.42598,0.6429 0.18785,0.1802 0.41275,0.3207 0.65881,0.4122 0.26988,0.098 0.55827,0.1464 0.84667,0.1429 0.28575,0 0.56885,-0.047 0.83608,-0.146 0.24607,-0.092 0.47096,-0.2323 0.66146,-0.4109 0.18786,-0.1826 0.33602,-0.3998 0.43392,-0.6385 0.10583,-0.2651 0.15875,-0.5471 0.15346,-0.831 0.003,-0.2649 -0.0476,-0.5276 -0.14817,-0.7745 -0.0952,-0.2383 -0.23813,-0.4569 -0.42069,-0.6434 -0.18521,-0.1871 -0.4101,-0.3358 -0.65881,-0.4371 -0.26988,-0.1088 -0.56356,-0.163 -0.85725,-0.1593 z m 0,-3.9359 c -0.24342,-10e-4 -0.48683,0.044 -0.70908,0.1341 -0.21167,0.086 -0.40217,0.2125 -0.56092,0.3717 -0.1561,0.1593 -0.28046,0.3464 -0.35983,0.5509 -0.0847,0.2125 -0.127,0.4382 -0.127,0.6657 0,0.2312 0.045,0.4604 0.13758,0.6739 0.0873,0.2035 0.21431,0.3884 0.37835,0.5445 0.1614,0.1537 0.3519,0.277 0.56092,0.3635 0.43656,0.1794 0.93398,0.1794 1.37319,0 0.20902,-0.087 0.39952,-0.2114 0.56091,-0.3669 0.1614,-0.1575 0.29105,-0.3429 0.381,-0.5464 0.0926,-0.2114 0.14023,-0.4389 0.14023,-0.6686 0,-0.2334 -0.045,-0.4646 -0.13758,-0.6802 -0.0873,-0.2032 -0.21431,-0.3887 -0.37306,-0.5464 -0.1614,-0.1572 -0.3519,-0.2813 -0.56356,-0.3651 -0.22225,-0.087 -0.46038,-0.1318 -0.70115,-0.1307 z"
       fill="#213c5d"
       fill-rule="evenodd"
       id="path791"
       style="fill:#808080;stroke-width:0.264583" />
    <path
       d="m 146.90139,1112.3523 c 5.26071,0 9.52659,4.2616 9.52817,9.5224 0.002,5.2607 -4.26164,9.5265 -9.52235,9.5281 -5.26071,0 -9.52632,-4.2616 -9.52818,-9.5223 0,-10e-4 0,0 0,0 0.005,-5.2573 4.26509,-9.5181 9.52236,-9.525 m 0,-0.5289 c -5.55281,0 -10.05549,4.4984 -10.05708,10.0512 -0.002,5.5528 4.49845,10.0555 10.05126,10.0571 5.55281,0 10.05549,-4.4984 10.05707,-10.0512 0,-10e-4 0,0 0,0 0.003,-5.5497 -4.49368,-10.051 -10.04331,-10.0539 -0.003,0 -0.005,0 -0.008,0 z"
       fill="#213c5d"
       fill-rule="evenodd"
       id="path792"
       style="fill:#808080;stroke-width:0.264583" />
    <path
       d="m 145.92137,1126.3755 c 0.10822,-0.6321 0.25823,-1.2568 0.44926,-1.8704 0.2085,-0.6741 0.46064,-1.3639 0.7493,-2.0494 0.28866,-0.6856 0.61754,-1.3851 0.97764,-2.0767 0.3601,-0.6917 0.74083,-1.3817 1.1393,-2.0603 l 0.0823,-0.1387 h -4.80192 v -0.5358 h 5.55625 v 0.226 c -0.32623,0.5628 -0.63103,1.1086 -0.90541,1.6089 -0.27993,0.5128 -0.54028,1.0142 -0.77364,1.4896 -0.2331,0.4755 -0.44847,0.947 -0.63579,1.3917 -0.18733,0.4445 -0.35878,0.8991 -0.50694,1.3436 -0.14817,0.4442 -0.2794,0.9019 -0.38815,1.3504 -0.10345,0.4271 -0.19367,0.8713 -0.26828,1.3211 z"
       fill="#213c5d"
       fill-rule="evenodd"
       id="path793"
       style="fill:#808080;stroke-width:0.264583" />
    <text
       fill="#213c5d"
       font-family="'Roboto Light', 'Roboto Light_MSFontService', sans-serif"
       font-weight="300"
       font-size="7.14375px"
       id="text793"
       x="133.2682"
       y="1139.6046"
       style="fill:#808080;stroke-width:0.264583">Optimize</text>
    <text
       fill="#213c5d"
       font-family="'Roboto Light', 'Roboto Light_MSFontService', sans-serif"
       font-weight="300"
       font-size="7.14375px"
       id="text794"
       x="137.39226"
       y="1148.0713"
       style="fill:#808080;stroke-width:0.264583">Model</text>
    <text
       fill="#213c5d"
       font-family="'Roboto Light', 'Roboto Light_MSFontService', sans-serif"
       font-weight="300"
       font-size="7.14375px"
       id="text795"
       x="275.44635"
       y="1139.6046"
       style="fill:#808080;stroke-width:0.264583">Analyze/Visualize</text>
    <text
       fill="#213c5d"
       font-family="'Roboto Light', 'Roboto Light_MSFontService', sans-serif"
       font-weight="300"
       font-size="7.14375px"
       id="text796"
       x="291.14435"
       y="1148.0713"
       style="fill:#808080;stroke-width:0.264583">Results</text>
    <path
       d="m 101.53742,1121.8774 35.3068,0.011"
       stroke="#213c5d"
       stroke-width="0.529167"
       stroke-miterlimit="8"
       fill="none"
       fill-rule="evenodd"
       id="path796"
       style="fill:#808080;stroke:#808080" />
    <text
       fill="#213c5d"
       font-family="'Roboto Light', 'Roboto Light_MSFontService', sans-serif"
       font-weight="300"
       font-size="5.55625px"
       id="text797"
       x="217.7274"
       y="821.47284"
       style="font-style:normal;font-variant:normal;font-weight:300;font-stretch:normal;font-family:Roboto;-inkscape-font-specification:'Roboto Light';text-align:center;text-anchor:middle;white-space:pre;inline-size:38.5909;display:inline;fill:#808080;stroke-width:0.264583"
       transform="translate(-28.101605,294.3853)"
       xml:space="preserve"><tspan
         x="217.7274"
         y="821.47284"
         id="tspan2">Unfix Variables</tspan></text>
    <g
       id="text798"
       style="font-weight:300;font-size:5.55625px;font-family:'Roboto Light', 'Roboto Light_MSFontService', sans-serif;white-space:pre;inline-size:39.2895;fill:#808080;stroke-width:0.264583"
       transform="translate(-42.883211,287.43996)"
       aria-label="Add Constraints and Objective">
      <path
         style="text-align:center;text-anchor:middle"
         d="m 250.41407,842.85549 h -1.7933 l -0.40695,1.10691 h -0.34998 l 1.49487,-3.95014 h 0.31742 l 1.49487,3.95014 h -0.34727 z m -1.69021,-0.28486 h 1.5844 l -0.7922,-2.15142 z m 2.82154,-0.1031 q 0,-0.68368 0.30385,-1.08792 0.30657,-0.40695 0.83019,-0.40695 0.59415,0 0.90614,0.46935 v -1.6468 h 0.32285 v 4.16719 h -0.30386 l -0.0136,-0.39067 q -0.312,0.44493 -0.917,0.44493 -0.50733,0 -0.81933,-0.40695 -0.30928,-0.40966 -0.30928,-1.1042 z m 0.32827,0.057 q 0,0.56159 0.22518,0.88715 0.22518,0.32285 0.63485,0.32285 0.59957,0 0.85188,-0.52904 v -1.37821 q -0.25231,-0.57244 -0.84646,-0.57244 -0.40966,0 -0.63756,0.32284 -0.22789,0.32014 -0.22789,0.94685 z m 2.75913,-0.057 q 0,-0.68368 0.30386,-1.08792 0.30657,-0.40695 0.83018,-0.40695 0.59415,0 0.90615,0.46935 v -1.6468 h 0.32285 v 4.16719 h -0.30386 l -0.0136,-0.39067 q -0.312,0.44493 -0.917,0.44493 -0.50734,0 -0.81933,-0.40695 -0.30929,-0.40966 -0.30929,-1.1042 z m 0.32828,0.057 q 0,0.56159 0.22518,0.88715 0.22518,0.32285 0.63484,0.32285 0.59958,0 0.85189,-0.52904 v -1.37821 q -0.25231,-0.57244 -0.84646,-0.57244 -0.40966,0 -0.63756,0.32284 -0.22789,0.32014 -0.22789,0.94685 z m 7.11352,0.20618 q -0.0678,0.624 -0.44765,0.95499 -0.37711,0.33098 -1.00653,0.33098 -0.4395,0 -0.77863,-0.21975 -0.33641,-0.21976 -0.5209,-0.62128 -0.18448,-0.40424 -0.1872,-0.92243 v -0.51276 q 0,-0.52632 0.18449,-0.93327 0.18448,-0.40695 0.52904,-0.62671 0.34726,-0.22246 0.79762,-0.22246 0.63485,0 1.0011,0.34455 0.36897,0.34184 0.42866,0.94684 h -0.33641 q -0.1248,-1.00653 -1.09335,-1.00653 -0.53718,0 -0.85731,0.40153 -0.31742,0.40152 -0.31742,1.10962 v 0.48292 q 0,0.68368 0.30928,1.09063 0.312,0.40695 0.84103,0.40695 0.52362,0 0.78949,-0.2496 0.26588,-0.25231 0.32828,-0.75422 z m 0.55617,-0.27944 q 0,-0.42323 0.16278,-0.76235 0.16549,-0.33913 0.46392,-0.52633 0.30115,-0.18991 0.68097,-0.18991 0.58601,0 0.94955,0.41238 0.36355,0.40967 0.36355,1.08792 v 0.0678 q 0,0.42595 -0.1655,0.76779 -0.16278,0.33912 -0.46121,0.52361 -0.29843,0.18448 -0.68097,0.18448 -0.58329,0 -0.94955,-0.40966 -0.36354,-0.41238 -0.36354,-1.09063 z m 0.32556,0.0895 q 0,0.52633 0.2713,0.86545 0.27401,0.33642 0.71623,0.33642 0.43951,0 0.71081,-0.33642 0.27402,-0.33912 0.27402,-0.89258 v -0.0624 q 0,-0.33641 -0.1248,-0.61585 -0.1248,-0.27944 -0.34998,-0.43137 -0.22518,-0.15464 -0.51547,-0.15464 -0.43408,0 -0.7081,0.34184 -0.27401,0.33913 -0.27401,0.88987 z m 3.2746,-1.51386 0.0109,0.50191 q 0.16549,-0.2713 0.41237,-0.41238 0.24689,-0.14379 0.54532,-0.14379 0.47206,0 0.70267,0.26588 0.23061,0.26587 0.23332,0.79762 v 1.92624 h -0.32285 v -1.92895 q -0.003,-0.39339 -0.16821,-0.58601 -0.16278,-0.19262 -0.52361,-0.19262 -0.30114,0 -0.53446,0.18991 -0.23061,0.18719 -0.34184,0.50733 v 2.01034 h -0.32285 v -2.93548 z m 4.50089,2.1894 q 0,-0.24145 -0.19534,-0.38796 -0.19262,-0.1465 -0.58329,-0.22789 -0.39068,-0.0841 -0.60772,-0.18991 -0.21433,-0.10852 -0.32013,-0.26316 -0.1031,-0.15464 -0.1031,-0.3744 0,-0.34726 0.29029,-0.57244 0.2903,-0.2279 0.74337,-0.2279 0.49106,0 0.78677,0.24417 0.29844,0.24146 0.29844,0.63214 h -0.32557 q 0,-0.25774 -0.21704,-0.42866 -0.21433,-0.17092 -0.5426,-0.17092 -0.32014,0 -0.51547,0.14379 -0.19263,0.14108 -0.19263,0.36897 0,0.21975 0.16007,0.34184 0.16278,0.11937 0.58873,0.21975 0.42865,0.10038 0.64027,0.21433 0.21432,0.11395 0.31742,0.27401 0.10309,0.16007 0.10309,0.38797 0,0.37168 -0.30114,0.59415 -0.29843,0.22246 -0.78135,0.22246 -0.51276,0 -0.83289,-0.24688 -0.31743,-0.2496 -0.31743,-0.62942 h 0.32557 q 0.019,0.28487 0.23874,0.44493 0.22247,0.15736 0.58601,0.15736 0.33913,0 0.54803,-0.14922 0.2089,-0.14921 0.2089,-0.37711 z m 1.55998,-2.9409 v 0.7515 h 0.60772 v 0.26588 h -0.60772 v 1.95608 q 0,0.24417 0.0868,0.36354 0.0895,0.11938 0.29572,0.11938 0.0814,0 0.26316,-0.0271 l 0.0136,0.26587 q -0.12751,0.0461 -0.34727,0.0461 -0.3337,0 -0.48563,-0.19262 -0.15193,-0.19534 -0.15193,-0.57245 v -1.95879 h -0.53989 v -0.26588 h 0.53989 v -0.7515 z m 2.63705,1.02823 q -0.10309,-0.019 -0.21975,-0.019 -0.30386,0 -0.51547,0.17092 -0.20891,0.16821 -0.29844,0.49105 v 2.01577 h -0.32284 v -2.93548 h 0.31742 l 0.005,0.46664 q 0.25774,-0.5209 0.82747,-0.5209 0.13565,0 0.21433,0.0353 z m 2.25723,2.65875 q -0.0488,-0.13836 -0.0624,-0.40966 -0.17092,0.22246 -0.43679,0.34455 -0.26317,0.11937 -0.55889,0.11937 -0.42323,0 -0.68639,-0.23603 -0.26045,-0.23603 -0.26045,-0.59686 0,-0.42866 0.35541,-0.67826 0.35812,-0.24959 0.99567,-0.24959 h 0.58873 v -0.3337 q 0,-0.31471 -0.19534,-0.49377 -0.19262,-0.18177 -0.56431,-0.18177 -0.33912,0 -0.56159,0.17363 -0.22247,0.17363 -0.22247,0.4178 l -0.32556,-0.003 q 0,-0.34998 0.32556,-0.605 0.32556,-0.25774 0.80034,-0.25774 0.49106,0 0.77321,0.24689 0.28487,0.24417 0.29301,0.68368 v 1.38906 q 0,0.42594 0.0895,0.63756 v 0.0326 z m -1.02009,-0.23332 q 0.32556,0 0.58058,-0.15735 0.25774,-0.15736 0.3744,-0.42052 v -0.6457 h -0.58059 q -0.48563,0.005 -0.75964,0.17906 -0.27402,0.17092 -0.27402,0.47207 0,0.24688 0.18178,0.40966 0.18448,0.16278 0.47749,0.16278 z m 2.50682,0.23332 h -0.32556 v -2.93548 h 0.32556 z m -0.38253,-3.78465 q 0,-0.0922 0.0597,-0.15464 0.0597,-0.0651 0.16278,-0.0651 0.1031,0 0.16278,0.0651 0.0624,0.0624 0.0624,0.15464 0,0.0922 -0.0624,0.15464 -0.0597,0.0624 -0.16278,0.0624 -0.10309,0 -0.16278,-0.0624 -0.0597,-0.0624 -0.0597,-0.15464 z m 1.57354,0.84917 0.0109,0.50191 q 0.1655,-0.2713 0.41238,-0.41238 0.24689,-0.14379 0.54532,-0.14379 0.47206,0 0.70267,0.26588 0.2306,0.26587 0.23332,0.79762 v 1.92624 h -0.32285 v -1.92895 q -0.003,-0.39339 -0.16821,-0.58601 -0.16278,-0.19262 -0.52361,-0.19262 -0.30114,0 -0.53446,0.18991 -0.23061,0.18719 -0.34184,0.50733 v 2.01034 h -0.32285 v -2.93548 z m 3.24748,-0.7515 v 0.7515 h 0.60771 v 0.26588 h -0.60771 v 1.95608 q 0,0.24417 0.0868,0.36354 0.0895,0.11938 0.29571,0.11938 0.0814,0 0.26317,-0.0271 l 0.0136,0.26587 q -0.12751,0.0461 -0.34726,0.0461 -0.33371,0 -0.48563,-0.19262 -0.15193,-0.19534 -0.15193,-0.57245 v -1.95879 h -0.53989 v -0.26588 h 0.53989 v -0.7515 z m 3.03857,2.9409 q 0,-0.24145 -0.19533,-0.38796 -0.19263,-0.1465 -0.5833,-0.22789 -0.39067,-0.0841 -0.60771,-0.18991 -0.21433,-0.10852 -0.32014,-0.26316 -0.10309,-0.15464 -0.10309,-0.3744 0,-0.34726 0.29029,-0.57244 0.29029,-0.2279 0.74336,-0.2279 0.49106,0 0.78678,0.24417 0.29843,0.24146 0.29843,0.63214 h -0.32556 q 0,-0.25774 -0.21704,-0.42866 -0.21433,-0.17092 -0.54261,-0.17092 -0.32013,0 -0.51547,0.14379 -0.19262,0.14108 -0.19262,0.36897 0,0.21975 0.16006,0.34184 0.16279,0.11937 0.58873,0.21975 0.42865,0.10038 0.64027,0.21433 0.21433,0.11395 0.31742,0.27401 0.1031,0.16007 0.1031,0.38797 0,0.37168 -0.30115,0.59415 -0.29843,0.22246 -0.78135,0.22246 -0.51276,0 -0.83289,-0.24688 -0.31742,-0.2496 -0.31742,-0.62942 h 0.32556 q 0.019,0.28487 0.23874,0.44493 0.22247,0.15736 0.58601,0.15736 0.33913,0 0.54803,-0.14922 0.2089,-0.14921 0.2089,-0.37711 z"
         id="path1" />
      <path
         style="text-align:center;text-anchor:middle"
         d="m 253.13658,850.90774 q -0.0488,-0.13836 -0.0624,-0.40967 -0.17092,0.22247 -0.4368,0.34456 -0.26316,0.11937 -0.55888,0.11937 -0.42323,0 -0.68639,-0.23603 -0.26045,-0.23603 -0.26045,-0.59687 0,-0.42865 0.35541,-0.67825 0.35811,-0.2496 0.99567,-0.2496 h 0.58873 v -0.3337 q 0,-0.31471 -0.19534,-0.49376 -0.19263,-0.18178 -0.56431,-0.18178 -0.33912,0 -0.56159,0.17364 -0.22247,0.17363 -0.22247,0.4178 l -0.32556,-0.003 q 0,-0.34998 0.32556,-0.605 0.32556,-0.25774 0.80034,-0.25774 0.49106,0 0.77321,0.24688 0.28487,0.24417 0.293,0.68368 v 1.38907 q 0,0.42594 0.0895,0.63755 v 0.0326 z m -1.02009,-0.23332 q 0.32556,0 0.58058,-0.15735 0.25774,-0.15736 0.3744,-0.42052 v -0.6457 h -0.58059 q -0.48563,0.005 -0.75964,0.17906 -0.27402,0.17092 -0.27402,0.47206 0,0.24689 0.18178,0.40967 0.18448,0.16278 0.47749,0.16278 z m 2.45256,-2.70216 0.0109,0.50191 q 0.16549,-0.2713 0.41238,-0.41238 0.24688,-0.14379 0.54531,-0.14379 0.47207,0 0.70267,0.26587 0.23061,0.26588 0.23332,0.79763 v 1.92624 h -0.32284 v -1.92895 q -0.003,-0.39339 -0.16821,-0.58601 -0.16278,-0.19263 -0.52361,-0.19263 -0.30115,0 -0.53447,0.18991 -0.2306,0.1872 -0.34184,0.50734 v 2.01034 h -0.32284 v -2.93548 z m 2.61263,1.44061 q 0,-0.68368 0.30386,-1.08792 0.30657,-0.40695 0.83018,-0.40695 0.59415,0 0.90615,0.46935 v -1.6468 h 0.32284 v 4.16719 h -0.30385 l -0.0136,-0.39067 q -0.31199,0.44493 -0.917,0.44493 -0.50733,0 -0.81933,-0.40695 -0.30928,-0.40967 -0.30928,-1.1042 z m 0.32827,0.057 q 0,0.5616 0.22519,0.88716 0.22518,0.32285 0.63484,0.32285 0.59958,0 0.85189,-0.52904 v -1.37821 q -0.25231,-0.57245 -0.84646,-0.57245 -0.40967,0 -0.63756,0.32285 -0.2279,0.32014 -0.2279,0.94684 z m 7.23561,-0.32285 q 0,0.54532 -0.18991,0.9577 -0.1872,0.41238 -0.53718,0.63484 -0.34998,0.22247 -0.80848,0.22247 -0.69181,0 -1.11776,-0.49377 -0.42594,-0.49648 -0.42594,-1.33751 v -0.40696 q 0,-0.53989 0.18991,-0.95498 0.19263,-0.4178 0.5426,-0.64027 0.34998,-0.22518 0.80577,-0.22518 0.45578,0 0.80305,0.21976 0.34998,0.21975 0.53989,0.62128 0.18991,0.40152 0.19805,0.93056 z m -0.3337,-0.42865 q 0,-0.71352 -0.32285,-1.11776 -0.32285,-0.40424 -0.88444,-0.40424 -0.55074,0 -0.87902,0.40695 -0.32556,0.40424 -0.32556,1.13133 v 0.41237 q 0,0.70267 0.32556,1.11505 0.32556,0.40967 0.88444,0.40967 0.56702,0 0.88445,-0.40424 0.31742,-0.40695 0.31742,-1.13133 z m 3.4618,0.7515 q 0,0.68639 -0.30385,1.09063 -0.30386,0.40153 -0.81662,0.40153 -0.61314,0 -0.92785,-0.45579 l -0.0136,0.40153 h -0.30385 v -4.16719 h 0.32284 v 1.65765 q 0.30929,-0.4802 0.917,-0.4802 0.5209,0 0.82205,0.39881 0.30385,0.3961 0.30385,1.1042 z m -0.32556,-0.057 q 0,-0.58059 -0.22518,-0.89529 -0.22518,-0.31743 -0.63484,-0.31743 -0.312,0 -0.52904,0.15464 -0.21704,0.15193 -0.32828,0.44765 v 1.32395 q 0.24418,0.55346 0.86274,0.55346 0.40153,0 0.62671,-0.31743 0.22789,-0.31742 0.22789,-0.94955 z m 1.39178,-1.44061 v 3.28546 q 0,0.40695 -0.19534,0.62128 -0.19534,0.21433 -0.57516,0.21433 -0.1465,0 -0.28486,-0.0516 l 0.005,-0.26859 q 0.11937,0.0353 0.24417,0.0353 0.48292,0 0.48292,-0.55617 v -3.28003 z m -0.16007,-1.06893 q 0.10581,0 0.16549,0.0651 0.0597,0.0624 0.0597,0.15465 0,0.0922 -0.0597,0.15464 -0.0597,0.0624 -0.16549,0.0624 -0.10309,0 -0.16278,-0.0624 -0.057,-0.0624 -0.057,-0.15464 0,-0.0923 0.057,-0.15465 0.0597,-0.0651 0.16278,-0.0651 z m 2.21382,4.05867 q -0.3744,0 -0.67826,-0.18449 -0.30114,-0.18448 -0.46935,-0.51275 -0.1682,-0.33099 -0.1682,-0.74066 v -0.11666 q 0,-0.42323 0.16278,-0.76235 0.16549,-0.33913 0.4585,-0.53175 0.293,-0.19534 0.63484,-0.19534 0.53446,0 0.84646,0.36626 0.31471,0.36354 0.31471,0.99567 v 0.18177 h -2.09445 v 0.0624 q 0,0.4992 0.28487,0.8329 0.28758,0.33099 0.72166,0.33099 0.26045,0 0.4585,-0.095 0.20076,-0.095 0.36354,-0.30386 l 0.20348,0.15464 q -0.35812,0.51819 -1.03908,0.51819 z m -0.0597,-2.76727 q -0.36626,0 -0.61857,0.26858 -0.24959,0.26859 -0.30385,0.72167 h 1.76074 v -0.0353 q -0.0136,-0.42323 -0.24146,-0.68911 -0.22789,-0.26587 -0.59686,-0.26587 z m 2.87851,2.49326 q 0.33913,0 0.56702,-0.18992 0.2306,-0.19262 0.2496,-0.49648 h 0.31199 q -0.0136,0.26859 -0.1682,0.49106 -0.15465,0.21975 -0.41238,0.34455 -0.25503,0.1248 -0.54803,0.1248 -0.57787,0 -0.917,-0.40153 -0.33641,-0.40152 -0.33641,-1.07978 v -0.0977 q 0,-0.43409 0.15193,-0.76779 0.15192,-0.3337 0.43408,-0.51547 0.28486,-0.18177 0.66469,-0.18177 0.48291,0 0.79491,0.28758 0.31471,0.28758 0.33641,0.75693 h -0.31199 q -0.0217,-0.34455 -0.2496,-0.55617 -0.22518,-0.21161 -0.56973,-0.21161 -0.43951,0 -0.68368,0.31742 -0.24146,0.31742 -0.24146,0.88987 v 0.095 q 0,0.5616 0.24146,0.87631 0.24417,0.31471 0.68639,0.31471 z m 2.28164,-3.46723 v 0.7515 h 0.60772 v 0.26587 h -0.60772 v 1.95609 q 0,0.24417 0.0868,0.36354 0.0895,0.11937 0.29572,0.11937 0.0814,0 0.26316,-0.0271 l 0.0136,0.26588 q -0.12751,0.0461 -0.34726,0.0461 -0.3337,0 -0.48563,-0.19262 -0.15193,-0.19534 -0.15193,-0.57245 v -1.9588 h -0.53989 v -0.26587 h 0.53989 v -0.7515 z m 1.64409,3.68698 h -0.32556 v -2.93548 h 0.32556 z m -0.38254,-3.78465 q 0,-0.0923 0.0597,-0.15465 0.0597,-0.0651 0.16278,-0.0651 0.10309,0 0.16278,0.0651 0.0624,0.0624 0.0624,0.15465 0,0.0922 -0.0624,0.15464 -0.0597,0.0624 -0.16278,0.0624 -0.10309,0 -0.16278,-0.0624 -0.0597,-0.0624 -0.0597,-0.15464 z m 2.17855,3.337 0.89258,-2.48783 h 0.3337 l -1.09605,2.93548 h -0.26316 l -1.10149,-2.93548 h 0.3337 z m 2.85952,0.50191 q -0.3744,0 -0.67826,-0.18449 -0.30114,-0.18448 -0.46935,-0.51275 -0.1682,-0.33099 -0.1682,-0.74066 v -0.11666 q 0,-0.42323 0.16278,-0.76235 0.16549,-0.33913 0.4585,-0.53175 0.293,-0.19534 0.63484,-0.19534 0.53446,0 0.84646,0.36626 0.31471,0.36354 0.31471,0.99567 v 0.18177 h -2.09445 v 0.0624 q 0,0.4992 0.28487,0.8329 0.28758,0.33099 0.72166,0.33099 0.26045,0 0.4585,-0.095 0.20076,-0.095 0.36354,-0.30386 l 0.20348,0.15464 q -0.35812,0.51819 -1.03908,0.51819 z m -0.0597,-2.76727 q -0.36626,0 -0.61857,0.26858 -0.24959,0.26859 -0.30385,0.72167 h 1.76074 v -0.0353 q -0.0136,-0.42323 -0.24146,-0.68911 -0.22789,-0.26587 -0.59686,-0.26587 z"
         id="path2" />
    </g>
    <path
       d="m 187.00117,1121.7451 c 0,-1.3883 1.12527,-2.5136 2.51354,-2.5136 1.38827,0 2.51354,1.1253 2.51354,2.5136 0,1.3883 -1.12527,2.5135 -2.51354,2.5135 -1.38827,0 -2.51354,-1.1252 -2.51354,-2.5135 z"
       stroke="#213c5d"
       stroke-width="0.529167"
       stroke-miterlimit="8"
       fill="#ffffff"
       fill-rule="evenodd"
       id="path798"
       style="fill:none;stroke:#808080" />
    <path
       d="m 221.92617,1121.7451 c 0,-1.3883 1.12527,-2.5136 2.51354,-2.5136 1.38827,0 2.51354,1.1253 2.51354,2.5136 0,1.3883 -1.12527,2.5135 -2.51354,2.5135 -1.38827,0 -2.51354,-1.1252 -2.51354,-2.5135 z"
       stroke="#213c5d"
       stroke-width="0.529167"
       stroke-miterlimit="8"
       fill="#ffffff"
       fill-rule="evenodd"
       id="path799"
       style="fill:none;stroke:#808080" />
    <path
       d="m 192.02825,1121.8774 h 29.85849"
       stroke="#213c5d"
       stroke-width="0.529167"
       stroke-miterlimit="8"
       fill="none"
       fill-rule="evenodd"
       id="path800"
       style="fill:#808080;stroke:#808080" />
    <path
       d="m 227.21783,1121.8774 h 29.85849"
       stroke="#213c5d"
       stroke-width="0.529167"
       stroke-miterlimit="8"
       fill="none"
       fill-rule="evenodd"
       id="path801"
       style="fill:#808080;stroke:#808080" />
    <path
       d="m 257.3409,1121.7451 c 0,-1.3883 1.12527,-2.5136 2.51354,-2.5136 1.38827,0 2.51354,1.1253 2.51354,2.5136 0,1.3883 -1.12527,2.5135 -2.51354,2.5135 -1.38827,0 -2.51354,-1.1252 -2.51354,-2.5135 z"
       stroke="#213c5d"
       stroke-width="0.529167"
       stroke-miterlimit="8"
       fill="#ffffff"
       fill-rule="evenodd"
       id="path802"
       style="fill:none;stroke:#808080" />
    <text
       fill="#213c5d"
       font-family="'Roboto Light', 'Roboto Light_MSFontService', sans-serif"
       font-weight="300"
       font-size="5.55625px"
       id="text802"
       x="217.7274"
       y="821.47284"
       style="font-style:normal;font-variant:normal;font-weight:300;font-stretch:normal;font-family:Roboto;-inkscape-font-specification:'Roboto Light';text-align:center;text-anchor:middle;white-space:pre;inline-size:38.5909;display:inline;fill:#808080;stroke-width:0.264583"
       transform="translate(42.236778,294.3853)"
       xml:space="preserve"><tspan
         x="217.7274"
         y="821.47284"
         id="tspan3">Solve Model</tspan></text>
    <path
       d="m 156.8781,1121.8888 h 29.85849"
       stroke="#213c5d"
       stroke-width="0.529167"
       stroke-miterlimit="8"
       fill="none"
       fill-rule="evenodd"
       id="path803"
       style="fill:#808080;stroke:#808080" />
    <g
       id="g807"
       transform="matrix(0.14894206,0,0,0.14894206,217.27631,1051.1507)"
       style="fill:#808080;fill-opacity:1;stroke-width:1.77642">
      <g
         id="g806"
         style="fill:#808080;fill-opacity:1;stroke-width:1.77642">
        <g
           id="g805"
           style="fill:#808080;fill-opacity:1;stroke-width:1.77642">
          <path
             d="m 608.029,327 h -2 v 68 H 674 v -2 h -65.971 z"
             id="path804"
             style="fill:#808080;fill-opacity:1;stroke-width:1.77642" />
          <path
             d="m 621.03,384 c 2.202,0.004 3.992,-1.777 3.996,-3.98 0.003,-1.258 -0.589,-2.444 -1.596,-3.199 l 8.68,-26.829 c 0.576,-0.014 1.143,-0.152 1.66,-0.407 l 15.33,11.681 c -0.411,2.17 1.015,4.264 3.185,4.675 2.171,0.411 4.264,-1.015 4.675,-3.185 0.047,-0.249 0.071,-0.502 0.07,-0.756 -0.003,-1.215 -0.562,-2.362 -1.517,-3.114 l 7.239,-20.914 c 0.094,0.007 0.183,0.028 0.278,0.028 2.217,0.008 4.02,-1.783 4.028,-4 0.008,-2.217 -1.783,-4.02 -4,-4.028 -2.217,-0.008 -4.02,1.783 -4.028,4 -0.005,1.361 0.681,2.632 1.821,3.376 l -7.171,20.717 c -0.215,-0.039 -0.432,-0.061 -0.65,-0.065 -1.174,0.003 -2.287,0.526 -3.039,1.427 l -14.661,-11.17 c 1.26,-1.819 0.808,-4.315 -1.011,-5.576 -1.819,-1.26 -4.316,-0.807 -5.576,1.012 -1.261,1.819 -0.808,4.315 1.011,5.575 0.132,0.092 0.269,0.175 0.411,0.25 l -8.586,26.537 c -2.183,-0.307 -4.202,1.213 -4.51,3.396 -0.307,2.184 1.214,4.203 3.397,4.51 0.187,0.026 0.375,0.039 0.564,0.039 z"
             id="path805"
             style="fill:#808080;fill-opacity:1;stroke-width:1.77642" />
        </g>
      </g>
    </g>
    <path
       d="m 177.83769,1077.0307 h 30.96933"
       stroke="#213c5d"
       stroke-width="0.529167"
       stroke-miterlimit="8"
       fill="none"
       fill-rule="evenodd"
       id="path807"
       style="fill:#808080;stroke:#808080" />
    <path
       d="m 126.76003,1077.0307 h 30.96933"
       stroke="#213c5d"
       stroke-width="0.529167"
       stroke-miterlimit="8"
       fill="none"
       fill-rule="evenodd"
       id="path808"
       style="fill:#808080;stroke:#808080" />
    <path
       d="M 82.899552,1077.0307 H 106.77226"
       stroke="#213c5d"
       stroke-width="0.529167"
       stroke-miterlimit="8"
       fill="none"
       fill-rule="evenodd"
       id="path809"
       style="fill:#808080;stroke:#808080" />
    <path
       d="m 262.63256,1121.8774 h 29.85849"
       stroke="#213c5d"
       stroke-width="0.529167"
       stroke-miterlimit="8"
       fill="none"
       fill-rule="evenodd"
       id="path810"
       style="fill:#808080;stroke:#808080" />
    <g
       id="g814"
       transform="matrix(0.1791591,0,0,0.1791591,175.24482,1038.6775)"
       style="fill:#808080;fill-opacity:1;stroke-width:1.47681">
      <g
         id="g813"
         style="fill:#808080;fill-opacity:1;stroke-width:1.47681">
        <g
           id="g812"
           style="fill:#808080;fill-opacity:1;stroke-width:1.47681">
          <path
             d="M 694.751,375.34 C 693.985,374.468 675.768,354 656,354 c -19.768,0 -37.985,20.468 -38.751,21.34 -0.332,0.377 -0.332,0.943 0,1.32 0.766,0.872 18.983,21.34 38.751,21.34 19.768,0 37.985,-20.468 38.751,-21.34 0.332,-0.377 0.332,-0.943 0,-1.32 z M 637,376 c 0,-10.493 8.507,-19 19,-19 10.493,0 19,8.507 19,19 0,10.493 -8.507,19 -19,19 -10.489,-0.012 -18.988,-8.511 -19,-19 z m -17.641,0 c 2.6,-2.76 13.177,-13.417 25.753,-17.945 0.049,-0.018 0.053,-0.01 0.008,0.017 -9.901,5.976 -13.084,18.846 -7.108,28.748 1.757,2.911 4.197,5.351 7.108,7.108 0.045,0.027 0.041,0.035 -0.008,0.017 C 632.536,389.417 621.955,378.76 619.359,376 Z m 47.529,17.945 c -0.049,0.018 -0.053,0.01 -0.008,-0.017 9.901,-5.976 13.084,-18.846 7.108,-28.748 -1.757,-2.911 -4.197,-5.351 -7.108,-7.108 -0.045,-0.027 -0.041,-0.035 0.008,-0.017 12.576,4.528 23.157,15.185 25.753,17.945 -2.596,2.76 -13.177,13.417 -25.753,17.945 z"
             id="path811"
             style="fill:#808080;fill-opacity:1;stroke-width:1.47681" />
          <path
             d="m 656,367 c -4.971,0 -9,4.029 -9,9 0,4.971 4.029,9 9,9 4.971,0 9,-4.029 9,-9 -0.006,-4.968 -4.032,-8.994 -9,-9 z m 0,16 c -3.866,0 -7,-3.134 -7,-7 0,-3.866 3.134,-7 7,-7 3.866,0 7,3.134 7,7 -0.004,3.864 -3.136,6.996 -7,7 z"
             id="path812"
             style="fill:#808080;fill-opacity:1;stroke-width:1.47681" />
        </g>
      </g>
    </g>
    <path
       d="m 228.91439,1077.1888 38.44175,0.011 c 12.41949,0.1737 22.63028,-9.6117 22.8065,-21.8563 0.17171,-11.939 -9.27629,-21.8681 -21.37204,-22.4603 l -1.00726,-0.038"
       stroke="#213c5d"
       stroke-width="0.529167"
       stroke-miterlimit="8"
       fill="none"
       fill-rule="evenodd"
       id="path814"
       style="stroke:#808080"
       sodipodi:nodetypes="ccccc" />
    <g
       id="g818"
       transform="translate(-313.88914,331.04813)">
      <path
         d="m 379.00342,692.14013 c 5.26045,0 9.52474,4.26429 9.52474,9.52474 0,5.26044 -4.26429,9.52473 -9.52474,9.52473 -5.26044,0 -9.52473,-4.26429 -9.52473,-9.52473 0.006,-5.2578 4.26694,-9.51865 9.52473,-9.52474 m 0,-0.52943 c -5.5528,0 -10.05416,4.50136 -10.05416,10.05417 0,5.55281 4.50136,10.05416 10.05416,10.05416 5.55281,0 10.05417,-4.50135 10.05417,-10.05416 0.002,-5.55017 -4.49501,-10.05153 -10.04517,-10.05417 -0.003,0 -0.006,0 -0.009,0 z"
         fill="#213c5d"
         fill-rule="evenodd"
         id="path817"
         style="fill:#213c5d;fill-opacity:1;stroke-width:0.264583"
         inkscape:export-filename="wf_7steps_2.svg"
         inkscape:export-xdpi="96"
         inkscape:export-ydpi="96" />
      <text
         fill="#213c5d"
         font-family="'Roboto Light', 'Roboto Light_MSFontService', sans-serif"
         font-weight="300"
         font-size="7.14375px"
         id="text817"
         x="368.6315"
         y="719.39191"
         style="fill:#213c5d;fill-opacity:1;stroke-width:0.264583">Import</text>
      <text
         fill="#213c5d"
         font-family="'Roboto Light', 'Roboto Light_MSFontService', sans-serif"
         font-weight="300"
         font-size="7.14375px"
         id="text818"
         x="365.63297"
         y="727.85858"
         style="fill:#213c5d;fill-opacity:1;stroke-width:0.264583">Modules</text>
      <path
         id="path818"
         style="fill:#213c5d;fill-opacity:1;stroke:none;stroke-width:0.529166;stroke-linecap:round;stroke-linejoin:round;stroke-dasharray:none;stroke-opacity:1"
         d="m 379.00321,691.67364 a 9.7894163,9.9912748 0 0 0 -9.78907,9.99112 9.7894163,9.9912748 0 0 0 9.78907,9.99112 9.7894163,9.9912748 0 0 0 9.78958,-9.99112 9.7894163,9.9912748 0 0 0 -9.78958,-9.99112 z m 0.69246,5.22862 0.10077,0.005 v 8.99066 h -0.64647 v -8.1287 -5.2e-4 l -5.2e-4,-5.1e-4 v -5.2e-4 -5.2e-4 h -5.1e-4 v -5.2e-4 h -5.2e-4 v -5.1e-4 h -5.2e-4 -5.1e-4 -5.2e-4 l -5.2e-4,5.1e-4 h -5.1e-4 c -3.5e-4,1.6e-4 -6.6e-4,2.7e-4 -0.001,5.2e-4 l -0.15813,0.12971 c -0.16033,0.12885 -0.32967,0.24735 -0.50694,0.3545 -0.18944,0.11563 -0.3848,0.22476 -0.58085,0.32504 -0.19712,0.10054 -0.39693,0.19192 -0.59273,0.27182 -0.14737,0.0595 -0.2881,0.11265 -0.42012,0.15762 v -0.50798 c 0.50482,-0.1606 0.98855,-0.37617 1.44125,-0.64234 0.48101,-0.28417 0.93871,-0.60285 1.36839,-0.95343 z" />
    </g>
  </g>
</svg>
